<svg width="32" height="32" viewBox="0 0 32 32" fill="none" xmlns="http://www.w3.org/2000/svg">
    <path fill-rule="evenodd" clip-rule="evenodd" d="M30.8159 5.99268C31.2397 3.92632 29.2101 2.20913 27.2425 2.96936L3.12362 12.288C0.926308 13.137 0.828401 16.2096 2.96719 17.1967L8.21962 19.621L10.7183 28.3662C10.8481 28.8204 11.2085 29.1722 11.6658 29.2907C12.1232 29.4091 12.6091 29.2768 12.9431 28.9427L16.792 25.0938L22.1836 29.1375C23.7487 30.3112 26.0028 29.4563 26.3959 27.5399L30.8159 5.99268ZM4.08468 14.7755L28.2036 5.45682L23.7836 27.0042L17.467 22.2666C16.9362 21.8684 16.1934 21.9212 15.7242 22.3904L14.0756 24.039L14.571 21.3148L24.2764 11.6094C24.7488 11.1371 24.7987 10.3881 24.3932 9.85726C23.9878 9.32641 23.2522 9.17752 22.6722 9.50893L9.2686 17.168L4.08468 14.7755ZM10.9029 19.3055L11.7114 22.1354L12.0218 20.428C12.0703 20.1612 12.1991 19.9155 12.3908 19.7238L15.3507 16.764L10.9029 19.3055Z" fill="#F26B30"/>
</svg>
