<svg width="32" height="32" viewBox="0 0 32 32" fill="none" xmlns="http://www.w3.org/2000/svg">
    <path fill-rule="evenodd" clip-rule="evenodd" d="M16 24C20.4183 24 24 20.4183 24 16C24 11.5817 20.4183 8 16 8C11.5817 8 8 11.5817 8 16C8 20.4183 11.5817 24 16 24ZM16 21.3333C18.9455 21.3333 21.3333 18.9455 21.3333 16C21.3333 13.0545 18.9455 10.6667 16 10.6667C13.0545 10.6667 10.6667 13.0545 10.6667 16C10.6667 18.9455 13.0545 21.3333 16 21.3333Z" fill="#F26B30"/>
    <path d="M23.9993 6.66669C23.2629 6.66669 22.666 7.26365 22.666 8.00002C22.666 8.73639 23.2629 9.33335 23.9993 9.33335C24.7357 9.33335 25.3327 8.73639 25.3327 8.00002C25.3327 7.26365 24.7357 6.66669 23.9993 6.66669Z" fill="#F26B30"/>
    <path fill-rule="evenodd" clip-rule="evenodd" d="M2.20593 5.70139C1.33398 7.41269 1.33398 9.6529 1.33398 14.1333V17.8666C1.33398 22.347 1.33398 24.5873 2.20593 26.2985C2.97292 27.8038 4.19676 29.0277 5.70206 29.7946C7.41336 30.6666 9.65357 30.6666 14.134 30.6666H17.8673C22.3477 30.6666 24.588 30.6666 26.2992 29.7946C27.8045 29.0277 29.0284 27.8038 29.7953 26.2985C30.6673 24.5873 30.6673 22.347 30.6673 17.8666V14.1333C30.6673 9.6529 30.6673 7.41269 29.7953 5.70139C29.0284 4.19609 27.8045 2.97225 26.2992 2.20526C24.588 1.33331 22.3477 1.33331 17.8673 1.33331H14.134C9.65357 1.33331 7.41336 1.33331 5.70206 2.20526C4.19676 2.97225 2.97292 4.19609 2.20593 5.70139ZM17.8673 3.99998H14.134C11.8498 3.99998 10.297 4.00206 9.09676 4.10011C7.92764 4.19563 7.32977 4.36877 6.9127 4.58127C5.90917 5.09261 5.09328 5.9085 4.58194 6.91203C4.36944 7.3291 4.1963 7.92697 4.10078 9.09609C4.00273 10.2963 4.00065 11.8491 4.00065 14.1333V17.8666C4.00065 20.1509 4.00273 21.7036 4.10078 22.9038C4.1963 24.073 4.36944 24.6709 4.58194 25.088C5.09328 26.0914 5.90917 26.9073 6.9127 27.4186C7.32977 27.6312 7.92764 27.8044 9.09676 27.8998C10.297 27.9978 11.8498 28 14.134 28H17.8673C20.1516 28 21.7043 27.9978 22.9045 27.8998C24.0737 27.8044 24.6716 27.6312 25.0886 27.4186C26.0921 26.9073 26.908 26.0914 27.4193 25.088C27.6318 24.6709 27.805 24.073 27.9005 22.9038C27.9985 21.7036 28.0006 20.1509 28.0006 17.8666V14.1333C28.0006 11.8491 27.9985 10.2963 27.9005 9.09609C27.805 7.92697 27.6318 7.3291 27.4193 6.91203C26.908 5.9085 26.0921 5.09261 25.0886 4.58127C24.6716 4.36877 24.0737 4.19563 22.9045 4.10011C21.7043 4.00206 20.1516 3.99998 17.8673 3.99998Z" fill="#F26B30"/>
</svg>
