<svg width="40" height="40" viewBox="0 0 40 40" fill="none" xmlns="http://www.w3.org/2000/svg">
    <rect x="0.75" y="5.75" width="38.5" height="28.5" rx="4.25" stroke="#040606" stroke-width="1.5"/>
    <line x1="4" y1="18.25" x2="9.81818" y2="18.25" stroke="#040606" stroke-width="1.5"/>
    <line x1="12.7266" y1="18.25" x2="18.5447" y2="18.25" stroke="#040606" stroke-width="1.5"/>
    <line x1="21.4551" y1="18.25" x2="27.2733" y2="18.25" stroke="#040606" stroke-width="1.5"/>
    <line x1="30.1816" y1="18.25" x2="35.9998" y2="18.25" stroke="#040606" stroke-width="1.5"/>
    <path fill-rule="evenodd" clip-rule="evenodd" d="M29.0626 28.9153C28.7655 29.3287 28.4068 29.6948 28 30.0004C28.8357 30.6281 29.8744 31 31 31C33.7614 31 36 28.7614 36 26C36 23.2386 33.7614 21 31 21C29.8744 21 28.8357 21.3719 28 21.9996C28.4068 22.3052 28.7655 22.6713 29.0626 23.0847C29.6173 22.7153 30.2835 22.5 31 22.5C32.933 22.5 34.5 24.067 34.5 26C34.5 27.933 32.933 29.5 31 29.5C30.2835 29.5 29.6173 29.2847 29.0626 28.9153Z" fill="#040606"/>
    <circle cx="25" cy="26" r="4.25" stroke="#040606" stroke-width="1.5"/>
    <rect x="4.75" y="9.75" width="3.5" height="3.5" stroke="#040606" stroke-width="1.5"/>
</svg>
