<svg width="40" height="40" viewBox="0 0 40 40" fill="none" xmlns="http://www.w3.org/2000/svg">
    <rect x="2.35" y="1.35" width="34.3" height="8.3" stroke="black" stroke-width="1.3"/>
    <rect x="3.35" y="9.35" width="32.3" height="29.3" stroke="black" stroke-width="1.3"/>
    <rect x="3.35" y="9.35" width="16.3" height="7.3" stroke="black" stroke-width="1.3"/>
    <rect x="19.35" y="9.35" width="16.3" height="7.3" stroke="black" stroke-width="1.3"/>
    <path d="M20.3398 26.35H19.6898V27V31.5V32.15H20.3398H35.0007H35.6507V31.5V27V26.35H35.0007H20.3398Z" stroke="black" stroke-width="1.3"/>
    <path d="M20 21.35H19.35V22V26V26.65H20H35H35.65V26V22V21.35H35H20Z" stroke="black" stroke-width="1.3"/>
    <path d="M20 16.35H19.35V17V21V21.65H20H35H35.65V21V17V16.35H35H20Z" stroke="black" stroke-width="1.3"/>
    <rect x="3.35" y="16.35" width="16.3" height="5.3" stroke="black" stroke-width="1.3"/>
    <path d="M4 21.35H3.35V22V26V26.65H4H19H19.65V26V22V21.35H19H4Z" stroke="black" stroke-width="1.3"/>
    <path d="M20.3652 32.35H19.7152V33V38V38.65H20.3652H34.9996H35.6496V38V33V32.35H34.9996H20.3652Z" stroke="black" stroke-width="1.3"/>
    <path d="M4 26.35H3.35V27V38V38.65H4H18.7256H19.3756V38V27V26.35H18.7256H4Z" stroke="black" stroke-width="1.3"/>
</svg>
