<svg width="40" height="40" viewBox="0 0 40 40" fill="none" xmlns="http://www.w3.org/2000/svg">
    <path d="M5.16129 0V9.03226H6.45161V18.9439C2.75871 19.8213 0 23.1394 0 27.0968V27.3329C0 28.9942 0.487097 30.6032 1.40903 31.9858L5.84452 38.6394C6.41161 39.491 7.36258 40 8.3871 40C9.41161 40 10.3626 39.491 10.9297 38.6394L14.3239 33.5484H38.7097V9.03226H40V0H5.16129ZM14.2916 31.2703L9.85613 37.9232C9.52839 38.4161 8.97871 38.7097 8.3871 38.7097C7.79548 38.7097 7.24581 38.4161 6.91806 37.9232L2.48258 31.2703C1.70258 30.1 1.29032 28.7387 1.29032 27.3329V27.0968C1.29032 23.1839 4.47419 20 8.3871 20C12.3 20 15.4839 23.1839 15.4839 27.0968V27.3329C15.4839 28.7387 15.0716 30.1 14.2916 31.2703ZM37.4194 32.2581H15.1839L15.3652 31.9858C16.2871 30.6039 16.7742 28.9942 16.7742 27.3329V27.0968C16.7742 22.4723 13.0116 18.7097 8.3871 18.7097C8.16903 18.7097 7.95548 18.7258 7.74194 18.7426V9.03226H37.4194V32.2581ZM38.7097 7.74194H6.45161V1.29032H38.7097V7.74194Z" fill="black"/>
    <path d="M36.1291 10.3226H21.9355V18.0645H36.1291V10.3226ZM34.8388 16.7742H23.2259V11.6129H34.8388V16.7742Z" fill="black"/>
    <path d="M36.1293 19.3549H29.6777V20.6452H36.1293V19.3549Z" fill="black"/>
    <path d="M36.1282 21.9355H34.8379V23.2258H36.1282V21.9355Z" fill="black"/>
    <path d="M33.5487 21.9355H29.6777V23.2258H33.5487V21.9355Z" fill="black"/>
    <path d="M8.38653 21.2903C5.18524 21.2903 2.58008 23.8949 2.58008 27.0968C2.58008 30.2987 5.18524 32.9032 8.38653 32.9032C11.5878 32.9032 14.193 30.2987 14.193 27.0968C14.193 23.8949 11.5878 21.2903 8.38653 21.2903ZM8.38653 31.6129C5.89621 31.6129 3.8704 29.5865 3.8704 27.0968C3.8704 24.6071 5.89621 22.5807 8.38653 22.5807C10.8769 22.5807 12.9027 24.6071 12.9027 27.0968C12.9027 29.5865 10.8769 31.6129 8.38653 31.6129Z" fill="black"/>
</svg>
