<svg width="40" height="40" viewBox="0 0 40 40" fill="none" xmlns="http://www.w3.org/2000/svg">
    <g clip-path="url(#clip0_1057_977)">
        <path d="M14.8387 11.6129H13.9639C15.2826 10.5477 16.129 8.92 16.129 7.09677V5.16129H18.0645V3.87097H16.129C16.129 1.73613 14.3929 0 12.2581 0H8.3871C6.25226 0 4.51613 1.73613 4.51613 3.87097V5.16129V7.09677C4.51613 8.92 5.36258 10.5477 6.68129 11.6129H5.80645C2.60516 11.6129 0 14.2181 0 17.4194V23.871C0 26.0058 1.73613 27.7419 3.87097 27.7419V40H16.7742V27.7419C18.909 27.7419 20.6452 26.0058 20.6452 23.871V17.4194C20.6452 14.2181 18.04 11.6129 14.8387 11.6129ZM8.3871 1.29032H12.2581C13.6813 1.29032 14.8387 2.44774 14.8387 3.87097H5.80645C5.80645 2.44774 6.96387 1.29032 8.3871 1.29032ZM5.80645 7.09677V5.16129H14.8387V7.09677C14.8387 9.5871 12.8129 11.6129 10.3226 11.6129C7.83226 11.6129 5.80645 9.5871 5.80645 7.09677ZM12.4116 12.9032L10.3226 14.6439L8.23355 12.9032H12.4116ZM3.87097 26.4516C2.44774 26.4516 1.29032 25.2942 1.29032 23.871V18.7097H3.87097V26.4516ZM9.67742 38.7097H5.16129V37.4194H9.67742V38.7097ZM15.4839 38.7097H10.9677V37.4194H15.4839V38.7097ZM15.4839 36.129H10.9677V29.0323H9.67742V36.129H5.16129V26.4516H15.4839V36.129ZM19.3548 23.871C19.3548 25.2942 18.1974 26.4516 16.7742 26.4516V18.7097H19.3548V23.871ZM16.7742 17.4194V16.129H15.4839V25.1613H5.16129V16.129H3.87097V17.4194H1.29032C1.29032 14.929 3.31613 12.9032 5.80645 12.9032H6.21806L10.3226 16.3239L14.4271 12.9032H14.8387C17.329 12.9032 19.3548 14.929 19.3548 17.4194H16.7742Z" fill="black"/>
        <path d="M37.4192 36.129H36.1289V37.4194H37.4192V36.129Z" fill="black"/>
        <path d="M34.8392 36.129H33.5488V37.4194H34.8392V36.129Z" fill="black"/>
        <path d="M37.4192 33.5484H36.1289V34.8387H37.4192V33.5484Z" fill="black"/>
        <path d="M21.9355 10.3226V24.5161V25.1613V40H40.0001V25.1613V24.5161V10.3226H21.9355ZM30.3226 11.6129H31.613V16.7742H30.3226V11.6129ZM38.7097 38.7097H23.2259V25.8064H29.0323V32.2581H32.9033V25.8064H38.7097V38.7097ZM30.3226 30.9677V25.8064H31.613V30.9677H30.3226ZM38.7097 24.5161H23.2259V11.6129H29.0323V18.0645H32.9033V11.6129H38.7097V24.5161Z" fill="black"/>
        <path d="M37.4192 21.9355H36.1289V23.2258H37.4192V21.9355Z" fill="black"/>
        <path d="M34.8392 21.9355H33.5488V23.2258H34.8392V21.9355Z" fill="black"/>
        <path d="M37.4192 19.3549H36.1289V20.6452H37.4192V19.3549Z" fill="black"/>
    </g>
    <defs>
        <clipPath id="clip0_1057_977">
            <rect width="40" height="40" fill="white"/>
        </clipPath>
    </defs>
</svg>
