<svg width="150" height="153" viewBox="0 0 150 153" fill="none" xmlns="http://www.w3.org/2000/svg">
<rect width="150" height="150" fill="white"/>
<path d="M12.8807 15.0017V7.72898H17.2699V8.51023H13.7614V10.9676H17.0426V11.7489H13.7614V14.2205H17.3267V15.0017H12.8807ZM22.8345 9.54716C22.7919 9.18732 22.6191 8.90796 22.3161 8.7091C22.013 8.51023 21.6413 8.4108 21.201 8.4108C20.879 8.4108 20.5973 8.46288 20.3558 8.56705C20.1167 8.67122 19.9297 8.81445 19.7947 8.99674C19.6622 9.17903 19.5959 9.38618 19.5959 9.61819C19.5959 9.81231 19.642 9.97922 19.7344 10.1189C19.8291 10.2562 19.9498 10.371 20.0966 10.4634C20.2434 10.5533 20.3973 10.6279 20.5582 10.6871C20.7192 10.7439 20.8672 10.7901 21.0021 10.8256L21.7408 11.0244C21.9302 11.0742 22.1409 11.1428 22.3729 11.2304C22.6072 11.318 22.831 11.4376 23.044 11.5891C23.2595 11.7382 23.437 11.93 23.5767 12.1644C23.7164 12.3987 23.7862 12.6864 23.7862 13.0273C23.7862 13.4203 23.6832 13.7754 23.4773 14.0926C23.2737 14.4099 22.9754 14.662 22.5824 14.849C22.1918 15.036 21.7171 15.1295 21.1584 15.1295C20.6375 15.1295 20.1866 15.0455 19.8054 14.8774C19.4266 14.7093 19.1283 14.475 18.9105 14.1743C18.6951 13.8736 18.5732 13.5244 18.5447 13.1267H19.4538C19.4775 13.4013 19.5698 13.6286 19.7308 13.8085C19.8942 13.9861 20.1001 14.1187 20.3487 14.2063C20.5997 14.2915 20.8696 14.3341 21.1584 14.3341C21.4946 14.3341 21.7964 14.2796 22.0639 14.1707C22.3314 14.0595 22.5433 13.9056 22.6996 13.7091C22.8558 13.5102 22.9339 13.2782 22.9339 13.0131C22.9339 12.7716 22.8665 12.5751 22.7315 12.4236C22.5966 12.2721 22.419 12.149 22.1989 12.0543C21.9787 11.9596 21.7408 11.8767 21.4851 11.8057L20.5902 11.55C20.022 11.3867 19.5722 11.1535 19.2408 10.8504C18.9093 10.5474 18.7436 10.1509 18.7436 9.6608C18.7436 9.2536 18.8537 8.89849 19.0739 8.59546C19.2964 8.29006 19.5947 8.05332 19.9688 7.88523C20.3452 7.71478 20.7654 7.62955 21.2294 7.62955C21.6982 7.62955 22.1148 7.71359 22.4794 7.88168C22.844 8.0474 23.1328 8.27467 23.3459 8.5635C23.5613 8.85232 23.675 9.18021 23.6868 9.54716H22.8345Z" fill="#040606"/>
<path d="M18.1676 33.1011C17.8693 33.0964 17.571 33.0396 17.2727 32.9307C16.9744 32.8218 16.7022 32.6383 16.456 32.3803C16.2098 32.1198 16.0121 31.7683 15.8629 31.3256C15.7138 30.8805 15.6392 30.3218 15.6392 29.6494C15.6392 29.0055 15.6996 28.4349 15.8203 27.9378C15.9411 27.4383 16.1162 27.018 16.3459 26.6771C16.5755 26.3339 16.8525 26.0734 17.1768 25.8959C17.5036 25.7183 17.8717 25.6295 18.2812 25.6295C18.6884 25.6295 19.0507 25.7112 19.3679 25.8746C19.6875 26.0356 19.9479 26.2605 20.1491 26.5493C20.3504 26.8381 20.4806 27.1707 20.5398 27.5472H19.6733C19.5928 27.2205 19.4366 26.9494 19.2045 26.734C18.9725 26.5185 18.6648 26.4108 18.2812 26.4108C17.7178 26.4108 17.2739 26.6558 16.9496 27.1459C16.6276 27.6359 16.4654 28.3237 16.4631 29.2091H16.5199C16.6525 29.0079 16.8099 28.8362 16.9922 28.6942C17.1768 28.5498 17.3804 28.4385 17.603 28.3604C17.8255 28.2822 18.0611 28.2432 18.3097 28.2432C18.7263 28.2432 19.1075 28.3474 19.4531 28.5557C19.7988 28.7617 20.0758 29.0469 20.2841 29.4115C20.4924 29.7737 20.5966 30.1892 20.5966 30.658C20.5966 31.1078 20.496 31.5197 20.2947 31.8938C20.0935 32.2654 19.8106 32.5614 19.446 32.7815C19.0838 32.9993 18.6577 33.1059 18.1676 33.1011ZM18.1676 32.3199C18.4659 32.3199 18.7334 32.2453 18.9702 32.0962C19.2093 31.947 19.3975 31.747 19.5348 31.496C19.6745 31.2451 19.7443 30.9657 19.7443 30.658C19.7443 30.3573 19.6768 30.0839 19.5419 29.8376C19.4093 29.5891 19.2259 29.3914 18.9915 29.2446C18.7595 29.0978 18.4943 29.0244 18.196 29.0244C17.9711 29.0244 17.7616 29.0694 17.5675 29.1594C17.3733 29.247 17.2029 29.3677 17.0561 29.5216C16.9117 29.6755 16.7981 29.8519 16.7152 30.0507C16.6323 30.2472 16.5909 30.4544 16.5909 30.6722C16.5909 30.961 16.6584 31.2309 16.7933 31.4818C16.9306 31.7328 17.1177 31.9352 17.3544 32.0891C17.5935 32.2429 17.8646 32.3199 18.1676 32.3199Z" fill="#040606"/>
<path d="M52.0256 33.1011C51.6089 33.1011 51.2337 33.0183 50.8999 32.8526C50.5661 32.6868 50.2985 32.4596 50.0973 32.1707C49.8961 31.8819 49.786 31.5528 49.767 31.1835H50.6193C50.6525 31.5126 50.8016 31.7849 51.0668 32.0003C51.3343 32.2134 51.6539 32.3199 52.0256 32.3199C52.3239 32.3199 52.589 32.2501 52.821 32.1104C53.0554 31.9707 53.2389 31.7789 53.3714 31.5351C53.5064 31.2889 53.5739 31.0107 53.5739 30.7006C53.5739 30.3833 53.504 30.1004 53.3643 29.8519C53.227 29.6009 53.0376 29.4032 52.7962 29.2588C52.5547 29.1144 52.2789 29.041 51.9688 29.0386C51.7462 29.0363 51.5178 29.0706 51.2834 29.1416C51.049 29.2103 50.8561 29.2991 50.7045 29.408L49.8807 29.3085L50.321 25.729H54.0994V26.5102H51.0597L50.804 28.6551H50.8466C50.9957 28.5367 51.1828 28.4385 51.4077 28.3604C51.6326 28.2822 51.867 28.2432 52.1108 28.2432C52.5559 28.2432 52.9524 28.3497 53.3004 28.5628C53.6508 28.7735 53.9254 29.0623 54.1243 29.4293C54.3255 29.7962 54.4261 30.2153 54.4261 30.6864C54.4261 31.1504 54.322 31.5647 54.1136 31.9293C53.9077 32.2915 53.6236 32.5779 53.2614 32.7886C52.8991 32.997 52.4872 33.1011 52.0256 33.1011ZM56.1884 33.0585C56.0132 33.0585 55.8629 32.9958 55.7374 32.8703C55.6119 32.7448 55.5492 32.5945 55.5492 32.4193C55.5492 32.2441 55.6119 32.0938 55.7374 31.9683C55.8629 31.8429 56.0132 31.7801 56.1884 31.7801C56.3636 31.7801 56.5139 31.8429 56.6394 31.9683C56.7649 32.0938 56.8276 32.2441 56.8276 32.4193C56.8276 32.5353 56.798 32.6419 56.7388 32.7389C56.682 32.836 56.6051 32.9141 56.508 32.9733C56.4133 33.0301 56.3068 33.0585 56.1884 33.0585ZM60.4435 33.1011C60.0269 33.1011 59.6516 33.0183 59.3178 32.8526C58.984 32.6868 58.7165 32.4596 58.5153 32.1707C58.314 31.8819 58.204 31.5528 58.185 31.1835H59.0373C59.0704 31.5126 59.2196 31.7849 59.4847 32.0003C59.7522 32.2134 60.0719 32.3199 60.4435 32.3199C60.7418 32.3199 61.007 32.2501 61.239 32.1104C61.4734 31.9707 61.6568 31.7789 61.7894 31.5351C61.9244 31.2889 61.9918 31.0107 61.9918 30.7006C61.9918 30.3833 61.922 30.1004 61.7823 29.8519C61.645 29.6009 61.4556 29.4032 61.2141 29.2588C60.9727 29.1144 60.6969 29.041 60.3867 29.0386C60.1642 29.0363 59.9357 29.0706 59.7013 29.1416C59.467 29.2103 59.274 29.2991 59.1225 29.408L58.2987 29.3085L58.739 25.729H62.5174V26.5102H59.4776L59.2219 28.6551H59.2646C59.4137 28.5367 59.6007 28.4385 59.8256 28.3604C60.0505 28.2822 60.2849 28.2432 60.5288 28.2432C60.9738 28.2432 61.3704 28.3497 61.7184 28.5628C62.0688 28.7735 62.3434 29.0623 62.5423 29.4293C62.7435 29.7962 62.8441 30.2153 62.8441 30.6864C62.8441 31.1504 62.7399 31.5647 62.5316 31.9293C62.3256 32.2915 62.0415 32.5779 61.6793 32.7886C61.3171 32.997 60.9052 33.1011 60.4435 33.1011Z" fill="#040606"/>
<path d="M86.2102 33.1011C85.7415 33.1011 85.3236 33.0206 84.9567 32.8597C84.5921 32.6987 84.3021 32.475 84.0866 32.1885C83.8736 31.8997 83.7576 31.5647 83.7386 31.1835H84.6335C84.6525 31.4179 84.733 31.6203 84.875 31.7908C85.017 31.9589 85.2029 32.0891 85.4325 32.1814C85.6622 32.2737 85.9167 32.3199 86.196 32.3199C86.5085 32.3199 86.7855 32.2654 87.027 32.1565C87.2685 32.0476 87.4579 31.8961 87.5952 31.702C87.7325 31.5079 87.8011 31.283 87.8011 31.0273C87.8011 30.7598 87.7348 30.5242 87.6023 30.3206C87.4697 30.1146 87.2756 29.9537 87.0199 29.8376C86.7642 29.7216 86.4517 29.6636 86.0824 29.6636H85.5V28.8824H86.0824C86.3712 28.8824 86.6245 28.8303 86.8423 28.7261C87.0625 28.622 87.2341 28.4752 87.3572 28.2858C87.4827 28.0964 87.5455 27.8739 87.5455 27.6182C87.5455 27.372 87.491 27.1577 87.3821 26.9754C87.2732 26.7931 87.1193 26.6511 86.9205 26.5493C86.724 26.4475 86.492 26.3966 86.2244 26.3966C85.9735 26.3966 85.7367 26.4428 85.5142 26.5351C85.294 26.6251 85.1141 26.7564 84.9744 26.9293C84.8348 27.0997 84.759 27.3057 84.7472 27.5472H83.8949C83.9091 27.166 84.0239 26.8322 84.2393 26.5457C84.4548 26.2569 84.7365 26.032 85.0845 25.871C85.4349 25.71 85.8196 25.6295 86.2386 25.6295C86.6884 25.6295 87.0743 25.7207 87.3963 25.903C87.7183 26.0829 87.9657 26.3208 88.1385 26.6168C88.3113 26.9127 88.3977 27.2323 88.3977 27.5756C88.3977 27.9851 88.29 28.3343 88.0746 28.6232C87.8615 28.912 87.5715 29.112 87.2045 29.2233V29.2801C87.6638 29.3559 88.0225 29.5512 88.2805 29.8661C88.5386 30.1786 88.6676 30.5656 88.6676 31.0273C88.6676 31.4226 88.5599 31.7778 88.3445 32.0926C88.1314 32.4051 87.8402 32.6513 87.4709 32.8313C87.1016 33.0112 86.6813 33.1011 86.2102 33.1011ZM92.4496 33.1011C91.9619 33.1011 91.531 33.0147 91.157 32.8419C90.7853 32.6667 90.4953 32.4264 90.2869 32.121C90.0786 31.8133 89.9756 31.4629 89.978 31.0699C89.9756 30.7621 90.036 30.478 90.1591 30.2176C90.2822 29.9548 90.4503 29.7358 90.6634 29.5607C90.8788 29.3831 91.1191 29.2706 91.3842 29.2233V29.1807C91.0362 29.0907 90.7592 28.8954 90.5533 28.5947C90.3473 28.2917 90.2455 27.9473 90.2479 27.5614C90.2455 27.192 90.339 26.8618 90.5284 26.5706C90.7178 26.2794 90.9782 26.0498 91.3097 25.8817C91.6435 25.7136 92.0234 25.6295 92.4496 25.6295C92.871 25.6295 93.2474 25.7136 93.5788 25.8817C93.9103 26.0498 94.1707 26.2794 94.3601 26.5706C94.5518 26.8618 94.6489 27.192 94.6513 27.5614C94.6489 27.9473 94.5436 28.2917 94.3352 28.5947C94.1293 28.8954 93.8558 29.0907 93.5149 29.1807V29.2233C93.7777 29.2706 94.0144 29.3831 94.2251 29.5607C94.4358 29.7358 94.6039 29.9548 94.7294 30.2176C94.8549 30.478 94.9188 30.7621 94.9212 31.0699C94.9188 31.4629 94.8123 31.8133 94.6016 32.121C94.3932 32.4264 94.1032 32.6667 93.7315 32.8419C93.3622 33.0147 92.9349 33.1011 92.4496 33.1011ZM92.4496 32.3199C92.7786 32.3199 93.0627 32.2666 93.3018 32.1601C93.541 32.0536 93.7256 31.9032 93.8558 31.7091C93.986 31.515 94.0523 31.2877 94.0547 31.0273C94.0523 30.7527 93.9813 30.51 93.8416 30.2993C93.7019 30.0886 93.5114 29.9229 93.2699 29.8021C93.0308 29.6814 92.7573 29.621 92.4496 29.621C92.1394 29.621 91.8625 29.6814 91.6186 29.8021C91.3771 29.9229 91.1866 30.0886 91.0469 30.2993C90.9096 30.51 90.8421 30.7527 90.8445 31.0273C90.8421 31.2877 90.9048 31.515 91.0327 31.7091C91.1629 31.9032 91.3487 32.0536 91.5902 32.1601C91.8317 32.2666 92.1181 32.3199 92.4496 32.3199ZM92.4496 28.8682C92.71 28.8682 92.9408 28.8161 93.142 28.7119C93.3456 28.6078 93.5054 28.4622 93.6214 28.2751C93.7375 28.0881 93.7966 27.8691 93.799 27.6182C93.7966 27.372 93.7386 27.1577 93.625 26.9754C93.5114 26.7908 93.3539 26.6487 93.1527 26.5493C92.9515 26.4475 92.7171 26.3966 92.4496 26.3966C92.1773 26.3966 91.9394 26.4475 91.7358 26.5493C91.5322 26.6487 91.3748 26.7908 91.2635 26.9754C91.1522 27.1577 91.0978 27.372 91.1001 27.6182C91.0978 27.8691 91.1534 28.0881 91.267 28.2751C91.383 28.4622 91.5429 28.6078 91.7464 28.7119C91.95 28.8161 92.1844 28.8682 92.4496 28.8682ZM96.6825 33.0585C96.5073 33.0585 96.357 32.9958 96.2315 32.8703C96.1061 32.7448 96.0433 32.5945 96.0433 32.4193C96.0433 32.2441 96.1061 32.0938 96.2315 31.9683C96.357 31.8429 96.5073 31.7801 96.6825 31.7801C96.8577 31.7801 97.008 31.8429 97.1335 31.9683C97.259 32.0938 97.3217 32.2441 97.3217 32.4193C97.3217 32.5353 97.2921 32.6419 97.233 32.7389C97.1761 32.836 97.0992 32.9141 97.0021 32.9733C96.9074 33.0301 96.8009 33.0585 96.6825 33.0585ZM100.938 33.1011C100.521 33.1011 100.146 33.0183 99.812 32.8526C99.4782 32.6868 99.2106 32.4596 99.0094 32.1707C98.8082 31.8819 98.6981 31.5528 98.6792 31.1835H99.5314C99.5646 31.5126 99.7137 31.7849 99.9789 32.0003C100.246 32.2134 100.566 32.3199 100.938 32.3199C101.236 32.3199 101.501 32.2501 101.733 32.1104C101.968 31.9707 102.151 31.7789 102.284 31.5351C102.419 31.2889 102.486 31.0107 102.486 30.7006C102.486 30.3833 102.416 30.1004 102.276 29.8519C102.139 29.6009 101.95 29.4032 101.708 29.2588C101.467 29.1144 101.191 29.041 100.881 29.0386C100.658 29.0363 100.43 29.0706 100.195 29.1416C99.9611 29.2103 99.7682 29.2991 99.6167 29.408L98.7928 29.3085L99.2331 25.729H103.012V26.5102H99.9718L99.7161 28.6551H99.7587C99.9078 28.5367 100.095 28.4385 100.32 28.3604C100.545 28.2822 100.779 28.2432 101.023 28.2432C101.468 28.2432 101.865 28.3497 102.213 28.5628C102.563 28.7735 102.838 29.0623 103.036 29.4293C103.238 29.7962 103.338 30.2153 103.338 30.6864C103.338 31.1504 103.234 31.5647 103.026 31.9293C102.82 32.2915 102.536 32.5779 102.173 32.7886C101.811 32.997 101.399 33.1011 100.938 33.1011Z" fill="#040606"/>
<path d="M125.753 33.0017V32.3625L128.153 29.7347C128.435 29.4269 128.667 29.1594 128.849 28.9321C129.032 28.7025 129.167 28.487 129.254 28.2858C129.344 28.0822 129.389 27.8691 129.389 27.6466C129.389 27.3909 129.328 27.1696 129.205 26.9825C129.084 26.7955 128.918 26.6511 128.707 26.5493C128.497 26.4475 128.26 26.3966 127.997 26.3966C127.718 26.3966 127.474 26.4546 127.266 26.5706C127.06 26.6842 126.9 26.844 126.786 27.05C126.675 27.256 126.619 27.4974 126.619 27.7744H125.781C125.781 27.3483 125.879 26.9742 126.076 26.6523C126.272 26.3303 126.54 26.0794 126.879 25.8994C127.219 25.7195 127.602 25.6295 128.026 25.6295C128.452 25.6295 128.829 25.7195 129.158 25.8994C129.487 26.0794 129.746 26.322 129.933 26.6274C130.12 26.9328 130.213 27.2725 130.213 27.6466C130.213 27.9141 130.165 28.1757 130.067 28.4314C129.973 28.6847 129.807 28.9676 129.57 29.2801C129.336 29.5903 129.01 29.969 128.594 30.4165L126.96 32.1636V32.2205H130.341V33.0017H125.753ZM131.481 31.5102V30.7858L134.677 25.729H135.202V26.8511H134.847L132.433 30.6722V30.729H136.737V31.5102H131.481ZM134.904 33.0017V31.2901V30.9527V25.729H135.742V33.0017H134.904Z" fill="#040606"/>
<path d="M18.0824 98.1011C17.5947 98.1011 17.1638 98.0147 16.7898 97.8419C16.4181 97.6667 16.1281 97.4264 15.9197 97.121C15.7114 96.8133 15.6084 96.4629 15.6108 96.0699C15.6084 95.7621 15.6688 95.478 15.7919 95.2176C15.915 94.9548 16.0831 94.7358 16.2962 94.5607C16.5116 94.3831 16.7519 94.2706 17.017 94.2233V94.1807C16.669 94.0907 16.392 93.8954 16.1861 93.5947C15.9801 93.2917 15.8783 92.9473 15.8807 92.5614C15.8783 92.192 15.9718 91.8618 16.1612 91.5706C16.3506 91.2794 16.611 91.0498 16.9425 90.8817C17.2763 90.7136 17.6563 90.6295 18.0824 90.6295C18.5038 90.6295 18.8802 90.7136 19.2116 90.8817C19.5431 91.0498 19.8035 91.2794 19.9929 91.5706C20.1847 91.8618 20.2817 92.192 20.2841 92.5614C20.2817 92.9473 20.1764 93.2917 19.968 93.5947C19.7621 93.8954 19.4886 94.0907 19.1477 94.1807V94.2233C19.4105 94.2706 19.6473 94.3831 19.858 94.5607C20.0687 94.7358 20.2367 94.9548 20.3622 95.2176C20.4877 95.478 20.5516 95.7621 20.554 96.0699C20.5516 96.4629 20.4451 96.8133 20.2344 97.121C20.026 97.4264 19.736 97.6667 19.3643 97.8419C18.995 98.0147 18.5677 98.1011 18.0824 98.1011ZM18.0824 97.3199C18.4115 97.3199 18.6955 97.2666 18.9347 97.1601C19.1738 97.0536 19.3584 96.9032 19.4886 96.7091C19.6188 96.515 19.6851 96.2877 19.6875 96.0273C19.6851 95.7527 19.6141 95.51 19.4744 95.2993C19.3348 95.0886 19.1442 94.9229 18.9027 94.8021C18.6636 94.6814 18.3902 94.621 18.0824 94.621C17.7723 94.621 17.4953 94.6814 17.2514 94.8021C17.0099 94.9229 16.8194 95.0886 16.6797 95.2993C16.5424 95.51 16.4749 95.7527 16.4773 96.0273C16.4749 96.2877 16.5376 96.515 16.6655 96.7091C16.7957 96.9032 16.9815 97.0536 17.223 97.1601C17.4645 97.2666 17.7509 97.3199 18.0824 97.3199ZM18.0824 93.8682C18.3428 93.8682 18.5736 93.8161 18.7749 93.7119C18.9785 93.6078 19.1383 93.4622 19.2543 93.2751C19.3703 93.0881 19.4295 92.8691 19.4318 92.6182C19.4295 92.372 19.3714 92.1577 19.2578 91.9754C19.1442 91.7908 18.9867 91.6487 18.7855 91.5493C18.5843 91.4475 18.3499 91.3966 18.0824 91.3966C17.8101 91.3966 17.5722 91.4475 17.3686 91.5493C17.165 91.6487 17.0076 91.7908 16.8963 91.9754C16.785 92.1577 16.7306 92.372 16.733 92.6182C16.7306 92.8691 16.7862 93.0881 16.8999 93.2751C17.0159 93.4622 17.1757 93.6078 17.3793 93.7119C17.5829 93.8161 17.8172 93.8682 18.0824 93.8682Z" fill="#040606"/>
<path d="M53.9801 98.0017L57.233 91.567V91.5102H53.483V90.729H58.142V91.5528L54.9034 98.0017H53.9801Z" fill="#040606"/>
<path d="M88.5824 96.5102V95.7858L91.7784 90.729H92.304V91.8511H91.9489L89.5341 95.6722V95.729H93.8381V96.5102H88.5824ZM92.0057 98.0017V96.2901V95.9527V90.729H92.8438V98.0017H92.0057ZM97.628 90.729V98.0017H96.7473V91.6523H96.7047L94.9292 92.8313V91.9364L96.7473 90.729H97.628Z" fill="#040606"/>
<path d="M125.753 98.0017V97.3625L128.153 94.7347C128.435 94.4269 128.667 94.1594 128.849 93.9321C129.032 93.7025 129.167 93.487 129.254 93.2858C129.344 93.0822 129.389 92.8691 129.389 92.6466C129.389 92.3909 129.328 92.1696 129.205 91.9825C129.084 91.7955 128.918 91.6511 128.707 91.5493C128.497 91.4475 128.26 91.3966 127.997 91.3966C127.718 91.3966 127.474 91.4546 127.266 91.5706C127.06 91.6842 126.9 91.844 126.786 92.05C126.675 92.256 126.619 92.4974 126.619 92.7744H125.781C125.781 92.3483 125.879 91.9742 126.076 91.6523C126.272 91.3303 126.54 91.0794 126.879 90.8994C127.219 90.7195 127.602 90.6295 128.026 90.6295C128.452 90.6295 128.829 90.7195 129.158 90.8994C129.487 91.0794 129.746 91.322 129.933 91.6274C130.12 91.9328 130.213 92.2725 130.213 92.6466C130.213 92.9141 130.165 93.1757 130.067 93.4314C129.973 93.6847 129.807 93.9676 129.57 94.2801C129.336 94.5903 129.01 94.969 128.594 95.4165L126.96 97.1636V97.2205H130.341V98.0017H125.753ZM134.222 98.1011C133.924 98.0964 133.626 98.0396 133.327 97.9307C133.029 97.8218 132.757 97.6383 132.511 97.3803C132.264 97.1198 132.067 96.7683 131.918 96.3256C131.768 95.8805 131.694 95.3218 131.694 94.6494C131.694 94.0055 131.754 93.4349 131.875 92.9378C131.996 92.4383 132.171 92.018 132.401 91.6771C132.63 91.3339 132.907 91.0734 133.232 90.8959C133.558 90.7183 133.926 90.6295 134.336 90.6295C134.743 90.6295 135.105 90.7112 135.423 90.8746C135.742 91.0356 136.003 91.2605 136.204 91.5493C136.405 91.8381 136.535 92.1707 136.594 92.5472H135.728C135.647 92.2205 135.491 91.9494 135.259 91.734C135.027 91.5185 134.719 91.4108 134.336 91.4108C133.772 91.4108 133.329 91.6558 133.004 92.1459C132.682 92.6359 132.52 93.3237 132.518 94.2091H132.575C132.707 94.0079 132.865 93.8362 133.047 93.6942C133.232 93.5498 133.435 93.4385 133.658 93.3604C133.88 93.2822 134.116 93.2432 134.364 93.2432C134.781 93.2432 135.162 93.3474 135.508 93.5557C135.853 93.7617 136.13 94.0469 136.339 94.4115C136.547 94.7737 136.651 95.1892 136.651 95.658C136.651 96.1078 136.551 96.5197 136.349 96.8938C136.148 97.2654 135.865 97.5614 135.501 97.7815C135.138 97.9993 134.712 98.1059 134.222 98.1011ZM134.222 97.3199C134.521 97.3199 134.788 97.2453 135.025 97.0962C135.264 96.947 135.452 96.747 135.589 96.496C135.729 96.2451 135.799 95.9657 135.799 95.658C135.799 95.3573 135.732 95.0839 135.597 94.8376C135.464 94.5891 135.281 94.3914 135.046 94.2446C134.814 94.0978 134.549 94.0244 134.251 94.0244C134.026 94.0244 133.816 94.0694 133.622 94.1594C133.428 94.247 133.258 94.3677 133.111 94.5216C132.966 94.6755 132.853 94.8519 132.77 95.0507C132.687 95.2472 132.646 95.4544 132.646 95.6722C132.646 95.961 132.713 96.2309 132.848 96.4818C132.985 96.7328 133.172 96.9352 133.409 97.0891C133.648 97.2429 133.919 97.3199 134.222 97.3199Z" fill="#040606"/>
<path d="M15.9801 65.0017L19.233 58.567V58.5102H15.483V57.729H20.142V58.5528L16.9034 65.0017H15.9801Z" fill="#040606"/>
<path d="M56.1676 65.1011C55.8693 65.0964 55.571 65.0396 55.2727 64.9307C54.9744 64.8218 54.7022 64.6383 54.456 64.3803C54.2098 64.1198 54.0121 63.7683 53.8629 63.3256C53.7138 62.8805 53.6392 62.3218 53.6392 61.6494C53.6392 61.0055 53.6996 60.4349 53.8203 59.9378C53.9411 59.4383 54.1162 59.018 54.3459 58.6771C54.5755 58.3339 54.8525 58.0734 55.1768 57.8959C55.5036 57.7183 55.8717 57.6295 56.2812 57.6295C56.6884 57.6295 57.0507 57.7112 57.3679 57.8746C57.6875 58.0356 57.9479 58.2605 58.1491 58.5493C58.3504 58.8381 58.4806 59.1707 58.5398 59.5472H57.6733C57.5928 59.2205 57.4366 58.9494 57.2045 58.734C56.9725 58.5185 56.6648 58.4108 56.2812 58.4108C55.7178 58.4108 55.2739 58.6558 54.9496 59.1459C54.6276 59.6359 54.4654 60.3237 54.4631 61.2091H54.5199C54.6525 61.0079 54.8099 60.8362 54.9922 60.6942C55.1768 60.5498 55.3804 60.4385 55.603 60.3604C55.8255 60.2822 56.0611 60.2432 56.3097 60.2432C56.7263 60.2432 57.1075 60.3474 57.4531 60.5557C57.7988 60.7617 58.0758 61.0469 58.2841 61.4115C58.4924 61.7737 58.5966 62.1892 58.5966 62.658C58.5966 63.1078 58.496 63.5197 58.2947 63.8938C58.0935 64.2654 57.8106 64.5614 57.446 64.7815C57.0838 64.9993 56.6577 65.1059 56.1676 65.1011ZM56.1676 64.3199C56.4659 64.3199 56.7334 64.2453 56.9702 64.0962C57.2093 63.947 57.3975 63.747 57.5348 63.496C57.6745 63.2451 57.7443 62.9657 57.7443 62.658C57.7443 62.3573 57.6768 62.0839 57.5419 61.8376C57.4093 61.5891 57.2259 61.3914 56.9915 61.2446C56.7595 61.0978 56.4943 61.0244 56.196 61.0244C55.9711 61.0244 55.7616 61.0694 55.5675 61.1594C55.3733 61.247 55.2029 61.3677 55.0561 61.5216C54.9117 61.6755 54.7981 61.8519 54.7152 62.0507C54.6323 62.2472 54.5909 62.4544 54.5909 62.6722C54.5909 62.961 54.6584 63.2309 54.7933 63.4818C54.9306 63.7328 55.1177 63.9352 55.3544 64.0891C55.5935 64.2429 55.8646 64.3199 56.1676 64.3199Z" fill="#040606"/>
<path d="M87.5824 63.5102V62.7858L90.7784 57.729H91.304V58.8511H90.9489L88.5341 62.6722V62.729H92.8381V63.5102H87.5824ZM91.0057 65.0017V63.2901V62.9527V57.729H91.8438V65.0017H91.0057ZM96.541 65.1011C96.006 65.1011 95.5502 64.9555 95.1738 64.6644C94.7974 64.3708 94.5098 63.9458 94.3109 63.3895C94.112 62.8308 94.0126 62.1561 94.0126 61.3653C94.0126 60.5794 94.112 59.9082 94.3109 59.3519C94.5121 58.7931 94.801 58.367 95.1774 58.0734C95.5562 57.7775 96.0107 57.6295 96.541 57.6295C97.0713 57.6295 97.5247 57.7775 97.9011 58.0734C98.2799 58.367 98.5687 58.7931 98.7676 59.3519C98.9688 59.9082 99.0694 60.5794 99.0694 61.3653C99.0694 62.1561 98.97 62.8308 98.7711 63.3895C98.5723 63.9458 98.2846 64.3708 97.9082 64.6644C97.5318 64.9555 97.0761 65.1011 96.541 65.1011ZM96.541 64.3199C97.0713 64.3199 97.4833 64.0642 97.7768 63.5528C98.0704 63.0415 98.2172 62.3123 98.2172 61.3653C98.2172 60.7356 98.1497 60.1994 98.0147 59.7567C97.8822 59.314 97.6904 58.9766 97.4395 58.7446C97.1909 58.5126 96.8914 58.3966 96.541 58.3966C96.0154 58.3966 95.6047 58.6558 95.3088 59.1743C95.0128 59.6904 94.8649 60.4207 94.8649 61.3653C94.8649 61.9951 94.9312 62.5301 95.0637 62.9705C95.1963 63.4108 95.3869 63.7458 95.6355 63.9754C95.8864 64.2051 96.1883 64.3199 96.541 64.3199Z" fill="#040606"/>
<path d="M125.753 65.0017V64.3625L128.153 61.7347C128.435 61.4269 128.667 61.1594 128.849 60.9321C129.032 60.7025 129.167 60.487 129.254 60.2858C129.344 60.0822 129.389 59.8691 129.389 59.6466C129.389 59.3909 129.328 59.1696 129.205 58.9825C129.084 58.7955 128.918 58.6511 128.707 58.5493C128.497 58.4475 128.26 58.3966 127.997 58.3966C127.718 58.3966 127.474 58.4546 127.266 58.5706C127.06 58.6842 126.9 58.844 126.786 59.05C126.675 59.256 126.619 59.4974 126.619 59.7744H125.781C125.781 59.3483 125.879 58.9742 126.076 58.6523C126.272 58.3303 126.54 58.0794 126.879 57.8994C127.219 57.7195 127.602 57.6295 128.026 57.6295C128.452 57.6295 128.829 57.7195 129.158 57.8994C129.487 58.0794 129.746 58.322 129.933 58.6274C130.12 58.9328 130.213 59.2725 130.213 59.6466C130.213 59.9141 130.165 60.1757 130.067 60.4314C129.973 60.6847 129.807 60.9676 129.57 61.2801C129.336 61.5903 129.01 61.969 128.594 62.4165L126.96 64.1636V64.2205H130.341V65.0017H125.753ZM134.08 65.1011C133.664 65.1011 133.288 65.0183 132.955 64.8526C132.621 64.6868 132.353 64.4596 132.152 64.1707C131.951 63.8819 131.841 63.5528 131.822 63.1835H132.674C132.707 63.5126 132.856 63.7849 133.121 64.0003C133.389 64.2134 133.709 64.3199 134.08 64.3199C134.379 64.3199 134.644 64.2501 134.876 64.1104C135.11 63.9707 135.294 63.7789 135.426 63.5351C135.561 63.2889 135.629 63.0107 135.629 62.7006C135.629 62.3833 135.559 62.1004 135.419 61.8519C135.282 61.6009 135.092 61.4032 134.851 61.2588C134.609 61.1144 134.334 61.041 134.023 61.0386C133.801 61.0363 133.572 61.0706 133.338 61.1416C133.104 61.2103 132.911 61.2991 132.759 61.408L131.935 61.3085L132.376 57.729H136.154V58.5102H133.114L132.859 60.6551H132.901C133.05 60.5367 133.237 60.4385 133.462 60.3604C133.687 60.2822 133.922 60.2432 134.165 60.2432C134.611 60.2432 135.007 60.3497 135.355 60.5628C135.705 60.7735 135.98 61.0623 136.179 61.4293C136.38 61.7962 136.481 62.2153 136.481 62.6864C136.481 63.1504 136.377 63.5647 136.168 63.9293C135.962 64.2915 135.678 64.5779 135.316 64.7886C134.954 64.997 134.542 65.1011 134.08 65.1011Z" fill="#040606"/>
<path d="M18.0682 121.63C18.3665 121.632 18.6648 121.689 18.9631 121.8C19.2614 121.911 19.5336 122.096 19.7798 122.354C20.026 122.61 20.2237 122.959 20.3729 123.402C20.522 123.844 20.5966 124.399 20.5966 125.067C20.5966 125.713 20.535 126.287 20.4119 126.789C20.2912 127.289 20.116 127.71 19.8864 128.054C19.6591 128.397 19.3821 128.657 19.0554 128.835C18.7311 129.012 18.3641 129.101 17.9545 129.101C17.5473 129.101 17.1839 129.021 16.8643 128.86C16.5471 128.696 16.2867 128.47 16.0831 128.181C15.8819 127.89 15.7528 127.553 15.696 127.169H16.5625C16.6406 127.503 16.7957 127.779 17.0277 127.997C17.2621 128.212 17.571 128.32 17.9545 128.32C18.5156 128.32 18.9583 128.075 19.2827 127.585C19.6094 127.095 19.7727 126.402 19.7727 125.507H19.7159C19.5833 125.706 19.4259 125.878 19.2436 126.022C19.0613 126.167 18.8589 126.278 18.6364 126.356C18.4138 126.434 18.1771 126.473 17.9261 126.473C17.5095 126.473 17.1271 126.37 16.7791 126.164C16.4335 125.956 16.1565 125.671 15.9482 125.309C15.7422 124.944 15.6392 124.527 15.6392 124.059C15.6392 123.613 15.7386 123.206 15.9375 122.837C16.1387 122.465 16.4205 122.169 16.7827 121.949C17.1473 121.729 17.5758 121.622 18.0682 121.63ZM18.0682 122.411C17.7699 122.411 17.5012 122.485 17.2621 122.635C17.0253 122.781 16.8371 122.98 16.6974 123.231C16.5601 123.48 16.4915 123.755 16.4915 124.059C16.4915 124.362 16.5578 124.637 16.6903 124.886C16.8253 125.132 17.0088 125.329 17.2408 125.475C17.4751 125.62 17.7415 125.692 18.0398 125.692C18.2647 125.692 18.4742 125.648 18.6683 125.561C18.8625 125.471 19.0317 125.349 19.1761 125.195C19.3229 125.039 19.4377 124.862 19.5206 124.666C19.6035 124.467 19.6449 124.26 19.6449 124.044C19.6449 123.76 19.5762 123.494 19.4389 123.245C19.304 122.997 19.117 122.796 18.8778 122.642C18.6411 122.488 18.3712 122.411 18.0682 122.411Z" fill="#040606"/>
<path d="M56.0824 129.101C55.5947 129.101 55.1638 129.015 54.7898 128.842C54.4181 128.667 54.1281 128.426 53.9197 128.121C53.7114 127.813 53.6084 127.463 53.6108 127.07C53.6084 126.762 53.6688 126.478 53.7919 126.218C53.915 125.955 54.0831 125.736 54.2962 125.561C54.5116 125.383 54.7519 125.271 55.017 125.223V125.181C54.669 125.091 54.392 124.895 54.1861 124.595C53.9801 124.292 53.8783 123.947 53.8807 123.561C53.8783 123.192 53.9718 122.862 54.1612 122.571C54.3506 122.279 54.611 122.05 54.9425 121.882C55.2763 121.714 55.6563 121.63 56.0824 121.63C56.5038 121.63 56.8802 121.714 57.2116 121.882C57.5431 122.05 57.8035 122.279 57.9929 122.571C58.1847 122.862 58.2817 123.192 58.2841 123.561C58.2817 123.947 58.1764 124.292 57.968 124.595C57.7621 124.895 57.4886 125.091 57.1477 125.181V125.223C57.4105 125.271 57.6473 125.383 57.858 125.561C58.0687 125.736 58.2367 125.955 58.3622 126.218C58.4877 126.478 58.5516 126.762 58.554 127.07C58.5516 127.463 58.4451 127.813 58.2344 128.121C58.026 128.426 57.736 128.667 57.3643 128.842C56.995 129.015 56.5677 129.101 56.0824 129.101ZM56.0824 128.32C56.4115 128.32 56.6955 128.267 56.9347 128.16C57.1738 128.054 57.3584 127.903 57.4886 127.709C57.6188 127.515 57.6851 127.288 57.6875 127.027C57.6851 126.753 57.6141 126.51 57.4744 126.299C57.3348 126.089 57.1442 125.923 56.9027 125.802C56.6636 125.681 56.3902 125.621 56.0824 125.621C55.7723 125.621 55.4953 125.681 55.2514 125.802C55.0099 125.923 54.8194 126.089 54.6797 126.299C54.5424 126.51 54.4749 126.753 54.4773 127.027C54.4749 127.288 54.5376 127.515 54.6655 127.709C54.7957 127.903 54.9815 128.054 55.223 128.16C55.4645 128.267 55.7509 128.32 56.0824 128.32ZM56.0824 124.868C56.3428 124.868 56.5736 124.816 56.7749 124.712C56.9785 124.608 57.1383 124.462 57.2543 124.275C57.3703 124.088 57.4295 123.869 57.4318 123.618C57.4295 123.372 57.3714 123.158 57.2578 122.975C57.1442 122.791 56.9867 122.649 56.7855 122.549C56.5843 122.447 56.3499 122.397 56.0824 122.397C55.8101 122.397 55.5722 122.447 55.3686 122.549C55.165 122.649 55.0076 122.791 54.8963 122.975C54.785 123.158 54.7306 123.372 54.733 123.618C54.7306 123.869 54.7862 124.088 54.8999 124.275C55.0159 124.462 55.1757 124.608 55.3793 124.712C55.5829 124.816 55.8172 124.868 56.0824 124.868Z" fill="#040606"/>
<path d="M125.753 129.002V128.363L128.153 125.735C128.435 125.427 128.667 125.159 128.849 124.932C129.032 124.702 129.167 124.487 129.254 124.286C129.344 124.082 129.389 123.869 129.389 123.647C129.389 123.391 129.328 123.17 129.205 122.983C129.084 122.796 128.918 122.651 128.707 122.549C128.497 122.447 128.26 122.397 127.997 122.397C127.718 122.397 127.474 122.455 127.266 122.571C127.06 122.684 126.9 122.844 126.786 123.05C126.675 123.256 126.619 123.497 126.619 123.774H125.781C125.781 123.348 125.879 122.974 126.076 122.652C126.272 122.33 126.54 122.079 126.879 121.899C127.219 121.72 127.602 121.63 128.026 121.63C128.452 121.63 128.829 121.72 129.158 121.899C129.487 122.079 129.746 122.322 129.933 122.627C130.12 122.933 130.213 123.273 130.213 123.647C130.213 123.914 130.165 124.176 130.067 124.431C129.973 124.685 129.807 124.968 129.57 125.28C129.336 125.59 129.01 125.969 128.594 126.416L126.96 128.164V128.22H130.341V129.002H125.753ZM132.035 129.002L135.288 122.567V122.51H131.538V121.729H136.197V122.553L132.958 129.002H132.035Z" fill="#040606"/>
<path d="M15.1676 49.1011C14.8693 49.0964 14.571 49.0396 14.2727 48.9307C13.9744 48.8218 13.7022 48.6383 13.456 48.3803C13.2098 48.1198 13.0121 47.7683 12.8629 47.3256C12.7138 46.8805 12.6392 46.3218 12.6392 45.6494C12.6392 45.0055 12.6996 44.4349 12.8203 43.9378C12.9411 43.4383 13.1162 43.018 13.3459 42.6771C13.5755 42.3339 13.8525 42.0734 14.1768 41.8959C14.5036 41.7183 14.8717 41.6295 15.2812 41.6295C15.6884 41.6295 16.0507 41.7112 16.3679 41.8746C16.6875 42.0356 16.9479 42.2605 17.1491 42.5493C17.3504 42.8381 17.4806 43.1707 17.5398 43.5472H16.6733C16.5928 43.2205 16.4366 42.9494 16.2045 42.734C15.9725 42.5185 15.6648 42.4108 15.2812 42.4108C14.7178 42.4108 14.2739 42.6558 13.9496 43.1459C13.6276 43.6359 13.4654 44.3237 13.4631 45.2091H13.5199C13.6525 45.0079 13.8099 44.8362 13.9922 44.6942C14.1768 44.5498 14.3804 44.4385 14.603 44.3604C14.8255 44.2822 15.0611 44.2432 15.3097 44.2432C15.7263 44.2432 16.1075 44.3474 16.4531 44.5557C16.7988 44.7617 17.0758 45.0469 17.2841 45.4115C17.4924 45.7737 17.5966 46.1892 17.5966 46.658C17.5966 47.1078 17.496 47.5197 17.2947 47.8938C17.0935 48.2654 16.8106 48.5614 16.446 48.7815C16.0838 48.9993 15.6577 49.1059 15.1676 49.1011ZM15.1676 48.3199C15.4659 48.3199 15.7334 48.2453 15.9702 48.0962C16.2093 47.947 16.3975 47.747 16.5348 47.496C16.6745 47.2451 16.7443 46.9657 16.7443 46.658C16.7443 46.3573 16.6768 46.0839 16.5419 45.8376C16.4093 45.5891 16.2259 45.3914 15.9915 45.2446C15.7595 45.0978 15.4943 45.0244 15.196 45.0244C14.9711 45.0244 14.7616 45.0694 14.5675 45.1594C14.3733 45.247 14.2029 45.3677 14.0561 45.5216C13.9117 45.6755 13.7981 45.8519 13.7152 46.0507C13.6323 46.2472 13.5909 46.4544 13.5909 46.6722C13.5909 46.961 13.6584 47.2309 13.7933 47.4818C13.9306 47.7328 14.1177 47.9352 14.3544 48.0891C14.5935 48.2429 14.8646 48.3199 15.1676 48.3199ZM19.2763 49.0585C19.1011 49.0585 18.9508 48.9958 18.8253 48.8703C18.6998 48.7448 18.6371 48.5945 18.6371 48.4193C18.6371 48.2441 18.6998 48.0938 18.8253 47.9683C18.9508 47.8429 19.1011 47.7801 19.2763 47.7801C19.4515 47.7801 19.6018 47.8429 19.7273 47.9683C19.8527 48.0938 19.9155 48.2441 19.9155 48.4193C19.9155 48.5353 19.8859 48.6419 19.8267 48.7389C19.7699 48.836 19.6929 48.9141 19.5959 48.9733C19.5012 49.0301 19.3946 49.0585 19.2763 49.0585ZM23.5314 49.1011C23.1148 49.1011 22.7395 49.0183 22.4057 48.8526C22.0719 48.6868 21.8044 48.4596 21.6032 48.1707C21.4019 47.8819 21.2918 47.5528 21.2729 47.1835H22.1252C22.1583 47.5126 22.3075 47.7849 22.5726 48.0003C22.8401 48.2134 23.1597 48.3199 23.5314 48.3199C23.8297 48.3199 24.0949 48.2501 24.3269 48.1104C24.5613 47.9707 24.7447 47.7789 24.8773 47.5351C25.0123 47.2889 25.0797 47.0107 25.0797 46.7006C25.0797 46.3833 25.0099 46.1004 24.8702 45.8519C24.7329 45.6009 24.5435 45.4032 24.302 45.2588C24.0605 45.1144 23.7847 45.041 23.4746 45.0386C23.2521 45.0363 23.0236 45.0706 22.7892 45.1416C22.5549 45.2103 22.3619 45.2991 22.2104 45.408L21.3865 45.3085L21.8269 41.729H25.6053V42.5102H22.5655L22.3098 44.6551H22.3525C22.5016 44.5367 22.6886 44.4385 22.9135 44.3604C23.1384 44.2822 23.3728 44.2432 23.6167 44.2432C24.0617 44.2432 24.4583 44.3497 24.8063 44.5628C25.1567 44.7735 25.4313 45.0623 25.6301 45.4293C25.8314 45.7962 25.932 46.2153 25.932 46.6864C25.932 47.1504 25.8278 47.5647 25.6195 47.9293C25.4135 48.2915 25.1294 48.5779 24.7672 48.7886C24.405 48.997 23.9931 49.1011 23.5314 49.1011Z" fill="#040606"/>
<path d="M56.1676 49.1011C55.8693 49.0964 55.571 49.0396 55.2727 48.9307C54.9744 48.8218 54.7022 48.6383 54.456 48.3803C54.2098 48.1198 54.0121 47.7683 53.8629 47.3256C53.7138 46.8805 53.6392 46.3218 53.6392 45.6494C53.6392 45.0055 53.6996 44.4349 53.8203 43.9378C53.9411 43.4383 54.1162 43.018 54.3459 42.6771C54.5755 42.3339 54.8525 42.0734 55.1768 41.8959C55.5036 41.7183 55.8717 41.6295 56.2812 41.6295C56.6884 41.6295 57.0507 41.7112 57.3679 41.8746C57.6875 42.0356 57.9479 42.2605 58.1491 42.5493C58.3504 42.8381 58.4806 43.1707 58.5398 43.5472H57.6733C57.5928 43.2205 57.4366 42.9494 57.2045 42.734C56.9725 42.5185 56.6648 42.4108 56.2812 42.4108C55.7178 42.4108 55.2739 42.6558 54.9496 43.1459C54.6276 43.6359 54.4654 44.3237 54.4631 45.2091H54.5199C54.6525 45.0079 54.8099 44.8362 54.9922 44.6942C55.1768 44.5498 55.3804 44.4385 55.603 44.3604C55.8255 44.2822 56.0611 44.2432 56.3097 44.2432C56.7263 44.2432 57.1075 44.3474 57.4531 44.5557C57.7988 44.7617 58.0758 45.0469 58.2841 45.4115C58.4924 45.7737 58.5966 46.1892 58.5966 46.658C58.5966 47.1078 58.496 47.5197 58.2947 47.8938C58.0935 48.2654 57.8106 48.5614 57.446 48.7815C57.0838 48.9993 56.6577 49.1059 56.1676 49.1011ZM56.1676 48.3199C56.4659 48.3199 56.7334 48.2453 56.9702 48.0962C57.2093 47.947 57.3975 47.747 57.5348 47.496C57.6745 47.2451 57.7443 46.9657 57.7443 46.658C57.7443 46.3573 57.6768 46.0839 57.5419 45.8376C57.4093 45.5891 57.2259 45.3914 56.9915 45.2446C56.7595 45.0978 56.4943 45.0244 56.196 45.0244C55.9711 45.0244 55.7616 45.0694 55.5675 45.1594C55.3733 45.247 55.2029 45.3677 55.0561 45.5216C54.9117 45.6755 54.7981 45.8519 54.7152 46.0507C54.6323 46.2472 54.5909 46.4544 54.5909 46.6722C54.5909 46.961 54.6584 47.2309 54.7933 47.4818C54.9306 47.7328 55.1177 47.9352 55.3544 48.0891C55.5935 48.2429 55.8646 48.3199 56.1676 48.3199Z" fill="#040606"/>
<path d="M90.2102 49.1011C89.7415 49.1011 89.3236 49.0206 88.9567 48.8597C88.5921 48.6987 88.3021 48.475 88.0866 48.1885C87.8736 47.8997 87.7576 47.5647 87.7386 47.1835H88.6335C88.6525 47.4179 88.733 47.6203 88.875 47.7908C89.017 47.9589 89.2029 48.0891 89.4325 48.1814C89.6622 48.2737 89.9167 48.3199 90.196 48.3199C90.5085 48.3199 90.7855 48.2654 91.027 48.1565C91.2685 48.0476 91.4579 47.8961 91.5952 47.702C91.7325 47.5079 91.8011 47.283 91.8011 47.0273C91.8011 46.7598 91.7348 46.5242 91.6023 46.3206C91.4697 46.1146 91.2756 45.9537 91.0199 45.8376C90.7642 45.7216 90.4517 45.6636 90.0824 45.6636H89.5V44.8824H90.0824C90.3712 44.8824 90.6245 44.8303 90.8423 44.7261C91.0625 44.622 91.2341 44.4752 91.3572 44.2858C91.4827 44.0964 91.5455 43.8739 91.5455 43.6182C91.5455 43.372 91.491 43.1577 91.3821 42.9754C91.2732 42.7931 91.1193 42.6511 90.9205 42.5493C90.724 42.4475 90.492 42.3966 90.2244 42.3966C89.9735 42.3966 89.7367 42.4428 89.5142 42.5351C89.294 42.6251 89.1141 42.7564 88.9744 42.9293C88.8348 43.0997 88.759 43.3057 88.7472 43.5472H87.8949C87.9091 43.166 88.0239 42.8322 88.2393 42.5457C88.4548 42.2569 88.7365 42.032 89.0845 41.871C89.4349 41.71 89.8196 41.6295 90.2386 41.6295C90.6884 41.6295 91.0743 41.7207 91.3963 41.903C91.7183 42.0829 91.9657 42.3208 92.1385 42.6168C92.3113 42.9127 92.3977 43.2323 92.3977 43.5756C92.3977 43.9851 92.29 44.3343 92.0746 44.6232C91.8615 44.912 91.5715 45.112 91.2045 45.2233V45.2801C91.6638 45.3559 92.0225 45.5512 92.2805 45.8661C92.5386 46.1786 92.6676 46.5656 92.6676 47.0273C92.6676 47.4226 92.5599 47.7778 92.3445 48.0926C92.1314 48.4051 91.8402 48.6513 91.4709 48.8313C91.1016 49.0112 90.6813 49.1011 90.2102 49.1011ZM96.4354 41.6295C96.7337 41.6319 97.032 41.6887 97.3303 41.8C97.6286 41.9113 97.9008 42.0959 98.147 42.354C98.3932 42.6097 98.5909 42.9589 98.7401 43.4016C98.8892 43.8443 98.9638 44.3994 98.9638 45.067C98.9638 45.7134 98.9022 46.2875 98.7791 46.7894C98.6584 47.2889 98.4832 47.7103 98.2536 48.0536C98.0263 48.3968 97.7493 48.6572 97.4226 48.8348C97.0982 49.0124 96.7313 49.1011 96.3217 49.1011C95.9145 49.1011 95.5511 49.0206 95.2315 48.8597C94.9143 48.6963 94.6539 48.4702 94.4503 48.1814C94.2491 47.8902 94.12 47.5528 94.0632 47.1693H94.9297C95.0078 47.5031 95.1629 47.7789 95.3949 47.9967C95.6293 48.2122 95.9382 48.3199 96.3217 48.3199C96.8828 48.3199 97.3255 48.0749 97.6499 47.5848C97.9766 47.0947 98.1399 46.4023 98.1399 45.5074H98.0831C97.9505 45.7063 97.7931 45.8779 97.6108 46.0223C97.4285 46.1667 97.2261 46.278 97.0036 46.3561C96.781 46.4342 96.5443 46.4733 96.2933 46.4733C95.8767 46.4733 95.4943 46.3703 95.1463 46.1644C94.8007 45.956 94.5237 45.6707 94.3153 45.3085C94.1094 44.9439 94.0064 44.5273 94.0064 44.0585C94.0064 43.6135 94.1058 43.2063 94.3047 42.8369C94.5059 42.4653 94.7876 42.1693 95.1499 41.9492C95.5144 41.729 95.9429 41.6224 96.4354 41.6295ZM96.4354 42.4108C96.1371 42.4108 95.8684 42.4854 95.6293 42.6345C95.3925 42.7813 95.2043 42.9802 95.0646 43.2311C94.9273 43.4797 94.8587 43.7555 94.8587 44.0585C94.8587 44.3616 94.925 44.6374 95.0575 44.8859C95.1925 45.1322 95.3759 45.3287 95.608 45.4754C95.8423 45.6198 96.1087 45.692 96.407 45.692C96.6319 45.692 96.8414 45.6483 97.0355 45.5607C97.2296 45.4707 97.3989 45.3488 97.5433 45.1949C97.6901 45.0386 97.8049 44.8623 97.8878 44.6658C97.9706 44.4669 98.0121 44.2598 98.0121 44.0443C98.0121 43.7602 97.9434 43.4939 97.8061 43.2453C97.6712 42.9967 97.4841 42.7955 97.245 42.6416C97.0083 42.4877 96.7384 42.4108 96.4354 42.4108Z" fill="#040606"/>
<path d="M121.753 49.0017V48.3625L124.153 45.7347C124.435 45.4269 124.667 45.1594 124.849 44.9321C125.032 44.7025 125.167 44.487 125.254 44.2858C125.344 44.0822 125.389 43.8691 125.389 43.6466C125.389 43.3909 125.328 43.1696 125.205 42.9825C125.084 42.7955 124.918 42.6511 124.707 42.5493C124.497 42.4475 124.26 42.3966 123.997 42.3966C123.718 42.3966 123.474 42.4546 123.266 42.5706C123.06 42.6842 122.9 42.844 122.786 43.05C122.675 43.256 122.619 43.4974 122.619 43.7744H121.781C121.781 43.3483 121.879 42.9742 122.076 42.6523C122.272 42.3303 122.54 42.0794 122.879 41.8994C123.219 41.7195 123.602 41.6295 124.026 41.6295C124.452 41.6295 124.829 41.7195 125.158 41.8994C125.487 42.0794 125.746 42.322 125.933 42.6274C126.12 42.9328 126.213 43.2725 126.213 43.6466C126.213 43.9141 126.165 44.1757 126.067 44.4314C125.973 44.6847 125.807 44.9676 125.57 45.2801C125.336 45.5903 125.01 45.969 124.594 46.4165L122.96 48.1636V48.2205H126.341V49.0017H121.753ZM127.481 47.5102V46.7858L130.677 41.729H131.202V42.8511H130.847L128.433 46.6722V46.729H132.737V47.5102H127.481ZM130.904 49.0017V47.2901V46.9527V41.729H131.742V49.0017H130.904ZM134.35 49.0585C134.175 49.0585 134.025 48.9958 133.9 48.8703C133.774 48.7448 133.711 48.5945 133.711 48.4193C133.711 48.2441 133.774 48.0938 133.9 47.9683C134.025 47.8429 134.175 47.7801 134.35 47.7801C134.526 47.7801 134.676 47.8429 134.801 47.9683C134.927 48.0938 134.99 48.2441 134.99 48.4193C134.99 48.5353 134.96 48.6419 134.901 48.7389C134.844 48.836 134.767 48.9141 134.67 48.9733C134.575 49.0301 134.469 49.0585 134.35 49.0585ZM138.606 49.1011C138.189 49.1011 137.814 49.0183 137.48 48.8526C137.146 48.6868 136.879 48.4596 136.677 48.1707C136.476 47.8819 136.366 47.5528 136.347 47.1835H137.199C137.233 47.5126 137.382 47.7849 137.647 48.0003C137.914 48.2134 138.234 48.3199 138.606 48.3199C138.904 48.3199 139.169 48.2501 139.401 48.1104C139.635 47.9707 139.819 47.7789 139.952 47.5351C140.086 47.2889 140.154 47.0107 140.154 46.7006C140.154 46.3833 140.084 46.1004 139.944 45.8519C139.807 45.6009 139.618 45.4032 139.376 45.2588C139.135 45.1144 138.859 45.041 138.549 45.0386C138.326 45.0363 138.098 45.0706 137.863 45.1416C137.629 45.2103 137.436 45.2991 137.285 45.408L136.461 45.3085L136.901 41.729H140.68V42.5102H137.64L137.384 44.6551H137.427C137.576 44.5367 137.763 44.4385 137.988 44.3604C138.213 44.2822 138.447 44.2432 138.691 44.2432C139.136 44.2432 139.532 44.3497 139.881 44.5628C140.231 44.7735 140.506 45.0623 140.704 45.4293C140.906 45.7962 141.006 46.2153 141.006 46.6864C141.006 47.1504 140.902 47.5647 140.694 47.9293C140.488 48.2915 140.204 48.5779 139.841 48.7886C139.479 48.997 139.067 49.1011 138.606 49.1011Z" fill="#040606"/>
<path d="M15.0824 113.101C14.5947 113.101 14.1638 113.015 13.7898 112.842C13.4181 112.667 13.1281 112.426 12.9197 112.121C12.7114 111.813 12.6084 111.463 12.6108 111.07C12.6084 110.762 12.6688 110.478 12.7919 110.218C12.915 109.955 13.0831 109.736 13.2962 109.561C13.5116 109.383 13.7519 109.271 14.017 109.223V109.181C13.669 109.091 13.392 108.895 13.1861 108.595C12.9801 108.292 12.8783 107.947 12.8807 107.561C12.8783 107.192 12.9718 106.862 13.1612 106.571C13.3506 106.279 13.611 106.05 13.9425 105.882C14.2763 105.714 14.6563 105.63 15.0824 105.63C15.5038 105.63 15.8802 105.714 16.2116 105.882C16.5431 106.05 16.8035 106.279 16.9929 106.571C17.1847 106.862 17.2817 107.192 17.2841 107.561C17.2817 107.947 17.1764 108.292 16.968 108.595C16.7621 108.895 16.4886 109.091 16.1477 109.181V109.223C16.4105 109.271 16.6473 109.383 16.858 109.561C17.0687 109.736 17.2367 109.955 17.3622 110.218C17.4877 110.478 17.5516 110.762 17.554 111.07C17.5516 111.463 17.4451 111.813 17.2344 112.121C17.026 112.426 16.736 112.667 16.3643 112.842C15.995 113.015 15.5677 113.101 15.0824 113.101ZM15.0824 112.32C15.4115 112.32 15.6955 112.267 15.9347 112.16C16.1738 112.054 16.3584 111.903 16.4886 111.709C16.6188 111.515 16.6851 111.288 16.6875 111.027C16.6851 110.753 16.6141 110.51 16.4744 110.299C16.3348 110.089 16.1442 109.923 15.9027 109.802C15.6636 109.681 15.3902 109.621 15.0824 109.621C14.7723 109.621 14.4953 109.681 14.2514 109.802C14.0099 109.923 13.8194 110.089 13.6797 110.299C13.5424 110.51 13.4749 110.753 13.4773 111.027C13.4749 111.288 13.5376 111.515 13.6655 111.709C13.7957 111.903 13.9815 112.054 14.223 112.16C14.4645 112.267 14.7509 112.32 15.0824 112.32ZM15.0824 108.868C15.3428 108.868 15.5736 108.816 15.7749 108.712C15.9785 108.608 16.1383 108.462 16.2543 108.275C16.3703 108.088 16.4295 107.869 16.4318 107.618C16.4295 107.372 16.3714 107.158 16.2578 106.975C16.1442 106.791 15.9867 106.649 15.7855 106.549C15.5843 106.447 15.3499 106.397 15.0824 106.397C14.8101 106.397 14.5722 106.447 14.3686 106.549C14.165 106.649 14.0076 106.791 13.8963 106.975C13.785 107.158 13.7306 107.372 13.733 107.618C13.7306 107.869 13.7862 108.088 13.8999 108.275C14.0159 108.462 14.1757 108.608 14.3793 108.712C14.5829 108.816 14.8172 108.868 15.0824 108.868ZM19.3153 113.059C19.1402 113.059 18.9898 112.996 18.8643 112.87C18.7389 112.745 18.6761 112.595 18.6761 112.419C18.6761 112.244 18.7389 112.094 18.8643 111.968C18.9898 111.843 19.1402 111.78 19.3153 111.78C19.4905 111.78 19.6409 111.843 19.7663 111.968C19.8918 112.094 19.9545 112.244 19.9545 112.419C19.9545 112.535 19.925 112.642 19.8658 112.739C19.8089 112.836 19.732 112.914 19.6349 112.973C19.5402 113.03 19.4337 113.059 19.3153 113.059ZM23.5705 113.101C23.1538 113.101 22.7786 113.018 22.4448 112.853C22.111 112.687 21.8435 112.46 21.6422 112.171C21.441 111.882 21.3309 111.553 21.312 111.184H22.1642C22.1974 111.513 22.3465 111.785 22.6117 112C22.8792 112.213 23.1988 112.32 23.5705 112.32C23.8688 112.32 24.1339 112.25 24.3659 112.11C24.6003 111.971 24.7838 111.779 24.9164 111.535C25.0513 111.289 25.1188 111.011 25.1188 110.701C25.1188 110.383 25.0489 110.1 24.9093 109.852C24.772 109.601 24.5826 109.403 24.3411 109.259C24.0996 109.114 23.8238 109.041 23.5137 109.039C23.2911 109.036 23.0627 109.071 22.8283 109.142C22.5939 109.21 22.401 109.299 22.2495 109.408L21.4256 109.309L21.8659 105.729H25.6444V106.51H22.6046L22.3489 108.655H22.3915C22.5407 108.537 22.7277 108.438 22.9526 108.36C23.1775 108.282 23.4119 108.243 23.6557 108.243C24.1008 108.243 24.4973 108.35 24.8453 108.563C25.1957 108.773 25.4703 109.062 25.6692 109.429C25.8704 109.796 25.9711 110.215 25.9711 110.686C25.9711 111.15 25.8669 111.565 25.6586 111.929C25.4526 112.291 25.1685 112.578 24.8063 112.789C24.4441 112.997 24.0321 113.101 23.5705 113.101Z" fill="#040606"/>
<path d="M49.9801 113.002L53.233 106.567V106.51H49.483V105.729H54.142V106.553L50.9034 113.002H49.9801ZM54.8407 113.059C54.6655 113.059 54.5152 112.996 54.3897 112.87C54.2643 112.745 54.2015 112.595 54.2015 112.419C54.2015 112.244 54.2643 112.094 54.3897 111.968C54.5152 111.843 54.6655 111.78 54.8407 111.78C55.0159 111.78 55.1663 111.843 55.2917 111.968C55.4172 112.094 55.4799 112.244 55.4799 112.419C55.4799 112.535 55.4503 112.642 55.3912 112.739C55.3343 112.836 55.2574 112.914 55.1603 112.973C55.0656 113.03 54.9591 113.059 54.8407 113.059ZM59.0959 113.101C58.6792 113.101 58.304 113.018 57.9702 112.853C57.6364 112.687 57.3688 112.46 57.1676 112.171C56.9664 111.882 56.8563 111.553 56.8374 111.184H57.6896C57.7228 111.513 57.8719 111.785 58.1371 112C58.4046 112.213 58.7242 112.32 59.0959 112.32C59.3942 112.32 59.6593 112.25 59.8913 112.11C60.1257 111.971 60.3092 111.779 60.4418 111.535C60.5767 111.289 60.6442 111.011 60.6442 110.701C60.6442 110.383 60.5743 110.1 60.4347 109.852C60.2973 109.601 60.108 109.403 59.8665 109.259C59.625 109.114 59.3492 109.041 59.0391 109.039C58.8165 109.036 58.5881 109.071 58.3537 109.142C58.1193 109.21 57.9264 109.299 57.7749 109.408L56.951 109.309L57.3913 105.729H61.1697V106.51H58.13L57.8743 108.655H57.9169C58.0661 108.537 58.2531 108.438 58.478 108.36C58.7029 108.282 58.9373 108.243 59.1811 108.243C59.6262 108.243 60.0227 108.35 60.3707 108.563C60.7211 108.773 60.9957 109.062 61.1946 109.429C61.3958 109.796 61.4964 110.215 61.4964 110.686C61.4964 111.15 61.3923 111.565 61.1839 111.929C60.978 112.291 60.6939 112.578 60.3317 112.789C59.9695 112.997 59.5575 113.101 59.0959 113.101Z" fill="#040606"/>
<path d="M87.5824 111.51V110.786L90.7784 105.729H91.304V106.851H90.9489L88.5341 110.672V110.729H92.8381V111.51H87.5824ZM91.0057 113.002V111.29V110.953V105.729H91.8438V113.002H91.0057ZM94.1689 113.002V112.363L96.5694 109.735C96.8511 109.427 97.0832 109.159 97.2654 108.932C97.4477 108.702 97.5827 108.487 97.6703 108.286C97.7602 108.082 97.8052 107.869 97.8052 107.647C97.8052 107.391 97.7437 107.17 97.6206 106.983C97.4998 106.796 97.3341 106.651 97.1234 106.549C96.9127 106.447 96.676 106.397 96.4132 106.397C96.1338 106.397 95.89 106.455 95.6816 106.571C95.4757 106.684 95.3159 106.844 95.2022 107.05C95.091 107.256 95.0353 107.497 95.0353 107.774H94.1973C94.1973 107.348 94.2955 106.974 94.492 106.652C94.6885 106.33 94.956 106.079 95.2946 105.899C95.6355 105.72 96.0178 105.63 96.4416 105.63C96.8677 105.63 97.2453 105.72 97.5744 105.899C97.9035 106.079 98.1615 106.322 98.3485 106.627C98.5356 106.933 98.6291 107.273 98.6291 107.647C98.6291 107.914 98.5806 108.176 98.4835 108.431C98.3888 108.685 98.2231 108.968 97.9863 109.28C97.752 109.59 97.4264 109.969 97.0098 110.416L95.3762 112.164V112.22H98.7569V113.002H94.1689Z" fill="#040606"/>
<path d="M83.5824 127.51V126.786L86.7784 121.729H87.304V122.851H86.9489L84.5341 126.672V126.729H88.8381V127.51H83.5824ZM87.0057 129.002V127.29V126.953V121.729H87.8438V129.002H87.0057ZM90.1689 129.002V128.363L92.5694 125.735C92.8511 125.427 93.0832 125.159 93.2654 124.932C93.4477 124.702 93.5827 124.487 93.6703 124.286C93.7602 124.082 93.8052 123.869 93.8052 123.647C93.8052 123.391 93.7437 123.17 93.6206 122.983C93.4998 122.796 93.3341 122.651 93.1234 122.549C92.9127 122.447 92.676 122.397 92.4132 122.397C92.1338 122.397 91.89 122.455 91.6816 122.571C91.4757 122.684 91.3159 122.844 91.2022 123.05C91.091 123.256 91.0353 123.497 91.0353 123.774H90.1973C90.1973 123.348 90.2955 122.974 90.492 122.652C90.6885 122.33 90.956 122.079 91.2946 121.899C91.6355 121.72 92.0178 121.63 92.4416 121.63C92.8677 121.63 93.2453 121.72 93.5744 121.899C93.9035 122.079 94.1615 122.322 94.3485 122.627C94.5356 122.933 94.6291 123.273 94.6291 123.647C94.6291 123.914 94.5806 124.176 94.4835 124.431C94.3888 124.685 94.2231 124.968 93.9863 125.28C93.752 125.59 93.4264 125.969 93.0098 126.416L91.3762 128.164V128.22H94.7569V129.002H90.1689ZM96.8485 129.059C96.6734 129.059 96.523 128.996 96.3975 128.87C96.2721 128.745 96.2093 128.595 96.2093 128.419C96.2093 128.244 96.2721 128.094 96.3975 127.968C96.523 127.843 96.6734 127.78 96.8485 127.78C97.0237 127.78 97.1741 127.843 97.2995 127.968C97.425 128.094 97.4877 128.244 97.4877 128.419C97.4877 128.535 97.4582 128.642 97.399 128.739C97.3422 128.836 97.2652 128.914 97.1681 128.973C97.0734 129.03 96.9669 129.059 96.8485 129.059ZM101.104 129.101C100.687 129.101 100.312 129.018 99.978 128.853C99.6442 128.687 99.3767 128.46 99.1754 128.171C98.9742 127.882 98.8641 127.553 98.8452 127.184H99.6974C99.7306 127.513 99.8797 127.785 100.145 128C100.412 128.213 100.732 128.32 101.104 128.32C101.402 128.32 101.667 128.25 101.899 128.11C102.134 127.971 102.317 127.779 102.45 127.535C102.585 127.289 102.652 127.011 102.652 126.701C102.652 126.383 102.582 126.1 102.442 125.852C102.305 125.601 102.116 125.403 101.874 125.259C101.633 125.114 101.357 125.041 101.047 125.039C100.824 125.036 100.596 125.071 100.362 125.142C100.127 125.21 99.9342 125.299 99.7827 125.408L98.9588 125.309L99.3991 121.729H103.178V122.51H100.138L99.8821 124.655H99.9247C100.074 124.537 100.261 124.438 100.486 124.36C100.711 124.282 100.945 124.243 101.189 124.243C101.634 124.243 102.031 124.35 102.379 124.563C102.729 124.773 103.004 125.062 103.202 125.429C103.404 125.796 103.504 126.215 103.504 126.686C103.504 127.15 103.4 127.565 103.192 127.929C102.986 128.291 102.702 128.578 102.339 128.789C101.977 128.997 101.565 129.101 101.104 129.101Z" fill="#040606"/>
<rect x="112" y="102" width="37" height="16" fill="#F26B30"/>
<path d="M121.753 113.002V112.363L124.153 109.735C124.435 109.427 124.667 109.159 124.849 108.932C125.032 108.702 125.167 108.487 125.254 108.286C125.344 108.082 125.389 107.869 125.389 107.647C125.389 107.391 125.328 107.17 125.205 106.983C125.084 106.796 124.918 106.651 124.707 106.549C124.497 106.447 124.26 106.397 123.997 106.397C123.718 106.397 123.474 106.455 123.266 106.571C123.06 106.684 122.9 106.844 122.786 107.05C122.675 107.256 122.619 107.497 122.619 107.774H121.781C121.781 107.348 121.879 106.974 122.076 106.652C122.272 106.33 122.54 106.079 122.879 105.899C123.219 105.72 123.602 105.63 124.026 105.63C124.452 105.63 124.829 105.72 125.158 105.899C125.487 106.079 125.746 106.322 125.933 106.627C126.12 106.933 126.213 107.273 126.213 107.647C126.213 107.914 126.165 108.176 126.067 108.431C125.973 108.685 125.807 108.968 125.57 109.28C125.336 109.59 125.01 109.969 124.594 110.416L122.96 112.164V112.22H126.341V113.002H121.753ZM130.222 113.101C129.924 113.096 129.626 113.04 129.327 112.931C129.029 112.822 128.757 112.638 128.511 112.38C128.264 112.12 128.067 111.768 127.918 111.326C127.768 110.88 127.694 110.322 127.694 109.649C127.694 109.005 127.754 108.435 127.875 107.938C127.996 107.438 128.171 107.018 128.401 106.677C128.63 106.334 128.907 106.073 129.232 105.896C129.558 105.718 129.926 105.63 130.336 105.63C130.743 105.63 131.105 105.711 131.423 105.875C131.742 106.036 132.003 106.26 132.204 106.549C132.405 106.838 132.535 107.171 132.594 107.547H131.728C131.647 107.22 131.491 106.949 131.259 106.734C131.027 106.519 130.719 106.411 130.336 106.411C129.772 106.411 129.329 106.656 129.004 107.146C128.682 107.636 128.52 108.324 128.518 109.209H128.575C128.707 109.008 128.865 108.836 129.047 108.694C129.232 108.55 129.435 108.438 129.658 108.36C129.88 108.282 130.116 108.243 130.364 108.243C130.781 108.243 131.162 108.347 131.508 108.556C131.853 108.762 132.13 109.047 132.339 109.412C132.547 109.774 132.651 110.189 132.651 110.658C132.651 111.108 132.551 111.52 132.349 111.894C132.148 112.265 131.865 112.561 131.501 112.782C131.138 112.999 130.712 113.106 130.222 113.101ZM130.222 112.32C130.521 112.32 130.788 112.245 131.025 112.096C131.264 111.947 131.452 111.747 131.589 111.496C131.729 111.245 131.799 110.966 131.799 110.658C131.799 110.357 131.732 110.084 131.597 109.838C131.464 109.589 131.281 109.391 131.046 109.245C130.814 109.098 130.549 109.024 130.251 109.024C130.026 109.024 129.816 109.069 129.622 109.159C129.428 109.247 129.258 109.368 129.111 109.522C128.966 109.675 128.853 109.852 128.77 110.051C128.687 110.247 128.646 110.454 128.646 110.672C128.646 110.961 128.713 111.231 128.848 111.482C128.985 111.733 129.172 111.935 129.409 112.089C129.648 112.243 129.919 112.32 130.222 112.32ZM134.331 113.059C134.156 113.059 134.005 112.996 133.88 112.87C133.754 112.745 133.692 112.595 133.692 112.419C133.692 112.244 133.754 112.094 133.88 111.968C134.005 111.843 134.156 111.78 134.331 111.78C134.506 111.78 134.656 111.843 134.782 111.968C134.907 112.094 134.97 112.244 134.97 112.419C134.97 112.535 134.941 112.642 134.881 112.739C134.825 112.836 134.748 112.914 134.651 112.973C134.556 113.03 134.449 113.059 134.331 113.059ZM138.586 113.101C138.169 113.101 137.794 113.018 137.46 112.853C137.127 112.687 136.859 112.46 136.658 112.171C136.457 111.882 136.347 111.553 136.328 111.184H137.18C137.213 111.513 137.362 111.785 137.627 112C137.895 112.213 138.214 112.32 138.586 112.32C138.884 112.32 139.15 112.25 139.382 112.11C139.616 111.971 139.799 111.779 139.932 111.535C140.067 111.289 140.134 111.011 140.134 110.701C140.134 110.383 140.065 110.1 139.925 109.852C139.788 109.601 139.598 109.403 139.357 109.259C139.115 109.114 138.839 109.041 138.529 109.039C138.307 109.036 138.078 109.071 137.844 109.142C137.61 109.21 137.417 109.299 137.265 109.408L136.441 109.309L136.882 105.729H140.66V106.51H137.62L137.365 108.655H137.407C137.556 108.537 137.743 108.438 137.968 108.36C138.193 108.282 138.427 108.243 138.671 108.243C139.116 108.243 139.513 108.35 139.861 108.563C140.211 108.773 140.486 109.062 140.685 109.429C140.886 109.796 140.987 110.215 140.987 110.686C140.987 111.15 140.883 111.565 140.674 111.929C140.468 112.291 140.184 112.578 139.822 112.789C139.46 112.997 139.048 113.101 138.586 113.101Z" fill="white"/>
<path d="M12.9801 81.0017L16.233 74.567V74.5102H12.483V73.729H17.142V74.5528L13.9034 81.0017H12.9801ZM17.8407 81.0585C17.6655 81.0585 17.5152 80.9958 17.3897 80.8703C17.2643 80.7448 17.2015 80.5945 17.2015 80.4193C17.2015 80.2441 17.2643 80.0938 17.3897 79.9683C17.5152 79.8429 17.6655 79.7801 17.8407 79.7801C18.0159 79.7801 18.1663 79.8429 18.2917 79.9683C18.4172 80.0938 18.4799 80.2441 18.4799 80.4193C18.4799 80.5353 18.4503 80.6419 18.3912 80.7389C18.3343 80.836 18.2574 80.9141 18.1603 80.9733C18.0656 81.0301 17.9591 81.0585 17.8407 81.0585ZM22.0959 81.1011C21.6792 81.1011 21.304 81.0183 20.9702 80.8526C20.6364 80.6868 20.3688 80.4596 20.1676 80.1707C19.9664 79.8819 19.8563 79.5528 19.8374 79.1835H20.6896C20.7228 79.5126 20.8719 79.7849 21.1371 80.0003C21.4046 80.2134 21.7242 80.3199 22.0959 80.3199C22.3942 80.3199 22.6593 80.2501 22.8913 80.1104C23.1257 79.9707 23.3092 79.7789 23.4418 79.5351C23.5767 79.2889 23.6442 79.0107 23.6442 78.7006C23.6442 78.3833 23.5743 78.1004 23.4347 77.8519C23.2973 77.6009 23.108 77.4032 22.8665 77.2588C22.625 77.1144 22.3492 77.041 22.0391 77.0386C21.8165 77.0363 21.5881 77.0706 21.3537 77.1416C21.1193 77.2103 20.9264 77.2991 20.7749 77.408L19.951 77.3085L20.3913 73.729H24.1697V74.5102H21.13L20.8743 76.6551H20.9169C21.0661 76.5367 21.2531 76.4385 21.478 76.3604C21.7029 76.2822 21.9373 76.2432 22.1811 76.2432C22.6262 76.2432 23.0227 76.3497 23.3707 76.5628C23.7211 76.7735 23.9957 77.0623 24.1946 77.4293C24.3958 77.7962 24.4964 78.2153 24.4964 78.6864C24.4964 79.1504 24.3923 79.5647 24.1839 79.9293C23.978 80.2915 23.6939 80.5779 23.3317 80.7886C22.9695 80.997 22.5575 81.1011 22.0959 81.1011Z" fill="#040606"/>
<path d="M52.1676 81.1011C51.8693 81.0964 51.571 81.0396 51.2727 80.9307C50.9744 80.8218 50.7022 80.6383 50.456 80.3803C50.2098 80.1198 50.0121 79.7683 49.8629 79.3256C49.7138 78.8805 49.6392 78.3218 49.6392 77.6494C49.6392 77.0055 49.6996 76.4349 49.8203 75.9378C49.9411 75.4383 50.1162 75.018 50.3459 74.6771C50.5755 74.3339 50.8525 74.0734 51.1768 73.8959C51.5036 73.7183 51.8717 73.6295 52.2812 73.6295C52.6884 73.6295 53.0507 73.7112 53.3679 73.8746C53.6875 74.0356 53.9479 74.2605 54.1491 74.5493C54.3504 74.8381 54.4806 75.1707 54.5398 75.5472H53.6733C53.5928 75.2205 53.4366 74.9494 53.2045 74.734C52.9725 74.5185 52.6648 74.4108 52.2812 74.4108C51.7178 74.4108 51.2739 74.6558 50.9496 75.1459C50.6276 75.6359 50.4654 76.3237 50.4631 77.2091H50.5199C50.6525 77.0079 50.8099 76.8362 50.9922 76.6942C51.1768 76.5498 51.3804 76.4385 51.603 76.3604C51.8255 76.2822 52.0611 76.2432 52.3097 76.2432C52.7263 76.2432 53.1075 76.3474 53.4531 76.5557C53.7988 76.7617 54.0758 77.0469 54.2841 77.4115C54.4924 77.7737 54.5966 78.1892 54.5966 78.658C54.5966 79.1078 54.496 79.5197 54.2947 79.8938C54.0935 80.2654 53.8106 80.5614 53.446 80.7815C53.0838 80.9993 52.6577 81.1059 52.1676 81.1011ZM52.1676 80.3199C52.4659 80.3199 52.7334 80.2453 52.9702 80.0962C53.2093 79.947 53.3975 79.747 53.5348 79.496C53.6745 79.2451 53.7443 78.9657 53.7443 78.658C53.7443 78.3573 53.6768 78.0839 53.5419 77.8376C53.4093 77.5891 53.2259 77.3914 52.9915 77.2446C52.7595 77.0978 52.4943 77.0244 52.196 77.0244C51.9711 77.0244 51.7616 77.0694 51.5675 77.1594C51.3733 77.247 51.2029 77.3677 51.0561 77.5216C50.9117 77.6755 50.7981 77.8519 50.7152 78.0507C50.6323 78.2472 50.5909 78.4544 50.5909 78.6722C50.5909 78.961 50.6584 79.2309 50.7933 79.4818C50.9306 79.7328 51.1177 79.9352 51.3544 80.0891C51.5935 80.2429 51.8646 80.3199 52.1676 80.3199ZM56.2763 81.0585C56.1011 81.0585 55.9508 80.9958 55.8253 80.8703C55.6998 80.7448 55.6371 80.5945 55.6371 80.4193C55.6371 80.2441 55.6998 80.0938 55.8253 79.9683C55.9508 79.8429 56.1011 79.7801 56.2763 79.7801C56.4515 79.7801 56.6018 79.8429 56.7273 79.9683C56.8527 80.0938 56.9155 80.2441 56.9155 80.4193C56.9155 80.5353 56.8859 80.6419 56.8267 80.7389C56.7699 80.836 56.6929 80.9141 56.5959 80.9733C56.5012 81.0301 56.3946 81.0585 56.2763 81.0585ZM60.5314 81.1011C60.1148 81.1011 59.7395 81.0183 59.4057 80.8526C59.0719 80.6868 58.8044 80.4596 58.6032 80.1707C58.4019 79.8819 58.2918 79.5528 58.2729 79.1835H59.1252C59.1583 79.5126 59.3075 79.7849 59.5726 80.0003C59.8401 80.2134 60.1597 80.3199 60.5314 80.3199C60.8297 80.3199 61.0949 80.2501 61.3269 80.1104C61.5613 79.9707 61.7447 79.7789 61.8773 79.5351C62.0123 79.2889 62.0797 79.0107 62.0797 78.7006C62.0797 78.3833 62.0099 78.1004 61.8702 77.8519C61.7329 77.6009 61.5435 77.4032 61.302 77.2588C61.0605 77.1144 60.7847 77.041 60.4746 77.0386C60.2521 77.0363 60.0236 77.0706 59.7892 77.1416C59.5549 77.2103 59.3619 77.2991 59.2104 77.408L58.3865 77.3085L58.8269 73.729H62.6053V74.5102H59.5655L59.3098 76.6551H59.3525C59.5016 76.5367 59.6886 76.4385 59.9135 76.3604C60.1384 76.2822 60.3728 76.2432 60.6167 76.2432C61.0617 76.2432 61.4583 76.3497 61.8063 76.5628C62.1567 76.7735 62.4313 77.0623 62.6301 77.4293C62.8314 77.7962 62.932 78.2153 62.932 78.6864C62.932 79.1504 62.8278 79.5647 62.6195 79.9293C62.4135 80.2915 62.1294 80.5779 61.7672 80.7886C61.405 80.997 60.9931 81.1011 60.5314 81.1011Z" fill="#040606"/>
<path d="M83.5824 79.5102V78.7858L86.7784 73.729H87.304V74.8511H86.9489L84.5341 78.6722V78.729H88.8381V79.5102H83.5824ZM87.0057 81.0017V79.2901V78.9527V73.729H87.8438V81.0017H87.0057ZM92.541 81.1011C92.006 81.1011 91.5502 80.9555 91.1738 80.6644C90.7974 80.3708 90.5098 79.9458 90.3109 79.3895C90.112 78.8308 90.0126 78.1561 90.0126 77.3653C90.0126 76.5794 90.112 75.9082 90.3109 75.3519C90.5121 74.7931 90.801 74.367 91.1774 74.0734C91.5562 73.7775 92.0107 73.6295 92.541 73.6295C93.0713 73.6295 93.5247 73.7775 93.9011 74.0734C94.2799 74.367 94.5687 74.7931 94.7676 75.3519C94.9688 75.9082 95.0694 76.5794 95.0694 77.3653C95.0694 78.1561 94.97 78.8308 94.7711 79.3895C94.5723 79.9458 94.2846 80.3708 93.9082 80.6644C93.5318 80.9555 93.0761 81.1011 92.541 81.1011ZM92.541 80.3199C93.0713 80.3199 93.4833 80.0642 93.7768 79.5528C94.0704 79.0415 94.2172 78.3123 94.2172 77.3653C94.2172 76.7356 94.1497 76.1994 94.0147 75.7567C93.8822 75.314 93.6904 74.9766 93.4395 74.7446C93.1909 74.5126 92.8914 74.3966 92.541 74.3966C92.0154 74.3966 91.6047 74.6558 91.3088 75.1743C91.0128 75.6904 90.8649 76.4207 90.8649 77.3653C90.8649 77.9951 90.9312 78.5301 91.0637 78.9705C91.1963 79.4108 91.3869 79.7458 91.6355 79.9754C91.8864 80.2051 92.1883 80.3199 92.541 80.3199ZM96.79 81.0585C96.6148 81.0585 96.4644 80.9958 96.339 80.8703C96.2135 80.7448 96.1507 80.5945 96.1507 80.4193C96.1507 80.2441 96.2135 80.0938 96.339 79.9683C96.4644 79.8429 96.6148 79.7801 96.79 79.7801C96.9651 79.7801 97.1155 79.8429 97.2409 79.9683C97.3664 80.0938 97.4292 80.2441 97.4292 80.4193C97.4292 80.5353 97.3996 80.6419 97.3404 80.7389C97.2836 80.836 97.2066 80.9141 97.1096 80.9733C97.0149 81.0301 96.9083 81.0585 96.79 81.0585ZM101.045 81.1011C100.628 81.1011 100.253 81.0183 99.9194 80.8526C99.5856 80.6868 99.3181 80.4596 99.1168 80.1707C98.9156 79.8819 98.8055 79.5528 98.7866 79.1835H99.6388C99.672 79.5126 99.8211 79.7849 100.086 80.0003C100.354 80.2134 100.673 80.3199 101.045 80.3199C101.343 80.3199 101.609 80.2501 101.841 80.1104C102.075 79.9707 102.258 79.7789 102.391 79.5351C102.526 79.2889 102.593 79.0107 102.593 78.7006C102.593 78.3833 102.524 78.1004 102.384 77.8519C102.247 77.6009 102.057 77.4032 101.816 77.2588C101.574 77.1144 101.298 77.041 100.988 77.0386C100.766 77.0363 100.537 77.0706 100.303 77.1416C100.069 77.2103 99.8756 77.2991 99.7241 77.408L98.9002 77.3085L99.3406 73.729H103.119V74.5102H100.079L99.8235 76.6551H99.8661C100.015 76.5367 100.202 76.4385 100.427 76.3604C100.652 76.2822 100.886 76.2432 101.13 76.2432C101.575 76.2432 101.972 76.3497 102.32 76.5628C102.67 76.7735 102.945 77.0623 103.144 77.4293C103.345 77.7962 103.446 78.2153 103.446 78.6864C103.446 79.1504 103.342 79.5647 103.133 79.9293C102.927 80.2915 102.643 80.5779 102.281 80.7886C101.919 80.997 101.507 81.1011 101.045 81.1011Z" fill="#040606"/>
<path d="M121.753 81.0017V80.3625L124.153 77.7347C124.435 77.4269 124.667 77.1594 124.849 76.9321C125.032 76.7025 125.167 76.487 125.254 76.2858C125.344 76.0822 125.389 75.8691 125.389 75.6466C125.389 75.3909 125.328 75.1696 125.205 74.9825C125.084 74.7955 124.918 74.6511 124.707 74.5493C124.497 74.4475 124.26 74.3966 123.997 74.3966C123.718 74.3966 123.474 74.4546 123.266 74.5706C123.06 74.6842 122.9 74.844 122.786 75.05C122.675 75.256 122.619 75.4974 122.619 75.7744H121.781C121.781 75.3483 121.879 74.9742 122.076 74.6523C122.272 74.3303 122.54 74.0794 122.879 73.8994C123.219 73.7195 123.602 73.6295 124.026 73.6295C124.452 73.6295 124.829 73.7195 125.158 73.8994C125.487 74.0794 125.746 74.322 125.933 74.6274C126.12 74.9328 126.213 75.2725 126.213 75.6466C126.213 75.9141 126.165 76.1757 126.067 76.4314C125.973 76.6847 125.807 76.9676 125.57 77.2801C125.336 77.5903 125.01 77.969 124.594 78.4165L122.96 80.1636V80.2205H126.341V81.0017H121.753ZM130.08 81.1011C129.664 81.1011 129.288 81.0183 128.955 80.8526C128.621 80.6868 128.353 80.4596 128.152 80.1707C127.951 79.8819 127.841 79.5528 127.822 79.1835H128.674C128.707 79.5126 128.856 79.7849 129.121 80.0003C129.389 80.2134 129.709 80.3199 130.08 80.3199C130.379 80.3199 130.644 80.2501 130.876 80.1104C131.11 79.9707 131.294 79.7789 131.426 79.5351C131.561 79.2889 131.629 79.0107 131.629 78.7006C131.629 78.3833 131.559 78.1004 131.419 77.8519C131.282 77.6009 131.092 77.4032 130.851 77.2588C130.609 77.1144 130.334 77.041 130.023 77.0386C129.801 77.0363 129.572 77.0706 129.338 77.1416C129.104 77.2103 128.911 77.2991 128.759 77.408L127.935 77.3085L128.376 73.729H132.154V74.5102H129.114L128.859 76.6551H128.901C129.05 76.5367 129.237 76.4385 129.462 76.3604C129.687 76.2822 129.922 76.2432 130.165 76.2432C130.611 76.2432 131.007 76.3497 131.355 76.5628C131.705 76.7735 131.98 77.0623 132.179 77.4293C132.38 77.7962 132.481 78.2153 132.481 78.6864C132.481 79.1504 132.377 79.5647 132.168 79.9293C131.962 80.2915 131.678 80.5779 131.316 80.7886C130.954 80.997 130.542 81.1011 130.08 81.1011ZM134.243 81.0585C134.068 81.0585 133.918 80.9958 133.792 80.8703C133.667 80.7448 133.604 80.5945 133.604 80.4193C133.604 80.2441 133.667 80.0938 133.792 79.9683C133.918 79.8429 134.068 79.7801 134.243 79.7801C134.418 79.7801 134.569 79.8429 134.694 79.9683C134.82 80.0938 134.882 80.2441 134.882 80.4193C134.882 80.5353 134.853 80.6419 134.794 80.7389C134.737 80.836 134.66 80.9141 134.563 80.9733C134.468 81.0301 134.361 81.0585 134.243 81.0585ZM138.498 81.1011C138.082 81.1011 137.706 81.0183 137.373 80.8526C137.039 80.6868 136.771 80.4596 136.57 80.1707C136.369 79.8819 136.259 79.5528 136.24 79.1835H137.092C137.125 79.5126 137.274 79.7849 137.539 80.0003C137.807 80.2134 138.127 80.3199 138.498 80.3199C138.797 80.3199 139.062 80.2501 139.294 80.1104C139.528 79.9707 139.712 79.7789 139.844 79.5351C139.979 79.2889 140.047 79.0107 140.047 78.7006C140.047 78.3833 139.977 78.1004 139.837 77.8519C139.7 77.6009 139.51 77.4032 139.269 77.2588C139.027 77.1144 138.752 77.041 138.441 77.0386C138.219 77.0363 137.99 77.0706 137.756 77.1416C137.522 77.2103 137.329 77.2991 137.177 77.408L136.353 77.3085L136.794 73.729H140.572V74.5102H137.532L137.277 76.6551H137.319C137.468 76.5367 137.655 76.4385 137.88 76.3604C138.105 76.2822 138.34 76.2432 138.583 76.2432C139.029 76.2432 139.425 76.3497 139.773 76.5628C140.123 76.7735 140.398 77.0623 140.597 77.4293C140.798 77.7962 140.899 78.2153 140.899 78.6864C140.899 79.1504 140.795 79.5647 140.586 79.9293C140.38 80.2915 140.096 80.5779 139.734 80.7886C139.372 80.997 138.96 81.1011 138.498 81.1011Z" fill="#040606"/>
<path d="M15.0682 137.63C15.3665 137.632 15.6648 137.689 15.9631 137.8C16.2614 137.911 16.5336 138.096 16.7798 138.354C17.026 138.61 17.2237 138.959 17.3729 139.402C17.522 139.844 17.5966 140.399 17.5966 141.067C17.5966 141.713 17.535 142.287 17.4119 142.789C17.2912 143.289 17.116 143.71 16.8864 144.054C16.6591 144.397 16.3821 144.657 16.0554 144.835C15.7311 145.012 15.3641 145.101 14.9545 145.101C14.5473 145.101 14.1839 145.021 13.8643 144.86C13.5471 144.696 13.2867 144.47 13.0831 144.181C12.8819 143.89 12.7528 143.553 12.696 143.169H13.5625C13.6406 143.503 13.7957 143.779 14.0277 143.997C14.2621 144.212 14.571 144.32 14.9545 144.32C15.5156 144.32 15.9583 144.075 16.2827 143.585C16.6094 143.095 16.7727 142.402 16.7727 141.507H16.7159C16.5833 141.706 16.4259 141.878 16.2436 142.022C16.0613 142.167 15.8589 142.278 15.6364 142.356C15.4138 142.434 15.1771 142.473 14.9261 142.473C14.5095 142.473 14.1271 142.37 13.7791 142.164C13.4335 141.956 13.1565 141.671 12.9482 141.309C12.7422 140.944 12.6392 140.527 12.6392 140.059C12.6392 139.613 12.7386 139.206 12.9375 138.837C13.1387 138.465 13.4205 138.169 13.7827 137.949C14.1473 137.729 14.5758 137.622 15.0682 137.63ZM15.0682 138.411C14.7699 138.411 14.5012 138.485 14.2621 138.635C14.0253 138.781 13.8371 138.98 13.6974 139.231C13.5601 139.48 13.4915 139.755 13.4915 140.059C13.4915 140.362 13.5578 140.637 13.6903 140.886C13.8253 141.132 14.0088 141.329 14.2408 141.475C14.4751 141.62 14.7415 141.692 15.0398 141.692C15.2647 141.692 15.4742 141.648 15.6683 141.561C15.8625 141.471 16.0317 141.349 16.1761 141.195C16.3229 141.039 16.4377 140.862 16.5206 140.666C16.6035 140.467 16.6449 140.26 16.6449 140.044C16.6449 139.76 16.5762 139.494 16.4389 139.245C16.304 138.997 16.117 138.796 15.8778 138.642C15.6411 138.488 15.3712 138.411 15.0682 138.411ZM19.3642 145.059C19.189 145.059 19.0386 144.996 18.9132 144.87C18.7877 144.745 18.725 144.595 18.725 144.419C18.725 144.244 18.7877 144.094 18.9132 143.968C19.0386 143.843 19.189 143.78 19.3642 143.78C19.5394 143.78 19.6897 143.843 19.8152 143.968C19.9406 144.094 20.0034 144.244 20.0034 144.419C20.0034 144.535 19.9738 144.642 19.9146 144.739C19.8578 144.836 19.7808 144.914 19.6838 144.973C19.5891 145.03 19.4825 145.059 19.3642 145.059ZM23.6193 145.101C23.2027 145.101 22.8274 145.018 22.4936 144.853C22.1598 144.687 21.8923 144.46 21.6911 144.171C21.4898 143.882 21.3797 143.553 21.3608 143.184H22.2131C22.2462 143.513 22.3954 143.785 22.6605 144C22.928 144.213 23.2476 144.32 23.6193 144.32C23.9176 144.32 24.1828 144.25 24.4148 144.11C24.6491 143.971 24.8326 143.779 24.9652 143.535C25.1001 143.289 25.1676 143.011 25.1676 142.701C25.1676 142.383 25.0978 142.1 24.9581 141.852C24.8208 141.601 24.6314 141.403 24.3899 141.259C24.1484 141.114 23.8726 141.041 23.5625 141.039C23.34 141.036 23.1115 141.071 22.8771 141.142C22.6428 141.21 22.4498 141.299 22.2983 141.408L21.4744 141.309L21.9148 137.729H25.6932V138.51H22.6534L22.3977 140.655H22.4403C22.5895 140.537 22.7765 140.438 23.0014 140.36C23.2263 140.282 23.4607 140.243 23.7045 140.243C24.1496 140.243 24.5462 140.35 24.8942 140.563C25.2446 140.773 25.5192 141.062 25.718 141.429C25.9193 141.796 26.0199 142.215 26.0199 142.686C26.0199 143.15 25.9157 143.565 25.7074 143.929C25.5014 144.291 25.2173 144.578 24.8551 144.789C24.4929 144.997 24.081 145.101 23.6193 145.101Z" fill="#040606"/>
<path d="M52.0824 145.101C51.5947 145.101 51.1638 145.015 50.7898 144.842C50.4181 144.667 50.1281 144.426 49.9197 144.121C49.7114 143.813 49.6084 143.463 49.6108 143.07C49.6084 142.762 49.6688 142.478 49.7919 142.218C49.915 141.955 50.0831 141.736 50.2962 141.561C50.5116 141.383 50.7519 141.271 51.017 141.223V141.181C50.669 141.091 50.392 140.895 50.1861 140.595C49.9801 140.292 49.8783 139.947 49.8807 139.561C49.8783 139.192 49.9718 138.862 50.1612 138.571C50.3506 138.279 50.611 138.05 50.9425 137.882C51.2763 137.714 51.6563 137.63 52.0824 137.63C52.5038 137.63 52.8802 137.714 53.2116 137.882C53.5431 138.05 53.8035 138.279 53.9929 138.571C54.1847 138.862 54.2817 139.192 54.2841 139.561C54.2817 139.947 54.1764 140.292 53.968 140.595C53.7621 140.895 53.4886 141.091 53.1477 141.181V141.223C53.4105 141.271 53.6473 141.383 53.858 141.561C54.0687 141.736 54.2367 141.955 54.3622 142.218C54.4877 142.478 54.5516 142.762 54.554 143.07C54.5516 143.463 54.4451 143.813 54.2344 144.121C54.026 144.426 53.736 144.667 53.3643 144.842C52.995 145.015 52.5677 145.101 52.0824 145.101ZM52.0824 144.32C52.4115 144.32 52.6955 144.267 52.9347 144.16C53.1738 144.054 53.3584 143.903 53.4886 143.709C53.6188 143.515 53.6851 143.288 53.6875 143.027C53.6851 142.753 53.6141 142.51 53.4744 142.299C53.3348 142.089 53.1442 141.923 52.9027 141.802C52.6636 141.681 52.3902 141.621 52.0824 141.621C51.7723 141.621 51.4953 141.681 51.2514 141.802C51.0099 141.923 50.8194 142.089 50.6797 142.299C50.5424 142.51 50.4749 142.753 50.4773 143.027C50.4749 143.288 50.5376 143.515 50.6655 143.709C50.7957 143.903 50.9815 144.054 51.223 144.16C51.4645 144.267 51.7509 144.32 52.0824 144.32ZM52.0824 140.868C52.3428 140.868 52.5736 140.816 52.7749 140.712C52.9785 140.608 53.1383 140.462 53.2543 140.275C53.3703 140.088 53.4295 139.869 53.4318 139.618C53.4295 139.372 53.3714 139.158 53.2578 138.975C53.1442 138.791 52.9867 138.649 52.7855 138.549C52.5843 138.447 52.3499 138.397 52.0824 138.397C51.8101 138.397 51.5722 138.447 51.3686 138.549C51.165 138.649 51.0076 138.791 50.8963 138.975C50.785 139.158 50.7306 139.372 50.733 139.618C50.7306 139.869 50.7862 140.088 50.8999 140.275C51.0159 140.462 51.1757 140.608 51.3793 140.712C51.5829 140.816 51.8172 140.868 52.0824 140.868ZM56.3153 145.059C56.1402 145.059 55.9898 144.996 55.8643 144.87C55.7389 144.745 55.6761 144.595 55.6761 144.419C55.6761 144.244 55.7389 144.094 55.8643 143.968C55.9898 143.843 56.1402 143.78 56.3153 143.78C56.4905 143.78 56.6409 143.843 56.7663 143.968C56.8918 144.094 56.9545 144.244 56.9545 144.419C56.9545 144.535 56.925 144.642 56.8658 144.739C56.8089 144.836 56.732 144.914 56.6349 144.973C56.5402 145.03 56.4337 145.059 56.3153 145.059ZM60.5705 145.101C60.1538 145.101 59.7786 145.018 59.4448 144.853C59.111 144.687 58.8435 144.46 58.6422 144.171C58.441 143.882 58.3309 143.553 58.312 143.184H59.1642C59.1974 143.513 59.3465 143.785 59.6117 144C59.8792 144.213 60.1988 144.32 60.5705 144.32C60.8688 144.32 61.1339 144.25 61.3659 144.11C61.6003 143.971 61.7838 143.779 61.9164 143.535C62.0513 143.289 62.1188 143.011 62.1188 142.701C62.1188 142.383 62.0489 142.1 61.9093 141.852C61.772 141.601 61.5826 141.403 61.3411 141.259C61.0996 141.114 60.8238 141.041 60.5137 141.039C60.2911 141.036 60.0627 141.071 59.8283 141.142C59.5939 141.21 59.401 141.299 59.2495 141.408L58.4256 141.309L58.8659 137.729H62.6444V138.51H59.6046L59.3489 140.655H59.3915C59.5407 140.537 59.7277 140.438 59.9526 140.36C60.1775 140.282 60.4119 140.243 60.6557 140.243C61.1008 140.243 61.4973 140.35 61.8453 140.563C62.1957 140.773 62.4703 141.062 62.6692 141.429C62.8704 141.796 62.9711 142.215 62.9711 142.686C62.9711 143.15 62.8669 143.565 62.6586 143.929C62.4526 144.291 62.1685 144.578 61.8063 144.789C61.4441 144.997 61.0321 145.101 60.5705 145.101Z" fill="#040606"/>
<path d="M87.5824 143.51V142.786L90.7784 137.729H91.304V138.851H90.9489L88.5341 142.672V142.729H92.8381V143.51H87.5824ZM91.0057 145.002V143.29V142.953V137.729H91.8438V145.002H91.0057ZM96.6262 145.101C96.1575 145.101 95.7396 145.021 95.3727 144.86C95.0081 144.699 94.7181 144.475 94.5027 144.188C94.2896 143.9 94.1736 143.565 94.1547 143.184H95.0495C95.0685 143.418 95.149 143.62 95.291 143.791C95.4331 143.959 95.6189 144.089 95.8485 144.181C96.0782 144.274 96.3327 144.32 96.612 144.32C96.9245 144.32 97.2015 144.265 97.443 144.157C97.6845 144.048 97.8739 143.896 98.0112 143.702C98.1485 143.508 98.2172 143.283 98.2172 143.027C98.2172 142.76 98.1509 142.524 98.0183 142.321C97.8857 142.115 97.6916 141.954 97.4359 141.838C97.1802 141.722 96.8677 141.664 96.4984 141.664H95.916V140.882H96.4984C96.7872 140.882 97.0405 140.83 97.2583 140.726C97.4785 140.622 97.6502 140.475 97.7733 140.286C97.8987 140.096 97.9615 139.874 97.9615 139.618C97.9615 139.372 97.907 139.158 97.7981 138.975C97.6892 138.793 97.5353 138.651 97.3365 138.549C97.14 138.447 96.908 138.397 96.6404 138.397C96.3895 138.397 96.1528 138.443 95.9302 138.535C95.71 138.625 95.5301 138.756 95.3904 138.929C95.2508 139.1 95.175 139.306 95.1632 139.547H94.3109C94.3251 139.166 94.4399 138.832 94.6554 138.546C94.8708 138.257 95.1525 138.032 95.5005 137.871C95.8509 137.71 96.2356 137.63 96.6547 137.63C97.1045 137.63 97.4904 137.721 97.8123 137.903C98.1343 138.083 98.3817 138.321 98.5545 138.617C98.7273 138.913 98.8137 139.232 98.8137 139.576C98.8137 139.985 98.706 140.334 98.4906 140.623C98.2775 140.912 97.9875 141.112 97.6206 141.223V141.28C98.0798 141.356 98.4385 141.551 98.6966 141.866C98.9546 142.179 99.0836 142.566 99.0836 143.027C99.0836 143.423 98.9759 143.778 98.7605 144.093C98.5474 144.405 98.2562 144.651 97.8869 144.831C97.5176 145.011 97.0974 145.101 96.6262 145.101Z" fill="#040606"/>
<path d="M121.753 145.002V144.363L124.153 141.735C124.435 141.427 124.667 141.159 124.849 140.932C125.032 140.702 125.167 140.487 125.254 140.286C125.344 140.082 125.389 139.869 125.389 139.647C125.389 139.391 125.328 139.17 125.205 138.983C125.084 138.796 124.918 138.651 124.707 138.549C124.497 138.447 124.26 138.397 123.997 138.397C123.718 138.397 123.474 138.455 123.266 138.571C123.06 138.684 122.9 138.844 122.786 139.05C122.675 139.256 122.619 139.497 122.619 139.774H121.781C121.781 139.348 121.879 138.974 122.076 138.652C122.272 138.33 122.54 138.079 122.879 137.899C123.219 137.72 123.602 137.63 124.026 137.63C124.452 137.63 124.829 137.72 125.158 137.899C125.487 138.079 125.746 138.322 125.933 138.627C126.12 138.933 126.213 139.273 126.213 139.647C126.213 139.914 126.165 140.176 126.067 140.431C125.973 140.685 125.807 140.968 125.57 141.28C125.336 141.59 125.01 141.969 124.594 142.416L122.96 144.164V144.22H126.341V145.002H121.753ZM128.035 145.002L131.288 138.567V138.51H127.538V137.729H132.197V138.553L128.958 145.002H128.035ZM132.895 145.059C132.72 145.059 132.57 144.996 132.444 144.87C132.319 144.745 132.256 144.595 132.256 144.419C132.256 144.244 132.319 144.094 132.444 143.968C132.57 143.843 132.72 143.78 132.895 143.78C133.071 143.78 133.221 143.843 133.346 143.968C133.472 144.094 133.535 144.244 133.535 144.419C133.535 144.535 133.505 144.642 133.446 144.739C133.389 144.836 133.312 144.914 133.215 144.973C133.12 145.03 133.014 145.059 132.895 145.059ZM137.151 145.101C136.734 145.101 136.359 145.018 136.025 144.853C135.691 144.687 135.424 144.46 135.222 144.171C135.021 143.882 134.911 143.553 134.892 143.184H135.744C135.777 143.513 135.927 143.785 136.192 144C136.459 144.213 136.779 144.32 137.151 144.32C137.449 144.32 137.714 144.25 137.946 144.11C138.18 143.971 138.364 143.779 138.496 143.535C138.631 143.289 138.699 143.011 138.699 142.701C138.699 142.383 138.629 142.1 138.489 141.852C138.352 141.601 138.163 141.403 137.921 141.259C137.68 141.114 137.404 141.041 137.094 141.039C136.871 141.036 136.643 141.071 136.408 141.142C136.174 141.21 135.981 141.299 135.83 141.408L135.006 141.309L135.446 137.729H139.224V138.51H136.185L135.929 140.655H135.972C136.121 140.537 136.308 140.438 136.533 140.36C136.758 140.282 136.992 140.243 137.236 140.243C137.681 140.243 138.077 140.35 138.425 140.563C138.776 140.773 139.05 141.062 139.249 141.429C139.451 141.796 139.551 142.215 139.551 142.686C139.551 143.15 139.447 143.565 139.239 143.929C139.033 144.291 138.749 144.578 138.386 144.789C138.024 144.997 137.612 145.101 137.151 145.101Z" fill="#040606"/>
<path d="M54.6534 7.72898H55.5341V12.5443C55.5341 13.0415 55.4169 13.4854 55.1825 13.876C54.9505 14.2643 54.6226 14.5708 54.1989 14.7957C53.7751 15.0183 53.2779 15.1295 52.7074 15.1295C52.1368 15.1295 51.6397 15.0183 51.2159 14.7957C50.7921 14.5708 50.4631 14.2643 50.2287 13.876C49.9967 13.4854 49.8807 13.0415 49.8807 12.5443V7.72898H50.7614V12.4733C50.7614 12.8284 50.8395 13.1445 50.9957 13.4215C51.152 13.6961 51.3745 13.9127 51.6634 14.0713C51.9545 14.2276 52.3026 14.3057 52.7074 14.3057C53.1122 14.3057 53.4602 14.2276 53.7514 14.0713C54.0426 13.9127 54.2652 13.6961 54.419 13.4215C54.5753 13.1445 54.6534 12.8284 54.6534 12.4733V7.72898ZM57.2928 15.0017V7.72898H58.1735V11.3369H58.2587L61.5257 7.72898H62.6763L59.6223 11.0102L62.6763 15.0017H61.611L59.0826 11.621L58.1735 12.6438V15.0017H57.2928Z" fill="#040606"/>
<path d="M87.8807 15.0017V7.72898H92.2699V8.51023H88.7614V10.9676H92.0426V11.7489H88.7614V14.2205H92.3267V15.0017H87.8807ZM98.63 7.72898H99.5107V12.5443C99.5107 13.0415 99.3935 13.4854 99.1591 13.876C98.9271 14.2643 98.5992 14.5708 98.1754 14.7957C97.7517 15.0183 97.2545 15.1295 96.6839 15.1295C96.1134 15.1295 95.6162 15.0183 95.1925 14.7957C94.7687 14.5708 94.4396 14.2643 94.2053 13.876C93.9732 13.4854 93.8572 13.0415 93.8572 12.5443V7.72898H94.7379V12.4733C94.7379 12.8284 94.8161 13.1445 94.9723 13.4215C95.1286 13.6961 95.3511 13.9127 95.6399 14.0713C95.9311 14.2276 96.2791 14.3057 96.6839 14.3057C97.0888 14.3057 97.4368 14.2276 97.728 14.0713C98.0192 13.9127 98.2417 13.6961 98.3956 13.4215C98.5518 13.1445 98.63 12.8284 98.63 12.4733V7.72898Z" fill="#040606"/>
<path d="M128.733 10.0017H127.852C127.8 9.74839 127.709 9.52586 127.579 9.3341C127.451 9.14233 127.295 8.98135 127.11 8.85114C126.928 8.71857 126.725 8.61913 126.503 8.55285C126.28 8.48656 126.048 8.45341 125.807 8.45341C125.366 8.45341 124.968 8.56468 124.61 8.78722C124.255 9.00976 123.972 9.33765 123.761 9.77089C123.553 10.2041 123.449 10.7356 123.449 11.3653C123.449 11.9951 123.553 12.5266 123.761 12.9598C123.972 13.393 124.255 13.7209 124.61 13.9435C124.968 14.166 125.366 14.2773 125.807 14.2773C126.048 14.2773 126.28 14.2441 126.503 14.1778C126.725 14.1116 126.928 14.0133 127.11 13.8831C127.295 13.7505 127.451 13.5884 127.579 13.3966C127.709 13.2025 127.8 12.9799 127.852 12.729H128.733C128.667 13.1007 128.546 13.4333 128.371 13.7269C128.196 14.0204 127.978 14.2702 127.717 14.4761C127.457 14.6797 127.165 14.8348 126.84 14.9413C126.518 15.0479 126.174 15.1011 125.807 15.1011C125.187 15.1011 124.635 14.9496 124.152 14.6466C123.669 14.3436 123.289 13.9127 123.012 13.354C122.735 12.7953 122.597 12.1324 122.597 11.3653C122.597 10.5983 122.735 9.93542 123.012 9.37671C123.289 8.818 123.669 8.38713 124.152 8.0841C124.635 7.78106 125.187 7.62955 125.807 7.62955C126.174 7.62955 126.518 7.68282 126.84 7.78935C127.165 7.89589 127.457 8.05214 127.717 8.2581C127.978 8.4617 128.196 8.71028 128.371 9.00384C128.546 9.29503 128.667 9.62766 128.733 10.0017ZM130.156 7.72898H131.207L133.679 13.7659H133.764L136.236 7.72898H137.287V15.0017H136.463V9.47614H136.392L134.119 15.0017H133.324L131.051 9.47614H130.98V15.0017H130.156V7.72898Z" fill="#040606"/>
<rect x="0.5" y="0.501709" width="149" height="149" stroke="#040606"/>
<line y1="21.5017" x2="150" y2="21.5017" stroke="black"/>
<line y1="53.5017" x2="150" y2="53.5017" stroke="black"/>
<line y1="85.5017" x2="150" y2="85.5017" stroke="black"/>
<line y1="117.502" x2="150" y2="117.502" stroke="black"/>
<line y1="37.5017" x2="150" y2="37.5017" stroke="black"/>
<line y1="69.5017" x2="150" y2="69.5017" stroke="black"/>
<line y1="101.502" x2="150" y2="101.502" stroke="black"/>
<line y1="133.502" x2="150" y2="133.502" stroke="black"/>
<line x1="37.5" x2="37.5" y2="150" stroke="black"/>
<line x1="75.5" y1="0.00170898" x2="75.5" y2="150.002" stroke="black"/>
<line x1="112.5" y1="0.00170898" x2="112.5" y2="150.002" stroke="black"/>
</svg>
