<svg width="150" height="150" viewBox="0 0 150 150" fill="none" xmlns="http://www.w3.org/2000/svg">
<rect width="150" height="150" fill="white"/>
<line x1="33.5928" y1="9.85692" x2="132.033" y2="9.85692" stroke="#F26B30" stroke-width="3"/>
<path d="M123.1 134.54V148.5L0.50071 148.5V134.54L123.1 134.54Z" stroke="#040606"/>
<line y1="-0.5" x2="13.1715" y2="-0.5" transform="matrix(-0.629375 -0.777102 0.778747 -0.627338 123.489 144.276)" stroke="#040606"/>
<line y1="-0.5" x2="18.3096" y2="-0.5" transform="matrix(-0.640574 -0.767896 0.76958 -0.63855 15 148.402)" stroke="#040606"/>
<line y1="-0.5" x2="18.715" y2="-0.5" transform="matrix(-0.641195 -0.767378 0.769064 -0.639171 21.5996 148.402)" stroke="#040606"/>
<line y1="-0.5" x2="18.715" y2="-0.5" transform="matrix(-0.641195 -0.767378 0.769064 -0.639171 46.2002 148.402)" stroke="#040606"/>
<line y1="-0.5" x2="18.715" y2="-0.5" transform="matrix(-0.641195 -0.767378 0.769064 -0.639171 70.7998 148.402)" stroke="#040606"/>
<line y1="-0.5" x2="18.715" y2="-0.5" transform="matrix(-0.641195 -0.767378 0.769064 -0.639171 102 148.402)" stroke="#040606"/>
<line y1="-0.5" x2="18.715" y2="-0.5" transform="matrix(-0.641195 -0.767378 0.769064 -0.639171 34.2002 148.402)" stroke="#040606"/>
<line y1="-0.5" x2="18.715" y2="-0.5" transform="matrix(-0.641195 -0.767378 0.769064 -0.639171 58.7998 148.402)" stroke="#040606"/>
<line y1="-0.5" x2="18.715" y2="-0.5" transform="matrix(-0.641195 -0.767378 0.769064 -0.639171 83.3994 148.402)" stroke="#040606"/>
<line y1="-0.5" x2="18.715" y2="-0.5" transform="matrix(-0.641195 -0.767378 0.769064 -0.639171 114.6 148.402)" stroke="#040606"/>
<line y1="-0.5" x2="18.715" y2="-0.5" transform="matrix(-0.641195 -0.767378 0.769064 -0.639171 27.5996 148.402)" stroke="#040606"/>
<line y1="-0.5" x2="18.715" y2="-0.5" transform="matrix(-0.641195 -0.767378 0.769064 -0.639171 52.2002 148.402)" stroke="#040606"/>
<line y1="-0.5" x2="18.715" y2="-0.5" transform="matrix(-0.641195 -0.767378 0.769064 -0.639171 76.7998 148.402)" stroke="#040606"/>
<line y1="-0.5" x2="18.715" y2="-0.5" transform="matrix(-0.641195 -0.767378 0.769064 -0.639171 108 148.402)" stroke="#040606"/>
<line y1="-0.5" x2="18.715" y2="-0.5" transform="matrix(-0.641195 -0.767378 0.769064 -0.639171 40.2002 148.402)" stroke="#040606"/>
<line y1="-0.5" x2="18.715" y2="-0.5" transform="matrix(-0.641195 -0.767378 0.769064 -0.639171 64.7998 148.402)" stroke="#040606"/>
<line y1="-0.5" x2="18.715" y2="-0.5" transform="matrix(-0.641195 -0.767378 0.769064 -0.639171 96 148.402)" stroke="#040606"/>
<line y1="-0.5" x2="18.715" y2="-0.5" transform="matrix(-0.641195 -0.767378 0.769064 -0.639171 89.3994 148.402)" stroke="#040606"/>
<line y1="-0.5" x2="18.715" y2="-0.5" transform="matrix(-0.641195 -0.767378 0.769064 -0.639171 120.6 148.402)" stroke="#040606"/>
<line x1="8.35721" y1="148.546" x2="0.617127" y2="139.321" stroke="#040606"/>
<rect x="0.5" y="0.5" width="122.6" height="133.639" stroke="#040606"/>
<rect x="132.531" y="0.5" width="16.9687" height="147.815" stroke="#040606"/>
<line x1="132.213" y1="14.3815" x2="139.244" y2="14.3815" stroke="#040606"/>
<line x1="132.213" y1="30.0462" x2="139.244" y2="30.0462" stroke="#040606"/>
<line x1="132.213" y1="18.2977" x2="136.119" y2="18.2977" stroke="#040606"/>
<line x1="132.213" y1="6.54913" x2="136.119" y2="6.54913" stroke="#040606"/>
<line x1="132.213" y1="3.41622" x2="136.119" y2="3.41622" stroke="#040606"/>
<line x1="132.213" y1="22.2139" x2="136.119" y2="22.2139" stroke="#040606"/>
<line x1="132.213" y1="26.1301" x2="136.119" y2="26.1301" stroke="#040606"/>
<line x1="132.213" y1="10.4654" x2="136.119" y2="10.4654" stroke="#040606"/>
<line x1="132.031" y1="44.9278" x2="139.062" y2="44.9278" stroke="#040606"/>
<line x1="132.031" y1="60.5925" x2="139.062" y2="60.5925" stroke="#040606"/>
<line x1="132.031" y1="48.844" x2="135.937" y2="48.844" stroke="#040606"/>
<line x1="132.031" y1="37.0954" x2="135.937" y2="37.0954" stroke="#040606"/>
<line x1="132.031" y1="33.9625" x2="135.937" y2="33.9625" stroke="#040606"/>
<line x1="132.031" y1="52.7602" x2="135.937" y2="52.7602" stroke="#040606"/>
<line x1="132.031" y1="56.6764" x2="135.937" y2="56.6764" stroke="#040606"/>
<line x1="132.031" y1="41.0117" x2="135.937" y2="41.0117" stroke="#040606"/>
<line x1="132.213" y1="75.4741" x2="139.244" y2="75.4741" stroke="#040606"/>
<line x1="132.213" y1="91.1388" x2="139.244" y2="91.1388" stroke="#040606"/>
<line x1="132.213" y1="79.3903" x2="136.119" y2="79.3903" stroke="#040606"/>
<line x1="132.213" y1="67.6417" x2="136.119" y2="67.6417" stroke="#040606"/>
<line x1="132.213" y1="64.5088" x2="136.119" y2="64.5088" stroke="#040606"/>
<line x1="132.213" y1="83.3065" x2="136.119" y2="83.3065" stroke="#040606"/>
<line x1="132.213" y1="87.2227" x2="136.119" y2="87.2227" stroke="#040606"/>
<line x1="132.213" y1="71.558" x2="136.119" y2="71.558" stroke="#040606"/>
<line x1="132.213" y1="106.02" x2="139.244" y2="106.02" stroke="#040606"/>
<line x1="132.213" y1="121.685" x2="139.244" y2="121.685" stroke="#040606"/>
<line x1="132.213" y1="109.937" x2="136.119" y2="109.937" stroke="#040606"/>
<line x1="132.213" y1="98.188" x2="136.119" y2="98.188" stroke="#040606"/>
<line x1="132.213" y1="95.0551" x2="136.119" y2="95.0551" stroke="#040606"/>
<line x1="132.213" y1="113.853" x2="136.119" y2="113.853" stroke="#040606"/>
<line x1="132.213" y1="117.769" x2="136.119" y2="117.769" stroke="#040606"/>
<line x1="132.213" y1="102.104" x2="136.119" y2="102.104" stroke="#040606"/>
<line x1="132.213" y1="136.567" x2="139.244" y2="136.567" stroke="#040606"/>
<line x1="132.213" y1="140.483" x2="136.119" y2="140.483" stroke="#040606"/>
<line x1="132.213" y1="128.734" x2="136.119" y2="128.734" stroke="#040606"/>
<line x1="132.213" y1="125.601" x2="136.119" y2="125.601" stroke="#040606"/>
<line x1="132.213" y1="144.399" x2="136.119" y2="144.399" stroke="#040606"/>
<line x1="132.213" y1="148.315" x2="136.119" y2="148.315" stroke="#040606"/>
<line x1="132.213" y1="132.651" x2="136.119" y2="132.651" stroke="#040606"/>
<mask id="mask0_780_467" style="mask-type:luminance" maskUnits="userSpaceOnUse" x="35" y="10" width="54" height="125">
<path d="M35.9385 10.3669H88.2821V134.119H35.9385V10.3669Z" fill="white"/>
</mask>
<g mask="url(#mask0_780_467)">
<path d="M83.6976 43.4254C83.3983 43.5402 83.1615 43.7897 83.0643 44.1154C83.0574 44.1392 83.0475 44.1609 83.0415 44.1847C83.0415 44.1867 83.0396 44.1897 83.0396 44.1926C82.3459 47.3875 82.7244 49.5784 83.1634 52.1149C83.4726 53.8999 83.8214 55.9245 83.8214 58.665C83.8214 64.8398 81.5214 73.7333 79.0857 83.1485C76.9283 91.4876 74.5629 100.646 73.4729 109.206C73.1251 111.937 72.8625 114.661 72.8625 117.562C72.8625 126.055 67.4023 131.986 59.5827 131.986C51.763 131.986 46.3029 126.055 46.3029 117.562C46.3292 114.661 46.3292 114.661 46.3292 114.661C46.3292 111.743 46.3292 111.159 46.3292 111.159C46.3292 111.937 46.3292 111.937 46.3292 111.159C46.3292 110.381 46.3292 109.609 46.3292 108.824C46.5921 105.718 46.6606 104.332 46.4545 107.398C46.5189 106.392 46.5883 105.37 46.6606 104.332C47.0887 98.1456 47.5317 91.747 46.7201 86.68C45.5686 79.4864 43.3835 73.2036 41.4561 67.6604C41.2976 67.202 41.143 66.7565 40.9884 66.31C43.6402 68.8475 47.276 70.7295 51.7779 71.7968C51.8611 71.8166 51.9434 71.8255 52.0256 71.8255C52.5082 71.8255 52.9452 71.4958 53.0622 71.0058C53.1979 70.4325 52.8432 69.8583 52.2704 69.7217C47.5406 68.6 39.9578 65.5348 38.3733 57.3542C38.3227 57.073 38.2732 56.7928 38.2355 56.5225C38.2236 56.4364 38.2107 56.3503 38.1998 56.2631C38.1503 55.8622 38.1136 55.4711 38.0958 55.0929C38.0948 55.0692 38.0958 55.0434 38.0938 55.0197C38.0948 54.2791 38.1136 53.5633 38.1473 52.8703C38.6656 48.0755 42.0398 45.4272 44.9136 44.0312C45.4437 43.7748 45.6647 43.1372 45.4071 42.6076C45.1494 42.0779 44.5112 41.8561 43.9821 42.1136C41.9982 43.0769 40.3591 44.2986 39.0867 45.7311C39.4395 44.054 39.8448 42.5125 40.2313 41.0493C41.1985 37.3871 42.0329 34.224 41.5958 30.6252C41.577 30.4717 41.5255 30.3311 41.4502 30.2074C40.5484 28.6124 40.0708 26.6225 40.0708 24.4523C40.0708 21.0941 40.7624 13.2827 47.17 13.2827C53.2227 13.2827 54.2295 19.9981 54.2682 24.1939C54.2662 24.2979 54.2662 24.3959 54.2702 24.4384C54.2702 24.4404 54.2702 24.4424 54.2702 24.4444L54.2632 24.7949C54.2107 26.4858 54.2632 27.2311 54.1562 31.0004L54.0125 39.289C52.9988 39.3979 51.9919 39.5345 51.005 39.7295C50.4262 39.8434 50.0507 40.4038 50.1646 40.9819C50.2786 41.5591 50.8385 41.9363 51.4172 41.8215C52.6281 41.5829 53.8649 41.4156 55.1144 41.3116C55.1412 41.3106 55.166 41.3067 55.1917 41.3037C57.8525 41.0899 60.5677 41.1809 63.2125 41.5354C63.2205 41.5364 63.2284 41.5393 63.2363 41.5403C63.2423 41.5413 63.2482 41.5413 63.2551 41.5413C69.4357 42.3759 75.218 44.6768 78.9479 48.0825C79.153 48.2696 79.4097 48.3617 79.6673 48.3617C79.9567 48.3617 80.2441 48.2439 80.4552 48.0142C80.8525 47.5795 80.8208 46.9053 80.3868 46.5083C79.7942 45.9678 79.1402 45.4619 78.4594 44.9738L80.9189 37.9306C81.2321 36.8891 81.8187 36.4644 82.9454 36.4644C84.5527 36.4644 85.3673 37.7821 85.3673 40.38C85.3673 41.8601 84.7272 43.0264 83.6976 43.4254ZM56.3977 24.6048C56.3987 24.5533 56.4027 24.5048 56.4027 24.4523C56.4027 24.4335 56.4017 24.4157 56.4017 24.3969C56.3987 24.3276 56.3997 24.2563 56.4007 24.184L56.4027 24.0206C56.4027 22.2128 56.7822 18.0082 60.2952 18.0082C63.5118 18.0082 64.1876 21.2782 64.1876 24.0206C64.1876 24.4563 64.1589 24.8671 64.1044 25.2532C64.0885 25.3354 64.0687 25.4136 64.0539 25.4978L64.042 25.5978C63.8497 26.6056 63.6446 29.0498 63.5128 30.0906L62.4257 39.3127C60.3437 39.086 58.236 39.0197 56.149 39.1227L56.3977 24.6048ZM66.1468 25.9532C66.1666 25.8453 66.1874 25.7403 66.2032 25.6304C66.6521 23.3553 67.7333 22.194 69.4278 22.194C72.2669 22.194 72.8625 25.2879 72.8625 27.8838C72.8625 29.5381 72.8625 29.0498 72.4947 30.9955C72.4947 30.9955 72.1099 32.1629 71.8973 33.818L70.5743 41.0641C68.6489 40.4255 66.6204 39.9345 64.5394 39.5979L66.1468 25.9532ZM77.4298 27.9026C79.8903 27.9026 80.4066 30.638 80.4066 32.932C80.4066 34.4536 80.0078 35.0198 79.4208 36.0544C78.8338 37.089 78.6513 37.6109 78.3603 38.792L76.6192 43.7748C75.3725 43.0402 74.0318 42.3779 72.6068 41.8047L74.7225 30.2183C75.2814 28.1441 76.5339 27.9026 77.4298 27.9026ZM82.9454 34.3319C82.7651 34.3319 82.5976 34.3507 82.4281 34.3665C82.4995 33.9141 82.5401 33.4379 82.5401 32.932C82.5401 28.3808 80.6771 25.771 77.4298 25.771C76.4755 25.771 75.6381 25.9977 74.9266 26.4205C74.556 22.3604 72.6018 20.0605 69.4278 20.0605C68.1079 20.0605 66.9792 20.5001 66.0863 21.3228C65.4283 17.827 63.3988 15.8756 60.2952 15.8756C58.2716 15.8756 56.6911 16.7577 55.6555 18.3576C54.3643 13.7183 51.4311 11.1502 47.17 11.1502C41.3887 11.1502 37.9372 16.1231 37.9372 24.4523C37.9372 26.9056 38.4773 29.1817 39.492 31.0598C39.8309 34.1853 39.063 37.1198 38.1691 40.5057C37.2723 43.9025 36.2724 47.6944 36.0217 52.704C35.9722 53.1792 35.9385 53.6603 35.9385 54.1534C35.9385 54.3702 35.9583 54.5791 35.9652 54.7939C35.9642 54.8989 35.9613 54.9999 35.9613 55.1068C35.9672 55.2266 35.9851 55.3563 35.994 55.478C36.0078 55.6869 36.0257 55.8929 36.0465 56.0968C36.0802 56.4245 36.1228 56.7572 36.1743 57.0948C36.1941 57.2235 36.213 57.3542 36.2358 57.4809C36.7739 60.6599 38.0244 64.2854 39.4425 68.3614C41.3402 73.8214 43.4915 80.0091 44.6143 87.0176C45.3872 91.843 44.9522 98.1179 44.533 104.185C44.1921 109.113 43.8701 113.767 44.1703 117.602C44.1882 127.174 50.6641 134.119 59.5827 134.119C68.3615 134.119 74.7691 127.39 74.9861 118.05C74.9871 118.03 74.991 118.013 74.991 117.993C74.991 107.494 78.2632 94.8438 81.1508 83.6832C83.6213 74.1323 85.955 65.1111 85.955 58.665C85.955 55.7414 85.5883 53.6217 85.2652 51.7515C84.8728 49.4863 84.5686 47.6587 85.0334 45.1371C86.5674 44.2689 87.5008 42.5086 87.5008 40.38C87.5008 36.5931 85.7974 34.3319 82.9454 34.3319Z" fill="#040606"/>
</g>
</svg>
