<svg width="150" height="151" viewBox="0 0 150 151" fill="none" xmlns="http://www.w3.org/2000/svg">
<rect width="150" height="150" fill="white"/>
<line x1="147.213" x2="147.213" y2="134.132" stroke="#F26B30" stroke-width="3"/>
<path d="M149.499 134.291V149.483L15.4995 149.483V134.291L149.499 134.291Z" stroke="#040606"/>
<line y1="-0.5" x2="14.1908" y2="-0.5" transform="matrix(-0.642786 -0.766045 0.766043 -0.642789 149.999 144.77)" stroke="#040606"/>
<line y1="-0.5" x2="20.4352" y2="-0.5" transform="matrix(-0.642786 -0.766045 0.766043 -0.642789 31.167 149.427)" stroke="#040606"/>
<line y1="-0.5" x2="20.4352" y2="-0.5" transform="matrix(-0.642786 -0.766045 0.766043 -0.642789 58.7344 149.454)" stroke="#040606"/>
<line y1="-0.5" x2="20.4352" y2="-0.5" transform="matrix(-0.642786 -0.766045 0.766043 -0.642789 44.9346 149.454)" stroke="#040606"/>
<line y1="-0.5" x2="20.4352" y2="-0.5" transform="matrix(-0.642786 -0.766045 0.766043 -0.642789 72.502 149.481)" stroke="#040606"/>
<line y1="-0.5" x2="20.4352" y2="-0.5" transform="matrix(-0.642786 -0.766045 0.766043 -0.642789 38.334 149.454)" stroke="#040606"/>
<line y1="-0.5" x2="20.4352" y2="-0.5" transform="matrix(-0.642786 -0.766045 0.766043 -0.642789 65.9023 149.481)" stroke="#040606"/>
<line y1="-0.5" x2="20.4352" y2="-0.5" transform="matrix(-0.642786 -0.766045 0.766043 -0.642789 52.1025 149.481)" stroke="#040606"/>
<line y1="-0.5" x2="20.4352" y2="-0.5" transform="matrix(-0.642786 -0.766045 0.766043 -0.642789 79.6699 149.509)" stroke="#040606"/>
<line y1="-0.5" x2="14.0584" y2="-0.5" transform="matrix(-0.642786 -0.766045 0.766043 -0.642789 24.6172 149.385)" stroke="#040606"/>
<line y1="-0.5" x2="20.4352" y2="-0.5" transform="matrix(-0.642786 -0.766045 0.766043 -0.642789 85.7344 149.454)" stroke="#040606"/>
<line y1="-0.5" x2="20.4352" y2="-0.5" transform="matrix(-0.642786 -0.766045 0.766043 -0.642789 99.502 149.481)" stroke="#040606"/>
<line y1="-0.5" x2="20.4352" y2="-0.5" transform="matrix(-0.642786 -0.766045 0.766043 -0.642789 92.9023 149.481)" stroke="#040606"/>
<line y1="-0.5" x2="20.4352" y2="-0.5" transform="matrix(-0.642786 -0.766045 0.766043 -0.642789 106.67 149.509)" stroke="#040606"/>
<line y1="-0.5" x2="20.4352" y2="-0.5" transform="matrix(-0.642786 -0.766045 0.766043 -0.642789 113.334 149.454)" stroke="#040606"/>
<line y1="-0.5" x2="20.4352" y2="-0.5" transform="matrix(-0.642786 -0.766045 0.766043 -0.642789 127.102 149.481)" stroke="#040606"/>
<line y1="-0.5" x2="20.4352" y2="-0.5" transform="matrix(-0.642786 -0.766045 0.766043 -0.642789 140.935 149.454)" stroke="#040606"/>
<line y1="-0.5" x2="20.4352" y2="-0.5" transform="matrix(-0.642786 -0.766045 0.766043 -0.642789 120.502 149.481)" stroke="#040606"/>
<line y1="-0.5" x2="20.4352" y2="-0.5" transform="matrix(-0.642786 -0.766045 0.766043 -0.642789 134.27 149.509)" stroke="#040606"/>
<line y1="-0.5" x2="20.4352" y2="-0.5" transform="matrix(-0.642786 -0.766045 0.766043 -0.642789 148.102 149.481)" stroke="#040606"/>
<rect x="0.500977" y="0.517358" width="14.5982" height="148.983" stroke="#040606"/>
<line y1="-0.5" x2="13.4438" y2="-0.5" transform="matrix(-0.771311 0.636458 -0.649092 -0.76071 10.3848 0)" stroke="#040606"/>
<line y1="-0.5" x2="19.3227" y2="-0.5" transform="matrix(-0.771311 0.636458 -0.649092 -0.76071 14.9043 2.57388)" stroke="#040606"/>
<line y1="-0.5" x2="19.3227" y2="-0.5" transform="matrix(-0.771311 0.636458 -0.649092 -0.76071 14.9043 9.39126)" stroke="#040606"/>
<line y1="-0.5" x2="19.3227" y2="-0.5" transform="matrix(-0.771311 0.636458 -0.649092 -0.76071 14.9043 16.2086)" stroke="#040606"/>
<line y1="-0.5" x2="19.3227" y2="-0.5" transform="matrix(-0.771311 0.636458 -0.649092 -0.76071 14.9043 23.026)" stroke="#040606"/>
<line y1="-0.5" x2="19.3227" y2="-0.5" transform="matrix(-0.771311 0.636458 -0.649092 -0.76071 14.9043 29.8434)" stroke="#040606"/>
<line y1="-0.5" x2="19.3227" y2="-0.5" transform="matrix(-0.771311 0.636458 -0.649092 -0.76071 14.9043 36.6608)" stroke="#040606"/>
<line y1="-0.5" x2="19.3227" y2="-0.5" transform="matrix(-0.771311 0.636458 -0.649092 -0.76071 14.9043 43.4782)" stroke="#040606"/>
<line y1="-0.5" x2="19.3227" y2="-0.5" transform="matrix(-0.771311 0.636458 -0.649092 -0.76071 14.9033 50.2956)" stroke="#040606"/>
<line y1="-0.5" x2="19.3227" y2="-0.5" transform="matrix(-0.771311 0.636458 -0.649092 -0.76071 14.9043 57.113)" stroke="#040606"/>
<line y1="-0.5" x2="19.3227" y2="-0.5" transform="matrix(-0.771311 0.636458 -0.649092 -0.76071 14.9043 63.9304)" stroke="#040606"/>
<line y1="-0.5" x2="19.3227" y2="-0.5" transform="matrix(-0.771311 0.636458 -0.649092 -0.76071 14.9043 70.7478)" stroke="#040606"/>
<line y1="-0.5" x2="19.3227" y2="-0.5" transform="matrix(-0.771311 0.636458 -0.649092 -0.76071 14.9043 77.5652)" stroke="#040606"/>
<line y1="-0.5" x2="19.3227" y2="-0.5" transform="matrix(-0.771311 0.636458 -0.649092 -0.76071 14.9043 84.3825)" stroke="#040606"/>
<line y1="-0.5" x2="19.3227" y2="-0.5" transform="matrix(-0.771311 0.636458 -0.649092 -0.76071 14.9043 91.2)" stroke="#040606"/>
<line y1="-0.5" x2="19.3227" y2="-0.5" transform="matrix(-0.771311 0.636458 -0.649092 -0.76071 14.9043 98.0174)" stroke="#040606"/>
<line y1="-0.5" x2="19.3227" y2="-0.5" transform="matrix(-0.771311 0.636458 -0.649092 -0.76071 14.9043 104.835)" stroke="#040606"/>
<line y1="-0.5" x2="19.3227" y2="-0.5" transform="matrix(-0.771311 0.636458 -0.649092 -0.76071 14.9043 111.652)" stroke="#040606"/>
<line y1="-0.5" x2="19.3227" y2="-0.5" transform="matrix(-0.771311 0.636458 -0.649092 -0.76071 14.9043 118.47)" stroke="#040606"/>
<line y1="-0.5" x2="19.3227" y2="-0.5" transform="matrix(-0.771311 0.636458 -0.649092 -0.76071 14.9043 125.287)" stroke="#040606"/>
<line y1="-0.5" x2="19.3227" y2="-0.5" transform="matrix(-0.771311 0.636458 -0.649092 -0.76071 14.9043 132.104)" stroke="#040606"/>
<line y1="-0.5" x2="17.0552" y2="-0.5" transform="matrix(-0.773956 0.633239 -0.633236 -0.773958 14.999 138.6)" stroke="#040606"/>
<path d="M41.1222 81.4702C41.1233 80.7162 40.6182 80.1044 39.9944 80.1044C39.9933 80.1044 39.9933 80.1044 39.9933 80.1044C39.3695 80.1044 38.8644 80.7136 38.8633 81.4676C38.8493 97.0288 44.0849 100.744 51.9496 101.534C51.982 101.537 52.0133 101.538 52.0446 101.538C52.6263 101.538 53.1206 101 53.1692 100.287C53.221 99.536 52.7591 98.8759 52.1374 98.8133C45.1523 98.1115 41.1104 95.0486 41.1222 81.4702Z" fill="#040606"/>
<path d="M142.894 119.492C142.88 119.483 142.88 119.483 142.894 119.492C142.879 119.479 142.908 119.501 142.894 119.492C142.928 119.522 142.9 119.497 142.886 119.48C142.904 119.506 142.882 119.466 142.9 119.497C142.864 119.419 142.937 119.557 142.9 119.497C142.875 119.422 142.925 119.564 142.9 119.497C142.912 119.565 142.884 119.419 142.894 119.492ZM144.167 117.201C144.145 117.182 144.124 117.162 144.102 117.143C143.969 117.025 143.831 116.918 143.684 116.835C143.545 116.757 143.389 116.695 143.21 116.644C142.632 116.479 141.802 116.434 140.451 116.377C139.939 116.355 139.396 116.329 138.844 116.295C138.688 116.284 138.534 116.275 138.378 116.263C138.178 116.248 137.977 116.23 137.776 116.21C137.587 116.192 137.398 116.17 137.208 116.147C137.017 116.124 136.826 116.1 136.637 116.072C136.287 116.019 135.938 115.962 135.604 115.888C134.73 115.693 133.024 114.84 131.521 114.088C129.985 113.319 128.536 112.594 127.617 112.36L127.083 112.225C122.195 110.987 118.662 110.092 112.877 107.208C108.812 105.181 100.447 99.3651 88.6897 90.3916C87.2726 89.3102 85.5112 88.084 83.6483 86.7847C78.0199 82.8634 70.3116 77.4928 68.4693 73.2415C66.0431 67.6453 65.1494 50.4417 65.8121 22.1083C65.8305 21.3556 65.3383 20.7269 64.7156 20.7047C64.095 20.689 63.5715 21.2787 63.5542 22.0314C62.87 51.2427 63.8241 68.4084 66.4683 74.5082C68.615 79.4613 76.0016 84.6088 82.5194 89.1497C84.3628 90.4346 86.1048 91.6478 87.4841 92.7005C95.7579 99.0155 106.73 107.096 112.015 109.732C117.994 112.713 121.801 113.677 126.619 114.896L127.153 115.032C127.865 115.213 129.285 115.923 130.656 116.609C132.419 117.492 134.085 118.325 135.194 118.572C135.263 118.588 136.507 118.69 136.577 118.704C139.148 119.107 138.626 118.984 139.148 119.131C140.484 119.102 142.908 119.501 142.894 119.492C142.886 119.48 143.58 122.539 143.146 123.906C142.428 126.168 139.385 131.347 126.745 129.632C124.878 129.379 123.038 129.781 120.906 130.246C118.712 130.726 116.224 131.272 113.1 131.215C104.289 131.062 95.9694 129.582 88.6303 128.276C82.6424 127.212 77.4791 126.295 73.4405 126.365C65.8574 126.502 59.9775 127.713 54.2897 128.884C49.421 129.887 44.3862 130.923 38.3077 131.266C30.8315 131.692 24.7605 129.265 21.2043 124.441C18.2363 120.416 17.1106 115.001 17.9502 108.782C18.9173 101.631 20.2998 96.6792 21.5205 92.3092C22.8815 87.4356 24.0579 83.2261 24.4087 77.3076C25.0379 66.65 23.8787 55.3466 22.6505 43.378C21.9317 36.382 21.1892 29.1473 20.8255 21.9857C20.7877 21.2343 20.2534 20.659 19.6285 20.7073C19.0058 20.7543 18.532 21.4013 18.5698 22.154C18.9389 29.4004 19.6857 36.6768 20.4078 43.7145C21.622 55.5462 22.7692 66.7217 22.1551 77.1132C21.8249 82.6834 20.6916 86.7403 19.3803 91.4352C18.1316 95.9043 16.7166 100.97 15.7204 108.343C14.7804 115.299 16.1295 121.663 19.5174 126.257C23.2452 131.313 29.2913 134.044 36.6661 134.044C37.2403 134.044 37.8231 134.028 38.4124 133.994C44.6301 133.643 49.733 132.593 54.6696 131.575C60.2721 130.422 66.0657 129.229 73.475 129.096C77.3227 129.024 82.4093 129.931 88.3011 130.978C95.7093 132.296 104.107 133.788 113.067 133.946C116.399 133.999 119.013 133.434 121.309 132.933C123.266 132.506 124.956 132.136 126.493 132.345C141.41 134.37 144.716 127.324 145.445 124.201C146.096 121.414 145.521 118.468 144.167 117.201Z" fill="#040606"/>
</svg>
