<svg width="120" height="26" viewBox="0 0 120 26" fill="none" xmlns="http://www.w3.org/2000/svg">
    <path d="M15.0281 17.5969L7.33928 0.0361652H0L11.3155 25.8585H18.7409L30.0563 0.0361652H22.717L15.0281 17.5969Z" fill="#040606"/>
    <path d="M32.3574 5.86617H44.9833L32.3574 20.0269V25.8585H53.5453V20.0269H40.8763L53.5453 5.86617V0.0361652H32.3574V5.86617Z" fill="#040606"/>
    <path d="M73.6547 15.4464C73.6547 16.0695 73.5152 16.6597 73.2397 17.2155C72.9624 17.7712 72.5836 18.2562 72.1031 18.6738C71.6227 19.0897 71.0699 19.4202 70.4431 19.6619C69.8163 19.9052 69.1395 20.0269 68.4111 20.0269C67.6827 20.0269 66.999 19.9052 66.3584 19.6619C65.7178 19.4202 65.1565 19.0897 64.676 18.6738C64.1956 18.2562 63.8167 17.7712 63.5412 17.2155C63.2639 16.6597 63.1245 16.0695 63.1245 15.4464V-3.8147e-06H55.7852V15.55C55.8144 16.9146 56.1416 18.2101 56.7684 19.4366C57.3953 20.6631 58.2752 21.763 59.4118 22.7347C60.6344 23.7524 62.012 24.5268 63.5412 25.0595C65.0686 25.5922 66.6787 25.8585 68.368 25.8585H68.4111C70.1297 25.8585 71.7536 25.5922 73.2827 25.0595C74.8119 24.5268 76.1723 23.7524 77.3674 22.7347C78.5315 21.763 79.4218 20.6631 80.0331 19.4366C80.6444 18.2101 80.9647 16.9146 80.994 15.55V-3.8147e-06H73.6547V15.4464Z" fill="#040606"/>
    <path d="M83.1777 5.86617H90.5618V25.8585H97.9011V5.86617H105.283V0.0361652H83.1777V5.86617Z" fill="#040606"/>
    <path d="M114.943 0.0362091H107.604V18.8481H114.943V0.0362091Z" fill="#040606"/>
    <path d="M114.38 20.4922H107.604V25.8585H120C120 22.8942 117.485 20.4922 114.38 20.4922Z" fill="#040606"/>
</svg>
