<svg width="30" height="30" viewBox="0 0 30 30" fill="none" xmlns="http://www.w3.org/2000/svg">
    <path d="M1.4873 10.3126L18.7504 27.5757L27.5761 18.7501L10.3129 1.48694L1.4873 10.3126ZM18.7504 24.9244L4.13855 10.3126L10.3129 4.13819L11.3311 5.15631L9.65012 6.83725L10.9757 8.16287L12.6567 6.48193L14.1436 7.96881L10.5876 11.5247L11.9132 12.8504L15.4692 9.29443L16.9561 10.7813L15.2751 12.4622L16.6007 13.7879L18.2817 12.1069L19.7686 13.5938L18.0876 15.2747L19.4132 16.6004L21.0942 14.9194L22.5811 16.4063L19.0251 19.9622L20.3507 21.2879L23.9067 17.7319L24.9248 18.7501L18.7504 24.9244Z" fill="#A4A6A6"/>
</svg>
