<svg width="32" height="32" viewBox="0 0 32 32" fill="none" xmlns="http://www.w3.org/2000/svg">
    <g clip-path="url(#clip0_1783_6)">
        <path d="M17.3333 5.33334C16.5969 5.33334 16 5.9303 16 6.66668C16 7.40305 16.5969 8.00001 17.3333 8.00001C19.0304 8.00001 20.3409 8.55986 21.2239 9.44282C22.1068 10.3258 22.6667 11.6363 22.6667 13.3333C22.6667 14.0697 23.2636 14.6667 24 14.6667C24.7364 14.6667 25.3333 14.0697 25.3333 13.3333C25.3333 11.0303 24.5599 9.00757 23.1095 7.5572C21.6591 6.10682 19.6363 5.33334 17.3333 5.33334Z" fill="#F26B30"/>
        <path d="M6.68468 10.6748C6.83704 9.46987 8.40304 7.83219 9.64586 8.01391L9.64387 8.01192C10.6827 8.20932 11.5356 9.77287 12.0977 10.8033C12.19 10.9726 12.2745 11.1275 12.3507 11.2595C12.7332 11.9387 12.4848 12.6268 12.1281 12.9172C12.0868 12.9504 12.0436 12.9847 11.9991 13.0201C11.5244 13.3969 10.9075 13.8865 11.0519 14.3779C11.3327 15.3333 14.666 18.6667 16.3055 19.6143C16.8075 19.9044 17.1977 19.3409 17.532 18.8584C17.6109 18.7444 17.6868 18.6349 17.7603 18.5423C18.0395 18.1695 18.7281 17.9467 19.4057 18.3147C20.4177 18.904 21.3711 19.5889 22.2527 20.36C22.6929 20.728 22.7963 21.2719 22.4912 21.8467C21.9539 22.8591 20.3997 24.1941 19.2716 23.9228C17.3012 23.4491 9.33268 20.36 6.77312 11.4107C6.6391 11.0165 6.66128 10.8506 6.68052 10.7065L6.68468 10.6748Z" fill="#F26B30"/>
        <path d="M17.3333 9.33334C16.5969 9.33334 16 9.9303 16 10.6667C16 11.4031 16.5969 12 17.3333 12C17.5664 12 17.9109 12.1299 18.2239 12.4428C18.5367 12.7557 18.6667 13.1003 18.6667 13.3333C18.6667 14.0697 19.2636 14.6667 20 14.6667C20.7364 14.6667 21.3333 14.0697 21.3333 13.3333C21.3333 12.233 20.7967 11.2443 20.1095 10.5572C19.4224 9.87008 18.4336 9.33334 17.3333 9.33334Z" fill="#F26B30"/>
        <path fill-rule="evenodd" clip-rule="evenodd" d="M10.0224 31.7749C10.0603 31.7959 10.0993 31.8149 10.1391 31.832C10.8627 32.1432 11.7559 31.4484 13.5424 30.0589L15.3325 28.6667C18.9171 28.7853 22.0179 28.3149 24.4152 27.4761C27.0961 26.538 29.204 24.4301 30.1421 21.7492C31.4349 18.0547 31.4349 11.2784 30.1421 7.58392C29.204 4.90296 27.0961 2.79507 24.4152 1.85695C20.1463 0.363211 11.7725 0.391076 7.58327 1.85695C4.90229 2.79507 2.79441 4.90296 1.85629 7.58392C0.563527 11.2784 0.563527 18.0547 1.85629 21.7492C2.79441 24.4301 4.90229 26.538 7.58327 27.4761C8.10921 27.6601 8.69747 27.862 9.33252 28C9.33252 30.2632 9.33252 31.3948 10.0224 31.7749ZM11.9992 27.8809V26.3879C11.9992 26.0743 11.7805 25.8032 11.4738 25.7376C10.4579 25.5204 9.4482 25.3035 8.46401 24.9591C6.54903 24.2891 5.0434 22.7833 4.37332 20.8684C3.86413 19.4132 3.55339 17.1271 3.55339 14.6665C3.55339 12.206 3.86413 9.91983 4.37332 8.46467C5.0434 6.54969 6.54903 5.04405 8.46401 4.37397C10.1542 3.78256 12.9554 3.41709 15.9723 3.41376C18.9888 3.41043 21.8073 3.76964 23.5344 4.37397C25.4493 5.04405 26.9551 6.54969 27.6251 8.46467C28.1343 9.91983 28.4451 12.206 28.4451 14.6665C28.4451 17.1271 28.1343 19.4132 27.6251 20.8684C26.9551 22.7833 25.4493 24.2891 23.5344 24.9591C20.6921 25.9536 17.6779 26.0653 14.6977 25.9771C14.542 25.9725 14.3893 26.022 14.2664 26.1176L11.9992 27.8809Z" fill="#F26B30"/>
    </g>
    <defs>
        <clipPath id="clip0_1783_6">
            <rect width="32" height="32" fill="white"/>
        </clipPath>
    </defs>
</svg>
