<svg width="200" height="44" viewBox="0 0 200 44" fill="none" xmlns="http://www.w3.org/2000/svg">
<path d="M25.0469 29.3281L12.2321 0.0603065H0L18.8592 43.0975H31.2347L50.0938 0.0603065H37.8617L25.0469 29.3281Z" fill="#F4F6F6"/>
<path d="M53.9297 9.77698H74.9729L53.9297 33.3782V43.0975H89.2428V33.3782H68.1278L89.2428 9.77698V0.0603065H53.9297V9.77698Z" fill="#F4F6F6"/>
<path d="M122.755 25.744C122.755 26.7826 122.523 27.7662 122.063 28.6924C121.601 29.6187 120.97 30.427 120.169 31.123C119.369 31.8162 118.447 32.3669 117.403 32.7699C116.358 33.1753 115.23 33.3782 114.016 33.3782C112.802 33.3782 111.662 33.1753 110.595 32.7699C109.527 32.3669 108.591 31.8162 107.791 31.123C106.99 30.427 106.359 29.6187 105.899 28.6924C105.437 27.7662 105.205 26.7826 105.205 25.744V1.90735e-05H92.9727V25.9166C93.0214 28.191 93.5668 30.3503 94.6115 32.3943C95.6562 34.4386 97.1228 36.2717 99.017 37.8912C101.055 39.5873 103.351 40.878 105.899 41.7658C108.445 42.6536 111.129 43.0975 113.944 43.0975H114.016C116.88 43.0975 119.587 42.6536 122.135 41.7658C124.684 40.878 126.951 39.5873 128.943 37.8912C130.883 36.2717 132.367 34.4386 133.386 32.3943C134.405 30.3503 134.939 28.191 134.987 25.9166V1.90735e-05H122.755V25.744Z" fill="#F4F6F6"/>
<path d="M138.629 9.77697H150.936V43.0975H163.168V9.77697H175.472V0.0603065H138.629V9.77697Z" fill="#F4F6F6"/>
<path d="M191.57 0.0604172H179.338V31.4136H191.57V0.0604172Z" fill="#F4F6F6"/>
<path d="M190.632 34.1536H179.338V43.0975H199.999C199.999 38.157 195.806 34.1536 190.632 34.1536Z" fill="#F4F6F6"/>
</svg>
