<?xml version="1.0" encoding="utf-8"?>
<!-- Generator: Adobe Illustrator 23.0.5, SVG Export Plug-In . SVG Version: 6.00 Build 0)  -->
<svg version="1.1" id="Capa_1" xmlns="http://www.w3.org/2000/svg" xmlns:xlink="http://www.w3.org/1999/xlink" x="0px" y="0px"
	 viewBox="0 0 256.52 208.06" style="enable-background:new 0 0 256.52 208.06;" xml:space="preserve">
<g>
	<path d="M32.11,200.47c-4.42-0.98-9.42,0.92-13.79,1.48c-1.1,0.03-1.27,1.79,0.05,1.97c4.39,0.1,9.65-0.27,13.79-1.48
		C33.03,201.98,32.99,200.66,32.11,200.47z"/>
	<path d="M160.79,138.98c-4.32,1.36-7.7,5.5-11.21,8.17c-0.94,0.57-0.2,2.19,1.03,1.68c3.86-2.11,8.23-5.05,11.21-8.17
		C162.35,139.83,161.66,138.71,160.79,138.98z"/>
	<path d="M88.36,184.04c2.16-0.06,4.46-1.01,6.34-2.13c2.01-0.83,3.98-2.15,5.67-3.36c0.66-0.44,0.1-1.38-0.56-0.94
		c-1.89,1.12-3.9,1.95-5.82,2.58c-2.01,0.83-4.25,1.09-6.26,1.92C86.67,182.38,87.18,184.02,88.36,184.04z"/>
	<path d="M210.13,89.76c1.78-1.22,3.19-3.27,4.17-5.23c1.23-1.79,2.17-3.97,2.93-5.9c0.31-0.73-0.67-1.22-0.98-0.49
		c-0.98,1.97-2.21,3.75-3.48,5.33c-1.23,1.79-2.98,3.23-4.21,5.01C207.81,89.3,209.13,90.39,210.13,89.76z"/>
	<path d="M165.74,138.5c2.05-0.68,3.97-2.25,5.46-3.87c1.68-1.38,3.19-3.21,4.45-4.85c0.5-0.61-0.31-1.35-0.81-0.74
		c-1.48,1.62-3.16,3-4.82,4.16c-1.68,1.38-3.75,2.28-5.43,3.65C163.64,137.41,164.61,138.83,165.74,138.5z"/>
	<path d="M235.68,44.1c1.4-1.65,2.22-3.99,2.65-6.14c0.72-2.05,1.05-4.4,1.28-6.46c0.11-0.78-0.97-1-1.08-0.21
		c-0.43,2.15-1.15,4.2-1.96,6.06c-0.72,2.05-2.02,3.9-2.74,5.95C233.32,44.26,234.88,44.97,235.68,44.1z"/>
	<path d="M11.99,203.98c-1.97,0.46-4.07,1.09-5.91,1.38c-0.92,0.14-2.02,0.15-2.99-0.01c-0.97-0.17-1.32-0.43-2.37-0.11
		c-0.74,0.27-0.91,1.24-0.51,1.81c1.33,1.52,3.92,0.97,5.76,0.69c2.28-0.51,4.33-1.45,6.52-2.57
		C13.05,204.76,12.74,203.71,11.99,203.98z"/>
	<path d="M63.69,192.38c-3.24,1.86-6.54,1.52-10.03,2.29c-0.87,0.25-0.83,1.56,0.05,1.76c3.75,0.54,7.67-0.68,10.67-2.96
		C65.03,193,64.56,192.13,63.69,192.38z"/>
	<path d="M70.89,191.32c4.38-0.58,8.5-3.1,12.01-5.84c0.91-0.61-0.26-1.95-0.96-1.26c-3.57,2.25-7.54,3.66-11.38,5.36
		C69.45,190.13,69.92,191.45,70.89,191.32z"/>
	<path d="M188.63,117.82c3.8-2.25,6.6-6.19,8.75-10.08c0.6-0.92-1-1.69-1.38-0.78c-2.4,3.47-5.49,6.33-8.36,9.39
		C186.83,117.29,187.79,118.32,188.63,117.82z"/>
	<path d="M227.89,60.13c2.99-3.25,4.54-7.83,5.47-12.18c0.3-1.05-1.44-1.33-1.54-0.35c-1.29,4.01-3.43,7.65-5.29,11.41
		C226.02,60.14,227.23,60.85,227.89,60.13z"/>
	<path d="M219.77,74.69c3.28-2.96,5.25-7.38,6.58-11.62c0.4-1.02-1.31-1.46-1.5-0.49c-1.66,3.88-4.13,7.29-6.33,10.86
		C217.9,74.53,219.04,75.35,219.77,74.69z"/>
	<path d="M136.25,159.83c4.12-1.6,7.52-5.04,10.27-8.53c0.74-0.81-0.71-1.83-1.23-1c-2.93,3.04-6.45,5.36-9.77,7.92
		C134.56,159.01,135.34,160.19,136.25,159.83z"/>
	<path d="M200.24,104.53c3.5-2.69,5.81-6.94,7.46-11.07c0.48-0.99-1.2-1.56-1.46-0.61c-1.96,3.73-4.69,6.95-7.16,10.34
		C198.39,104.22,199.46,105.13,200.24,104.53z"/>
	<path d="M120.16,169.32c4.2-1.37,7.79-4.62,10.72-7.95c0.78-0.77-0.61-1.87-1.17-1.06c-3.09,2.87-6.73,4.99-10.19,7.37
		C118.52,168.41,119.23,169.62,120.16,169.32z"/>
	<path d="M47.39,195.94c-2.93,0.1-6.15,1.64-9.06,2.65c-1.06,0.28-0.66,1.77,0.4,1.48c3.03-0.58,6.38-0.79,9.18-2.22
		C48.9,197.35,48.51,195.87,47.39,195.94z"/>
	<path d="M184.51,119.24c-2.49,1.54-4.53,4.47-6.56,6.79c-0.78,0.77,0.3,1.86,1.08,1.09c2.34-2,5.15-3.85,6.87-6.48
		C186.52,119.72,185.44,118.63,184.51,119.24z"/>
	<path d="M113.65,170c-2.82,0.78-5.6,3.03-8.2,4.69c-0.97,0.52-0.23,1.87,0.73,1.35c2.81-1.27,6.02-2.26,8.41-4.3
		C115.45,171.02,114.72,169.67,113.65,170z"/>
	<path d="M242.73,18.08c-0.9,1.32-1.17,2.85-1.64,4.31c-0.27,1.53-0.82,3.2-1.3,4.66c-0.34,1.04,1.33,1.59,1.67,0.55
		c0.69-1.39,1.23-3.06,1.71-4.52c0.48-1.46,1.17-2.85,1.23-4.45C244.26,17.66,243.01,17.25,242.73,18.08z"/>
	<path d="M246.12,0.71c-2.82,5.08-7.66,8.58-11.04,13.24c-0.9,1.32,1.12,2.91,2.16,1.86c3.39-3.28,7.05-6.7,10.08-10.32
		c1.33,2.98,2.67,5.96,3.58,8.8c0.64,2.29,0.93,5.62,2.61,7.55c0.84,0.97,2.36,0.54,2.7-0.5c1.1-2.64-1.01-6.8-1.99-9.43
		c-1.34-3.67-2.95-7.2-4.77-10.81C248.68-0.07,246.74-0.47,246.12,0.71z"/>
</g>
</svg>
