<?xml version="1.0" encoding="utf-8"?>
<!-- Generator: Adobe Illustrator 21.1.0, SVG Export Plug-In . SVG Version: 6.00 Build 0)  -->
<svg version="1.1" id="Layer_1" xmlns="http://www.w3.org/2000/svg" xmlns:xlink="http://www.w3.org/1999/xlink" x="0px" y="0px"
	 viewBox="0 0 443.1 512" style="enable-background:new 0 0 443.1 512;" xml:space="preserve">
<style type="text/css">
	.st0{fill:#E2E5E7;}
	.st1{fill:#B0B7BD;}
	.st2{fill:#CAD1D8;}
	.st3{fill:#F7B84E;}
	.st4{fill:#FFFFFF;}
</style>
<g>
	<path class="st0" d="M59.1,0c-17.6,0-32,14.4-32,32v448c0,17.6,14.4,32,32,32h320c17.6,0,32-14.4,32-32V128L283.1,0H59.1z"/>
	<path class="st1" d="M315.1,128h96L283.1,0v96C283.1,113.6,297.5,128,315.1,128z"/>
	<polygon class="st2" points="411.1,224 315.1,128 411.1,128 	"/>
	<path class="st2" d="M424.6,409.5H73.8V428h350.8c10.2,0,18.5-8.3,18.5-18.5v-18.5C443.1,401.2,434.8,409.5,424.6,409.5z"/>
	<path class="st2" d="M377.8,409.5H27.1V428h350.8c10.2,0,18.5-8.3,18.5-18.5v-18.5C396.3,401.2,388,409.5,377.8,409.5z"/>
	<path class="st3" d="M443.1,391.1c0,10.2-8.3,18.5-18.5,18.5H18.5C8.3,409.5,0,401.2,0,391.1V206.5C0,196.3,8.3,188,18.5,188h406.2
		c10.2,0,18.5,8.3,18.5,18.5V391.1z"/>
	<g>
		<path class="st4" d="M156.5,329.9c-5.9,5.2-12.7,8.2-20,8.2c-19.8,0-29.2-14.6-29.2-30.4c0-15.6,9.5-29.6,29.2-29.6
			c7.3,0,12.7,1.5,17.9,7c3.1,3.1,8.3,3.4,11.8,0.4c3.5-3.6,3.1-9.2-0.4-12.4c-9.3-8.1-18.2-11.4-29.3-11.4
			c-29.4,0-44.9,21.2-44.9,45.9s14,45.8,44.9,45.8c10.6,0,21.4-1.7,30.3-10c4.5-4.5,3.5-9.2,1.4-12
			C166,328.3,160.5,326.8,156.5,329.9z"/>
		<path class="st4" d="M203.2,284.4c2.7-13.3,24.2-10.5,33.6-4.5c7.7,5.6,16.9-5.5,8.2-12.5c-17.7-13.6-55.1-9.1-58.1,15.7
			c-4,36.3,49.2,25,50.9,43.9c-1.9,18.2-28.9,12.8-39.4,5.6c-4.4-3.6-8.1-2.4-11.4,0.9c-2.3,3.5-2.4,9.1,1.8,12.5
			c17.7,14.6,64.7,13.8,65.6-18.7C255.3,293.4,199.7,305.4,203.2,284.4z"/>
		<path class="st4" d="M335.1,267.3L323.7,293l-14.4,33.8L294.5,293l-11.4-25.7c-5.6-10.6-20.7-2.3-15.7,7.8l33.8,70.8
			c4.9,10,13.9,8.1,16.9,0l32.6-71.5C355,263.8,340.2,257.6,335.1,267.3z"/>
	</g>
</g>
</svg>
