<?xml version="1.0" encoding="utf-8"?>
<!-- Generator: Adobe Illustrator 23.0.5, SVG Export Plug-In . SVG Version: 6.00 Build 0)  -->
<svg version="1.1" id="Слой_1" xmlns="http://www.w3.org/2000/svg" xmlns:xlink="http://www.w3.org/1999/xlink" x="0px" y="0px"
	 viewBox="0 0 208.21 201.62" style="enable-background:new 0 0 208.21 201.62;" xml:space="preserve">
<style type="text/css">
	.st0{fill:#BBCEFF;}
	.st1{fill:#F0F4FF;}
	.st2{fill:#E4ECFF;}
	.st3{fill:#F7F7F7;}
	.st4{fill:#3C73FF;}
	.st5{fill:none;stroke:#3C73FF;stroke-width:5;stroke-linecap:round;stroke-linejoin:round;stroke-miterlimit:10;}
</style>
<g>
	<g>
		<path class="st0" d="M89.79,1v2.5c0,0.55-0.45,1-1,1s-1-0.45-1-1V2h-1.5c-0.55,0-1-0.45-1-1s0.45-1,1-1h2.5
			C89.35,0,89.79,0.45,89.79,1z"/>
		<path class="st0" d="M89.79,9.07v5.57c0,0.55-0.45,1-1,1s-1-0.45-1-1V9.07c0-0.55,0.45-1,1-1S89.79,8.52,89.79,9.07z M89.79,20.21
			v5.57c0,0.55-0.45,1-1,1s-1-0.45-1-1v-5.57c0-0.55,0.45-1,1-1S89.79,19.66,89.79,20.21z M89.79,31.36v5.57c0,0.55-0.45,1-1,1
			s-1-0.45-1-1v-5.57c0-0.55,0.45-1,1-1S89.79,30.8,89.79,31.36z"/>
		<path class="st0" d="M89.79,42.5V45c0,0.55-0.45,1-1,1h-2.5c-0.55,0-1-0.45-1-1s0.45-1,1-1h1.5v-1.5c0-0.55,0.45-1,1-1
			S89.79,41.95,89.79,42.5z"/>
		<path class="st0" d="M82.22,45c0,0.55-0.45,1-1,1h-5.08c-0.55,0-1-0.45-1-1s0.45-1,1-1h5.08C81.77,44,82.22,44.45,82.22,45z
			 M72.06,45c0,0.55-0.45,1-1,1h-5.08c-0.55,0-1-0.45-1-1s0.45-1,1-1h5.08C71.61,44,72.06,44.45,72.06,45z M61.91,45
			c0,0.55-0.45,1-1,1h-5.08c-0.55,0-1-0.45-1-1s0.45-1,1-1h5.08C61.46,44,61.91,44.45,61.91,45z M51.75,45c0,0.55-0.45,1-1,1h-5.08
			c-0.55,0-1-0.45-1-1s0.45-1,1-1h5.08C51.31,44,51.75,44.45,51.75,45z M41.6,45c0,0.55-0.45,1-1,1h-5.08c-0.55,0-1-0.45-1-1
			s0.45-1,1-1h5.08C41.15,44,41.6,44.45,41.6,45z M31.45,45c0,0.55-0.45,1-1,1h-5.08c-0.55,0-1-0.45-1-1s0.45-1,1-1h5.08
			C31,44,31.45,44.45,31.45,45z"/>
		<path class="st0" d="M21.29,45c0,0.55-0.45,1-1,1h-2.5c-0.55,0-1-0.45-1-1v-2.5c0-0.55,0.45-1,1-1s1,0.45,1,1V44h1.5
			C20.85,44,21.29,44.45,21.29,45z"/>
		<path class="st0" d="M18.79,9.07v5.57c0,0.55-0.45,1-1,1s-1-0.45-1-1V9.07c0-0.55,0.45-1,1-1S18.79,8.52,18.79,9.07z M18.79,20.21
			v5.57c0,0.55-0.45,1-1,1s-1-0.45-1-1v-5.57c0-0.55,0.45-1,1-1S18.79,19.66,18.79,20.21z M18.79,31.36v5.57c0,0.55-0.45,1-1,1
			s-1-0.45-1-1v-5.57c0-0.55,0.45-1,1-1S18.79,30.8,18.79,31.36z"/>
		<path class="st0" d="M21.29,1c0,0.55-0.45,1-1,1h-1.5v1.5c0,0.55-0.45,1-1,1s-1-0.45-1-1V1c0-0.55,0.45-1,1-1h2.5
			C20.85,0,21.29,0.45,21.29,1z"/>
		<path class="st0" d="M82.22,1c0,0.55-0.45,1-1,1h-5.08c-0.55,0-1-0.45-1-1s0.45-1,1-1h5.08C81.77,0,82.22,0.45,82.22,1z M72.06,1
			c0,0.55-0.45,1-1,1h-5.08c-0.55,0-1-0.45-1-1s0.45-1,1-1h5.08C71.62,0,72.06,0.45,72.06,1z M61.91,1c0,0.55-0.45,1-1,1h-5.08
			c-0.55,0-1-0.45-1-1s0.45-1,1-1h5.08C61.46,0,61.91,0.45,61.91,1z M51.75,1c0,0.55-0.45,1-1,1h-5.08c-0.55,0-1-0.45-1-1
			s0.45-1,1-1h5.08C51.31,0,51.75,0.45,51.75,1z M41.6,1c0,0.55-0.45,1-1,1h-5.08c-0.55,0-1-0.45-1-1s0.45-1,1-1h5.08
			C41.15,0,41.6,0.45,41.6,1z M31.45,1c0,0.55-0.45,1-1,1h-5.08c-0.55,0-1-0.45-1-1s0.45-1,1-1h5.08C31,0,31.45,0.45,31.45,1z"/>
	</g>
	<path class="st0" d="M46.79,18.5h-16c-1.38,0-2.5-1.12-2.5-2.5v0c0-1.38,1.12-2.5,2.5-2.5h16c1.38,0,2.5,1.12,2.5,2.5v0
		C49.29,17.38,48.17,18.5,46.79,18.5z"/>
	<path class="st0" d="M46.79,29.5h-16c-1.38,0-2.5-1.12-2.5-2.5v0c0-1.38,1.12-2.5,2.5-2.5h16c1.38,0,2.5,1.12,2.5,2.5v0
		C49.29,28.38,48.17,29.5,46.79,29.5z"/>
	<path class="st0" d="M61.79,18.5h-7c-1.38,0-2.5-1.12-2.5-2.5v0c0-1.38,1.12-2.5,2.5-2.5h7c1.38,0,2.5,1.12,2.5,2.5v0
		C64.29,17.38,63.17,18.5,61.79,18.5z"/>
	<g>
		<path class="st0" d="M175.79,1v2.5c0,0.55-0.45,1-1,1s-1-0.45-1-1V2h-1.5c-0.55,0-1-0.45-1-1s0.45-1,1-1h2.5
			C175.35,0,175.79,0.45,175.79,1z"/>
		<path class="st0" d="M175.79,9.07v5.57c0,0.55-0.45,1-1,1s-1-0.45-1-1V9.07c0-0.55,0.45-1,1-1S175.79,8.52,175.79,9.07z
			 M175.79,20.21v5.57c0,0.55-0.45,1-1,1s-1-0.45-1-1v-5.57c0-0.55,0.45-1,1-1S175.79,19.66,175.79,20.21z M175.79,31.36v5.57
			c0,0.55-0.45,1-1,1s-1-0.45-1-1v-5.57c0-0.55,0.45-1,1-1S175.79,30.8,175.79,31.36z"/>
		<path class="st0" d="M175.79,42.5V45c0,0.55-0.45,1-1,1h-2.5c-0.55,0-1-0.45-1-1s0.45-1,1-1h1.5v-1.5c0-0.55,0.45-1,1-1
			S175.79,41.95,175.79,42.5z"/>
		<path class="st0" d="M168.22,45c0,0.55-0.45,1-1,1h-5.08c-0.55,0-1-0.45-1-1s0.45-1,1-1h5.08C167.77,44,168.22,44.45,168.22,45z
			 M158.06,45c0,0.55-0.45,1-1,1h-5.08c-0.55,0-1-0.45-1-1s0.45-1,1-1h5.08C157.61,44,158.06,44.45,158.06,45z M147.91,45
			c0,0.55-0.45,1-1,1h-5.08c-0.55,0-1-0.45-1-1s0.45-1,1-1h5.08C147.46,44,147.91,44.45,147.91,45z M137.75,45c0,0.55-0.45,1-1,1
			h-5.08c-0.55,0-1-0.45-1-1s0.45-1,1-1h5.08C137.31,44,137.75,44.45,137.75,45z M127.6,45c0,0.55-0.45,1-1,1h-5.08
			c-0.55,0-1-0.45-1-1s0.45-1,1-1h5.08C127.15,44,127.6,44.45,127.6,45z M117.45,45c0,0.55-0.45,1-1,1h-5.08c-0.55,0-1-0.45-1-1
			s0.45-1,1-1h5.08C117,44,117.45,44.45,117.45,45z"/>
		<path class="st0" d="M107.29,45c0,0.55-0.45,1-1,1h-2.5c-0.55,0-1-0.45-1-1v-2.5c0-0.55,0.45-1,1-1s1,0.45,1,1V44h1.5
			C106.85,44,107.29,44.45,107.29,45z"/>
		<path class="st0" d="M104.79,9.07v5.57c0,0.55-0.45,1-1,1s-1-0.45-1-1V9.07c0-0.55,0.45-1,1-1S104.79,8.52,104.79,9.07z
			 M104.79,20.21v5.57c0,0.55-0.45,1-1,1s-1-0.45-1-1v-5.57c0-0.55,0.45-1,1-1S104.79,19.66,104.79,20.21z M104.79,31.36v5.57
			c0,0.55-0.45,1-1,1s-1-0.45-1-1v-5.57c0-0.55,0.45-1,1-1S104.79,30.8,104.79,31.36z"/>
		<path class="st0" d="M107.29,1c0,0.55-0.45,1-1,1h-1.5v1.5c0,0.55-0.45,1-1,1s-1-0.45-1-1V1c0-0.55,0.45-1,1-1h2.5
			C106.85,0,107.29,0.45,107.29,1z"/>
		<path class="st0" d="M168.22,1c0,0.55-0.45,1-1,1h-5.08c-0.55,0-1-0.45-1-1s0.45-1,1-1h5.08C167.77,0,168.22,0.45,168.22,1z
			 M158.06,1c0,0.55-0.45,1-1,1h-5.08c-0.55,0-1-0.45-1-1s0.45-1,1-1h5.08C157.62,0,158.06,0.45,158.06,1z M147.91,1
			c0,0.55-0.45,1-1,1h-5.08c-0.55,0-1-0.45-1-1s0.45-1,1-1h5.08C147.46,0,147.91,0.45,147.91,1z M137.75,1c0,0.55-0.45,1-1,1h-5.08
			c-0.55,0-1-0.45-1-1s0.45-1,1-1h5.08C137.31,0,137.75,0.45,137.75,1z M127.6,1c0,0.55-0.45,1-1,1h-5.08c-0.55,0-1-0.45-1-1
			s0.45-1,1-1h5.08C127.15,0,127.6,0.45,127.6,1z M117.45,1c0,0.55-0.45,1-1,1h-5.08c-0.55,0-1-0.45-1-1s0.45-1,1-1h5.08
			C117,0,117.45,0.45,117.45,1z"/>
	</g>
	<path class="st0" d="M132.79,18.5h-16c-1.38,0-2.5-1.12-2.5-2.5v0c0-1.38,1.12-2.5,2.5-2.5h16c1.38,0,2.5,1.12,2.5,2.5v0
		C135.29,17.38,134.17,18.5,132.79,18.5z"/>
	<path class="st0" d="M132.79,29.5h-16c-1.38,0-2.5-1.12-2.5-2.5v0c0-1.38,1.12-2.5,2.5-2.5h16c1.38,0,2.5,1.12,2.5,2.5v0
		C135.29,28.38,134.17,29.5,132.79,29.5z"/>
	<path class="st0" d="M147.79,18.5h-7c-1.38,0-2.5-1.12-2.5-2.5v0c0-1.38,1.12-2.5,2.5-2.5h7c1.38,0,2.5,1.12,2.5,2.5v0
		C150.29,17.38,149.17,18.5,147.79,18.5z"/>
	<g>
		<path class="st1" d="M59.86,191.37c25.21-0.04,27.68-19.72,60.94-28.3c33.37-8.61,46.97,7.06,66.42-6.16
			c14.18-9.64,24.77-30.07,19.71-48.8c-4.74-17.53-21.76-28.3-35.91-31.49c-24.27-5.47-32.12,13.19-58.64,9.84
			c-24.55-3.1-26.97-20.24-50.65-20.97c-24.09-0.74-41.37,16.4-43.47,18.55c-18.28,18.68-24.51,49.82-10.91,74.81
			C18.07,178.56,39.47,191.4,59.86,191.37z"/>
		<path class="st2" d="M150.05,171.36c-1.87,3.1,0.28,7.58,3.13,9.71c0.22,0.17,4.61,3.32,8.55,0.95c2.09-1.26,3.55-3.77,3.29-6.42
			c-0.35-3.53-3.55-5.23-4.29-5.62C157.51,168.26,152.06,168.04,150.05,171.36z"/>
		<path class="st2" d="M109.95,175.43c-4.88,3.42-6.44,9.63-5.6,14.58c0.2,1.17,1.03,5.69,4.88,8.73c6.24,4.93,17.1,3.33,22.24-3.25
			c2.89-3.7,4.71-9.91,2.01-14.87c-2.27-4.18-6.7-5.52-9.24-6.29C121.65,173.55,115.36,171.64,109.95,175.43z"/>
	</g>
	<g>
		<circle class="st3" cx="15.79" cy="97" r="2.5"/>
		<path class="st4" d="M15.79,92.5c-2.48,0-4.5,2.02-4.5,4.5s2.02,4.5,4.5,4.5s4.5-2.02,4.5-4.5S18.27,92.5,15.79,92.5z M15.79,99.5
			c-1.38,0-2.5-1.12-2.5-2.5s1.12-2.5,2.5-2.5s2.5,1.12,2.5,2.5S17.17,99.5,15.79,99.5z"/>
	</g>
	<g>
		<circle class="st3" cx="146.79" cy="75" r="2.5"/>
		<path class="st4" d="M146.79,70.5c-2.48,0-4.5,2.02-4.5,4.5s2.02,4.5,4.5,4.5s4.5-2.02,4.5-4.5S149.27,70.5,146.79,70.5z
			 M146.79,77.5c-1.38,0-2.5-1.12-2.5-2.5s1.12-2.5,2.5-2.5s2.5,1.12,2.5,2.5S148.17,77.5,146.79,77.5z"/>
	</g>
	<polygon class="st4" points="42.29,62.5 38.29,62.5 38.29,58.5 36.29,58.5 36.29,62.5 32.29,62.5 32.29,64.5 36.29,64.5 
		36.29,68.5 38.29,68.5 38.29,64.5 42.29,64.5 	"/>
	<polygon class="st4" points="184.29,92.3 181.49,92.3 181.49,89.5 180.09,89.5 180.09,92.3 177.29,92.3 177.29,93.7 180.09,93.7 
		180.09,96.5 181.49,96.5 181.49,93.7 184.29,93.7 	"/>
	<polygon class="st4" points="49.29,196.3 46.49,196.3 46.49,193.5 45.09,193.5 45.09,196.3 42.29,196.3 42.29,197.7 45.09,197.7 
		45.09,200.5 46.49,200.5 46.49,197.7 49.29,197.7 	"/>
	<line class="st5" x1="125.79" y1="93" x2="158.79" y2="93"/>
	<line class="st5" x1="142.79" y1="109" x2="158.79" y2="93"/>
	<line class="st5" x1="109.79" y1="109" x2="125.79" y2="93"/>
	<line class="st5" x1="68.79" y1="93" x2="40.79" y2="93"/>
	<line class="st5" x1="55.79" y1="108" x2="40.79" y2="93"/>
	<line class="st5" x1="83.79" y1="109" x2="68.79" y2="93"/>
	<line class="st5" x1="83.79" y1="109" x2="142.79" y2="109"/>
	<line class="st5" x1="56.79" y1="109" x2="68.79" y2="109"/>
	<line class="st5" x1="152.79" y1="150" x2="174.79" y2="150"/>
	<line class="st5" x1="27.79" y1="150" x2="47.79" y2="150"/>
	<line class="st5" x1="13.79" y1="150" x2="18.79" y2="150"/>
	<line class="st5" x1="56.79" y1="150" x2="142.79" y2="150"/>
	<line class="st5" x1="143.79" y1="108" x2="143.79" y2="150"/>
	<line class="st5" x1="56.79" y1="109" x2="56.79" y2="150"/>
	<line class="st5" x1="83.79" y1="110" x2="83.79" y2="149"/>
	<g>
		<circle class="st4" cx="123.18" cy="124.62" r="3.12"/>
		<circle class="st4" cx="102.41" cy="124.62" r="3.12"/>
		<path class="st4" d="M117.99,137.42c-0.57,0-1.1-0.35-1.3-0.91c-0.5-1.38-1.69-2.39-3.03-2.56c-1.69-0.21-3.4,0.86-4.07,2.59
			c-0.27,0.71-1.08,1.07-1.79,0.79c-0.71-0.28-1.07-1.08-0.79-1.79c1.12-2.9,4.07-4.73,7.01-4.34c2.39,0.32,4.41,1.99,5.27,4.36
			c0.26,0.72-0.11,1.51-0.83,1.77C118.3,137.4,118.14,137.42,117.99,137.42z"/>
	</g>
</g>
</svg>
