<?xml version="1.0" encoding="utf-8"?>
<!-- Generator: Adobe Illustrator 23.0.5, SVG Export Plug-In . SVG Version: 6.00 Build 0)  -->
<svg version="1.1" id="Слой_1" xmlns="http://www.w3.org/2000/svg" xmlns:xlink="http://www.w3.org/1999/xlink" x="0px" y="0px"
	 viewBox="0 0 205.15 152.57" style="enable-background:new 0 0 205.15 152.57;" xml:space="preserve">
<style type="text/css">
	.st0{fill:#F7F7F7;}
	.st1{fill:#3C73FF;}
	.st2{fill:#F0F4FF;}
	.st3{fill:#E4ECFF;}
	.st4{fill:#BBCEFF;}
</style>
<g>
	<g>
		<circle class="st0" cx="18.88" cy="44.22" r="2.5"/>
		<path class="st1" d="M18.88,39.72c-2.48,0-4.5,2.02-4.5,4.5s2.02,4.5,4.5,4.5s4.5-2.02,4.5-4.5S21.36,39.72,18.88,39.72z
			 M18.88,46.72c-1.38,0-2.5-1.12-2.5-2.5s1.12-2.5,2.5-2.5s2.5,1.12,2.5,2.5S20.26,46.72,18.88,46.72z"/>
	</g>
	<g>
		<circle class="st0" cx="149.88" cy="22.22" r="2.5"/>
		<path class="st1" d="M149.88,17.72c-2.48,0-4.5,2.02-4.5,4.5s2.02,4.5,4.5,4.5s4.5-2.02,4.5-4.5S152.36,17.72,149.88,17.72z
			 M149.88,24.72c-1.38,0-2.5-1.12-2.5-2.5s1.12-2.5,2.5-2.5s2.5,1.12,2.5,2.5S151.26,24.72,149.88,24.72z"/>
	</g>
	<g>
		<circle class="st0" cx="27.88" cy="110.22" r="2.5"/>
		<path class="st1" d="M27.88,105.72c-2.48,0-4.5,2.02-4.5,4.5s2.02,4.5,4.5,4.5s4.5-2.02,4.5-4.5S30.36,105.72,27.88,105.72z
			 M27.88,112.72c-1.38,0-2.5-1.12-2.5-2.5s1.12-2.5,2.5-2.5s2.5,1.12,2.5,2.5S29.26,112.72,27.88,112.72z"/>
	</g>
	<polygon class="st1" points="45.38,9.72 41.38,9.72 41.38,5.72 39.38,5.72 39.38,9.72 35.38,9.72 35.38,11.72 39.38,11.72 
		39.38,15.72 41.38,15.72 41.38,11.72 45.38,11.72 	"/>
	<polygon class="st1" points="187.38,39.52 184.58,39.52 184.58,36.72 183.18,36.72 183.18,39.52 180.38,39.52 180.38,40.92 
		183.18,40.92 183.18,43.72 184.58,43.72 184.58,40.92 187.38,40.92 	"/>
	<polygon class="st1" points="89.38,133.52 86.58,133.52 86.58,130.72 85.18,130.72 85.18,133.52 82.38,133.52 82.38,134.92 
		85.18,134.92 85.18,137.72 86.58,137.72 86.58,134.92 89.38,134.92 	"/>
	<g>
		<path class="st2" d="M167.41,31.81c-23.53-9.06-32.93,8.4-67.04,4.4C66.14,32.2,59.11,12.67,36.19,17.99
			C19.49,21.86,2.24,37.1,0.2,56.39c-1.91,18.06,10.08,34.25,22.12,42.33C42.99,112.57,57.04,98,80.57,110.7
			c21.78,11.75,17.85,28.61,39.67,37.83c22.2,9.38,44.5-0.36,47.24-1.61c23.79-10.82,40.84-37.62,37.18-65.83
			C201.76,58.84,186.44,39.14,167.41,31.81z"/>
		<path class="st3" d="M76.08,17.92c2.87-2.22,2.48-7.17,0.58-10.18c-0.15-0.24-3.1-4.76-7.63-3.97c-2.41,0.42-4.67,2.24-5.38,4.8
			c-0.95,3.41,1.42,6.16,1.97,6.79C68,18.12,73,20.3,76.08,17.92z"/>
		<path class="st3" d="M114.95,28.6c5.78-1.43,9.48-6.66,10.49-11.58c0.24-1.16,1.1-5.68-1.4-9.9C120,0.27,109.3-2.15,102.13,2.13
			c-4.03,2.41-7.96,7.54-7.24,13.14c0.61,4.72,4.25,7.57,6.35,9.2C103.35,26.13,108.53,30.18,114.95,28.6z"/>
	</g>
	<g>
		<circle class="st1" cx="152.26" cy="87.84" r="3.12"/>
		<circle class="st1" cx="131.5" cy="87.84" r="3.12"/>
		<path class="st1" d="M147.07,100.64c-0.57,0-1.1-0.35-1.3-0.91c-0.5-1.38-1.69-2.39-3.03-2.56c-1.69-0.21-3.4,0.86-4.07,2.59
			c-0.27,0.71-1.08,1.07-1.79,0.79c-0.71-0.28-1.07-1.08-0.79-1.79c1.12-2.9,4.07-4.73,7.01-4.34c2.39,0.32,4.41,1.99,5.27,4.36
			c0.26,0.72-0.11,1.51-0.83,1.77C147.39,100.62,147.23,100.64,147.07,100.64z"/>
	</g>
	<path class="st4" d="M76.88,34.72h-16c-1.38,0-2.5-1.12-2.5-2.5v0c0-1.38,1.12-2.5,2.5-2.5h16c1.38,0,2.5,1.12,2.5,2.5v0
		C79.38,33.6,78.26,34.72,76.88,34.72z"/>
	<path class="st4" d="M76.88,45.72h-16c-1.38,0-2.5-1.12-2.5-2.5v0c0-1.38,1.12-2.5,2.5-2.5h16c1.38,0,2.5,1.12,2.5,2.5v0
		C79.38,44.6,78.26,45.72,76.88,45.72z"/>
	<path class="st4" d="M102.88,34.72h-16c-1.38,0-2.5-1.12-2.5-2.5v0c0-1.38,1.12-2.5,2.5-2.5h16c1.38,0,2.5,1.12,2.5,2.5v0
		C105.38,33.6,104.26,34.72,102.88,34.72z"/>
	<path class="st4" d="M66.88,56.72h-6c-1.38,0-2.5-1.12-2.5-2.5v0c0-1.38,1.12-2.5,2.5-2.5h6c1.38,0,2.5,1.12,2.5,2.5v0
		C69.38,55.6,68.26,56.72,66.88,56.72z"/>
	<path class="st4" d="M79.88,56.72h-3c-1.38,0-2.5-1.12-2.5-2.5v0c0-1.38,1.12-2.5,2.5-2.5h3c1.38,0,2.5,1.12,2.5,2.5v0
		C82.38,55.6,81.26,56.72,79.88,56.72z"/>
	<path class="st4" d="M76.88,67.72h-16c-1.38,0-2.5-1.12-2.5-2.5v0c0-1.38,1.12-2.5,2.5-2.5h16c1.38,0,2.5,1.12,2.5,2.5v0
		C79.38,66.6,78.26,67.72,76.88,67.72z"/>
	<path class="st4" d="M76.88,100.72h-16c-1.38,0-2.5-1.12-2.5-2.5v0c0-1.38,1.12-2.5,2.5-2.5h16c1.38,0,2.5,1.12,2.5,2.5v0
		C79.38,99.6,78.26,100.72,76.88,100.72z"/>
	<path class="st4" d="M64.88,78.72h-4c-1.38,0-2.5-1.12-2.5-2.5v0c0-1.38,1.12-2.5,2.5-2.5h4c1.38,0,2.5,1.12,2.5,2.5v0
		C67.38,77.6,66.26,78.72,64.88,78.72z"/>
	<path class="st4" d="M77.88,78.72h-4c-1.38,0-2.5-1.12-2.5-2.5v0c0-1.38,1.12-2.5,2.5-2.5h4c1.38,0,2.5,1.12,2.5,2.5v0
		C80.38,77.6,79.26,78.72,77.88,78.72z"/>
	<path class="st4" d="M66.88,89.72h-6c-1.38,0-2.5-1.12-2.5-2.5v0c0-1.38,1.12-2.5,2.5-2.5h6c1.38,0,2.5,1.12,2.5,2.5v0
		C69.38,88.6,68.26,89.72,66.88,89.72z"/>
	<path class="st1" d="M175.21,101.59V61.19c0-9.66-7.86-17.52-17.52-17.52h-29.7h-5.44h-6.84V24.25c0-3.05-2.48-5.53-5.53-5.53
		H53.91c-3.05,0-5.53,2.48-5.53,5.53v71.93c0,8.97,6.78,16.39,15.49,17.4c0.44,0.05,0.88,0.1,1.33,0.12c0.06,0,0.12-0.01,0.17-0.01
		c0.17,0.01,0.35,0.01,0.53,0.01h13.43h18.44h9.55v19.09c0,3.05,2.48,5.53,5.53,5.53h21.9h9.48h25.62c3.05,0,5.53-2.48,5.53-5.53
		v-31.21C175.32,101.59,175.26,101.59,175.21,101.59z M112.01,24.25v19.41H96.98c-0.79-0.15-1.6-0.25-2.42-0.29
		c-0.12,0.01-0.24,0.02-0.36,0.03c-9.02,0.71-16.14,8.27-16.14,17.46v2.13h-0.05v33.23c0,7.26-5.63,13.21-12.75,13.77
		c-0.17-0.01-0.34-0.01-0.5-0.03c-0.26-0.02-0.52-0.05-0.77-0.09c-0.1-0.01-0.21-0.03-0.31-0.05c-6.49-1.13-11.45-6.79-11.45-13.6
		V24.29c0-1.02,0.83-1.84,1.84-1.84h29.54v-0.03h26.55C111.18,22.41,112.01,23.24,112.01,24.25z M84.39,110.01h-9.46
		c4.11-3.21,6.76-8.19,6.76-13.8v-2.13h0.05V60.86c0-7.31,5.7-13.3,12.89-13.78c7.19,0.49,12.89,6.48,12.89,13.78v49.15h-9.76H84.39
		z M169.68,134.6h-26.03h-3.5h-0.75v0.03h-5.01h-21.54c-1.02,0-1.84-0.83-1.84-1.84v-1.75c0.07,0.07,0.15,0.14,0.22,0.21V60.86
		c0-5.44-2.5-10.29-6.4-13.51h17.92h4.19h30.75c7.63,0,13.83,6.21,13.83,13.83v43.42c0,0,0.01,0,0.01,0v28.16
		C171.53,133.77,170.7,134.6,169.68,134.6z"/>
	<path class="st4" d="M136.88,59.72h-16c-1.38,0-2.5-1.12-2.5-2.5v0c0-1.38,1.12-2.5,2.5-2.5h16c1.38,0,2.5,1.12,2.5,2.5v0
		C139.38,58.6,138.26,59.72,136.88,59.72z"/>
	<path class="st4" d="M162.88,116.72h-16c-1.38,0-2.5-1.12-2.5-2.5v0c0-1.38,1.12-2.5,2.5-2.5h16c1.38,0,2.5,1.12,2.5,2.5v0
		C165.38,115.6,164.26,116.72,162.88,116.72z"/>
	<path class="st4" d="M124.88,70.72h-4c-1.38,0-2.5-1.12-2.5-2.5v0c0-1.38,1.12-2.5,2.5-2.5h4c1.38,0,2.5,1.12,2.5,2.5v0
		C127.38,69.6,126.26,70.72,124.88,70.72z"/>
	<path class="st4" d="M137.88,116.72h-4c-1.38,0-2.5-1.12-2.5-2.5v0c0-1.38,1.12-2.5,2.5-2.5h4c1.38,0,2.5,1.12,2.5,2.5v0
		C140.38,115.6,139.26,116.72,137.88,116.72z"/>
	<path class="st4" d="M124.88,116.72h-4c-1.38,0-2.5-1.12-2.5-2.5v0c0-1.38,1.12-2.5,2.5-2.5h4c1.38,0,2.5,1.12,2.5,2.5v0
		C127.38,115.6,126.26,116.72,124.88,116.72z"/>
	<path class="st4" d="M137.88,70.72h-6c-1.38,0-2.5-1.12-2.5-2.5v0c0-1.38,1.12-2.5,2.5-2.5h6c1.38,0,2.5,1.12,2.5,2.5v0
		C140.38,69.6,139.26,70.72,137.88,70.72z"/>
	<path class="st4" d="M126.88,127.72h-6c-1.38,0-2.5-1.12-2.5-2.5v0c0-1.38,1.12-2.5,2.5-2.5h6c1.38,0,2.5,1.12,2.5,2.5v0
		C129.38,126.6,128.26,127.72,126.88,127.72z"/>
</g>
</svg>
