<svg width="232" height="248" viewBox="0 0 232 248" fill="none" xmlns="http://www.w3.org/2000/svg">
<g clip-path="url(#clip0_4440_95968)">
<mask id="mask0_4440_95968" style="mask-type:alpha" maskUnits="userSpaceOnUse" x="0" y="0" width="232" height="248">
<path d="M181.799 15.4763L150.316 24.0619C148.678 20.9565 144.493 14.015 135.576 8.53486C124.839 1.95871 105.003 -3.88675 71.7005 6.16014C27.6611 19.4951 25.8413 48.5397 26.3872 58.0386L0 65.3454L49.6808 247.833L231.48 197.964L181.799 15.4763ZM145.403 25.5232L137.032 27.8979C122.473 8.53486 101.545 4.88144 92.4463 4.15076C126.295 -0.781346 142.491 21.1391 145.403 25.5232ZM73.7023 10.1789C78.7977 8.71753 83.7112 7.98684 88.2607 7.98684C99.3616 7.98684 108.643 11.8229 115.194 15.4763C123.929 20.5911 129.388 26.4366 131.208 29.3593L45.1313 53.1065C44.5853 45.617 44.7673 18.7644 73.7023 10.1789ZM54.2303 16.9377C49.3168 22.4178 36.5782 38.1275 40.5817 54.3852L31.3007 56.9426C31.1187 49.8184 32.9385 28.446 54.2303 16.9377Z" fill="#FF5757"/>
</mask>
<g mask="url(#mask0_4440_95968)">
<path d="M181.799 15.4763L150.316 24.0619C148.678 20.9565 144.493 14.015 135.576 8.53486C124.839 1.95871 105.003 -3.88675 71.7005 6.16014C27.6611 19.4951 25.8413 48.5397 26.3872 58.0386L0 65.3454L49.6808 247.833L231.48 197.964L181.799 15.4763ZM145.403 25.5232L137.032 27.8979C122.473 8.53486 101.545 4.88144 92.4463 4.15076C126.295 -0.781346 142.491 21.1391 145.403 25.5232ZM73.7023 10.1789C78.7977 8.71753 83.7112 7.98684 88.2607 7.98684C99.3616 7.98684 108.643 11.8229 115.194 15.4763C123.929 20.5911 129.388 26.4366 131.208 29.3593L45.1313 53.1065C44.5853 45.617 44.7673 18.7644 73.7023 10.1789ZM54.2303 16.9377C49.3168 22.4178 36.5782 38.1275 40.5817 54.3852L31.3007 56.9426C31.1187 49.8184 32.9385 28.446 54.2303 16.9377Z" fill="#FF5757"/>
<path d="M248.656 121.163C263.179 173.453 196.212 133.051 124.898 152.727C53.5828 172.403 4.92551 244.705 -9.59744 192.415C-64.2717 42.34 -3.96259 16.6684 67.3522 -3.00743C138.667 -22.6833 211.002 -28.4471 248.656 121.163Z" fill="#5887FF"/>
<path d="M-20.2257 165.368C-34.7486 113.078 23.3887 161.016 115.284 135.662C207.178 110.308 230.605 39.8667 245.128 92.1567C300.134 242.14 238.102 268.287 164.827 288.504C91.5519 308.721 17.3294 315.005 -20.2257 165.368Z" fill="#FFDF37"/>
</g>
<path d="M61.8731 127.637L81.1631 122.522C83.8928 121.791 85.5306 118.869 84.8027 116.129L79.7072 96.7656C78.9793 94.0255 76.0676 92.3815 73.3379 93.1122L54.0479 98.227C51.3182 98.9576 49.6804 101.88 50.4083 104.62L55.5038 123.984C56.2317 126.724 59.1434 128.368 61.8731 127.637Z" fill="white"/>
<path d="M93.5384 113.753C94.2663 116.493 97.178 118.137 99.9078 117.406L119.198 112.291C121.927 111.561 123.565 108.638 122.837 105.898L117.742 86.5348C117.014 83.7947 114.102 82.1507 111.373 82.8814L92.0826 87.9961C89.3529 88.7268 87.715 91.6495 88.443 94.3896L93.5384 113.753Z" fill="white"/>
<path d="M91.1713 160.7C93.9011 159.97 95.5389 157.047 94.811 154.307L89.7155 134.944C88.9876 132.204 86.0759 130.559 83.3462 131.29L64.0562 136.405C61.3265 137.136 59.6887 140.058 60.4166 142.798L65.5121 162.162C66.24 164.902 69.1517 166.546 71.8814 165.815L91.1713 160.7Z" fill="white"/>
<path d="M128.114 149.922C130.843 149.191 132.481 146.269 131.753 143.529L126.658 124.166C125.93 121.425 123.018 119.781 120.289 120.512L100.999 125.627C98.2689 126.358 96.631 129.28 97.359 132.02L102.454 151.383C103.182 154.123 106.094 155.768 108.824 155.037L128.114 149.922Z" fill="white"/>
<path d="M166.512 140.606C169.241 139.876 170.879 136.953 170.151 134.213L165.056 114.85C164.328 112.11 161.416 110.466 158.687 111.196L139.397 116.311C136.667 117.042 135.029 119.964 135.757 122.705L140.852 142.068C141.58 144.808 144.492 146.452 147.222 145.721L166.512 140.606Z" fill="white"/>
<path d="M181.071 170.93L175.975 151.567C175.247 148.827 172.336 147.183 169.606 147.913L150.316 153.028C147.586 153.759 145.948 156.682 146.676 159.422L151.772 178.785C152.5 181.525 155.411 183.169 158.141 182.438L177.431 177.323C180.161 176.593 181.799 173.67 181.071 170.93Z" fill="white"/>
<path d="M137.758 161.979C137.031 159.239 134.119 157.595 131.389 158.325L112.099 163.44C109.369 164.171 107.732 167.093 108.46 169.833L113.555 189.197C114.283 191.937 117.195 193.581 119.924 192.85L139.214 187.735C141.944 187.004 143.582 184.082 142.854 181.342L137.758 161.979Z" fill="white"/>
<path d="M100.635 173.122C99.907 170.382 96.9953 168.737 94.2656 169.468L74.9756 174.583C72.2459 175.314 70.6081 178.236 71.336 180.976L76.4315 200.34C77.1594 203.08 80.0711 204.724 82.8008 203.993L102.091 198.878C104.821 198.147 106.458 195.225 105.73 192.485L100.635 173.122Z" fill="white"/>
<path d="M138.123 90.3722C138.851 93.1122 141.763 94.7563 144.492 94.0256L163.782 88.9108C166.512 88.1801 168.15 85.2574 167.422 82.5173L162.326 63.1543C161.598 60.4142 158.687 58.7702 155.957 59.5009L136.667 64.6156C133.937 65.3463 132.3 68.269 133.027 71.0091L138.123 90.3722Z" fill="white"/>
</g>
<defs>
<clipPath id="clip0_4440_95968">
<rect width="231.48" height="247.076" fill="white" transform="translate(0 0.757446)"/>
</clipPath>
</defs>
</svg>
