<?xml version="1.0" encoding="utf-8"?>
<!-- Generator: Adobe Illustrator 23.0.5, SVG Export Plug-In . SVG Version: 6.00 Build 0)  -->
<svg version="1.1" id="Режим_изоляции"
	 xmlns="http://www.w3.org/2000/svg" xmlns:xlink="http://www.w3.org/1999/xlink" x="0px" y="0px" viewBox="0 0 232 189.19"
	 style="enable-background:new 0 0 232 189.19;" xml:space="preserve">
<style type="text/css">
	.st0{fill:#F0F4FF;}
	.st1{fill:#BBCEFF;}
	.st2{fill:#3C73FF;}
	.st3{fill:#E4ECFF;}
	.st4{fill:#F7F7F7;}
</style>
<g>
	<path class="st0" d="M13.5,73.71c4.71-18.82,23.92-31.5,41-33c23.44-2.07,27.67,18.25,61,27c33.22,8.72,44.97-7.26,67,5
		c17.82,9.92,30.25,31.56,30,54c-0.31,28.45-20.93,52.61-46,60c-2.89,0.85-26.33,7.39-47-5c-20.32-12.18-14.08-28.32-34-43
		c-21.53-15.86-37.47-3.39-56-20C18.7,109.03,9.09,91.33,13.5,73.71z"/>
	<g>
		<g>
			<g>
				<path class="st1" d="M45,151.21h-2.5c-0.55,0-1-0.45-1-1s0.45-1,1-1H44v-1.5c0-0.55,0.45-1,1-1s1,0.45,1,1v2.5
					C46,150.76,45.55,151.21,45,151.21z"/>
				<path class="st1" d="M36.93,151.21h-5.57c-0.55,0-1-0.45-1-1s0.45-1,1-1h5.57c0.55,0,1,0.45,1,1S37.48,151.21,36.93,151.21z
					 M25.79,151.21h-5.57c-0.55,0-1-0.45-1-1s0.45-1,1-1h5.57c0.55,0,1,0.45,1,1S26.34,151.21,25.79,151.21z M14.64,151.21H9.07
					c-0.55,0-1-0.45-1-1s0.45-1,1-1h5.57c0.55,0,1,0.45,1,1S15.2,151.21,14.64,151.21z"/>
				<path class="st1" d="M3.5,151.21H1c-0.55,0-1-0.45-1-1v-2.5c0-0.55,0.45-1,1-1s1,0.45,1,1v1.5h1.5c0.55,0,1,0.45,1,1
					S4.05,151.21,3.5,151.21z"/>
				<path class="st1" d="M1,143.63c-0.55,0-1-0.45-1-1v-5.08c0-0.55,0.45-1,1-1s1,0.45,1,1v5.08C2,143.19,1.55,143.63,1,143.63z
					 M1,133.48c-0.55,0-1-0.45-1-1v-5.08c0-0.55,0.45-1,1-1s1,0.45,1,1v5.08C2,133.03,1.55,133.48,1,133.48z M1,123.33
					c-0.55,0-1-0.45-1-1v-5.08c0-0.55,0.45-1,1-1s1,0.45,1,1v5.08C2,122.88,1.55,123.33,1,123.33z M1,113.17c-0.55,0-1-0.45-1-1
					v-5.08c0-0.55,0.45-1,1-1s1,0.45,1,1v5.08C2,112.72,1.55,113.17,1,113.17z M1,103.02c-0.55,0-1-0.45-1-1v-5.08
					c0-0.55,0.45-1,1-1s1,0.45,1,1v5.08C2,102.57,1.55,103.02,1,103.02z M1,92.86c-0.55,0-1-0.45-1-1v-5.08c0-0.55,0.45-1,1-1
					s1,0.45,1,1v5.08C2,92.42,1.55,92.86,1,92.86z"/>
				<path class="st1" d="M1,82.71c-0.55,0-1-0.45-1-1v-2.5c0-0.55,0.45-1,1-1h2.5c0.55,0,1,0.45,1,1s-0.45,1-1,1H2v1.5
					C2,82.26,1.55,82.71,1,82.71z"/>
				<path class="st1" d="M36.93,80.21h-5.57c-0.55,0-1-0.45-1-1s0.45-1,1-1h5.57c0.55,0,1,0.45,1,1S37.48,80.21,36.93,80.21z
					 M25.79,80.21h-5.57c-0.55,0-1-0.45-1-1s0.45-1,1-1h5.57c0.55,0,1,0.45,1,1S26.34,80.21,25.79,80.21z M14.64,80.21H9.07
					c-0.55,0-1-0.45-1-1s0.45-1,1-1h5.57c0.55,0,1,0.45,1,1S15.2,80.21,14.64,80.21z"/>
				<path class="st1" d="M45,82.71c-0.55,0-1-0.45-1-1v-1.5h-1.5c-0.55,0-1-0.45-1-1s0.45-1,1-1H45c0.55,0,1,0.45,1,1v2.5
					C46,82.26,45.55,82.71,45,82.71z"/>
				<path class="st1" d="M45,143.63c-0.55,0-1-0.45-1-1v-5.08c0-0.55,0.45-1,1-1s1,0.45,1,1v5.08C46,143.19,45.55,143.63,45,143.63z
					 M45,133.48c-0.55,0-1-0.45-1-1v-5.08c0-0.55,0.45-1,1-1s1,0.45,1,1v5.08C46,133.03,45.55,133.48,45,133.48z M45,123.33
					c-0.55,0-1-0.45-1-1v-5.08c0-0.55,0.45-1,1-1s1,0.45,1,1v5.08C46,122.88,45.55,123.33,45,123.33z M45,113.17c-0.55,0-1-0.45-1-1
					v-5.08c0-0.55,0.45-1,1-1s1,0.45,1,1v5.08C46,112.73,45.55,113.17,45,113.17z M45,103.02c-0.55,0-1-0.45-1-1v-5.08
					c0-0.55,0.45-1,1-1s1,0.45,1,1v5.08C46,102.57,45.55,103.02,45,103.02z M45,92.87c-0.55,0-1-0.45-1-1v-5.08c0-0.55,0.45-1,1-1
					s1,0.45,1,1v5.08C46,92.42,45.55,92.87,45,92.87z"/>
			</g>
			<path class="st1" d="M31.5,107.21h-16c-1.38,0-2.5-1.12-2.5-2.5l0,0c0-1.38,1.12-2.5,2.5-2.5h16c1.38,0,2.5,1.12,2.5,2.5l0,0
				C34,106.09,32.88,107.21,31.5,107.21z"/>
			<path class="st1" d="M31.5,118.21h-16c-1.38,0-2.5-1.12-2.5-2.5l0,0c0-1.38,1.12-2.5,2.5-2.5h16c1.38,0,2.5,1.12,2.5,2.5l0,0
				C34,117.09,32.88,118.21,31.5,118.21z"/>
			<path class="st1" d="M22.5,129.21h-7c-1.38,0-2.5-1.12-2.5-2.5v0c0-1.38,1.12-2.5,2.5-2.5h7c1.38,0,2.5,1.12,2.5,2.5v0
				C25,128.09,23.88,129.21,22.5,129.21z"/>
		</g>
	</g>
	<g>
		<g>
			<path class="st1" d="M231,152.21h-2.5c-0.55,0-1-0.45-1-1s0.45-1,1-1h1.5v-1.5c0-0.55,0.45-1,1-1s1,0.45,1,1v2.5
				C232,151.76,231.55,152.21,231,152.21z"/>
			<path class="st1" d="M222.93,152.21h-5.57c-0.55,0-1-0.45-1-1s0.45-1,1-1h5.57c0.55,0,1,0.45,1,1S223.48,152.21,222.93,152.21z
				 M211.79,152.21h-5.57c-0.55,0-1-0.45-1-1s0.45-1,1-1h5.57c0.55,0,1,0.45,1,1S212.34,152.21,211.79,152.21z M200.64,152.21h-5.57
				c-0.55,0-1-0.45-1-1s0.45-1,1-1h5.57c0.55,0,1,0.45,1,1S201.2,152.21,200.64,152.21z"/>
			<path class="st1" d="M189.5,152.21H187c-0.55,0-1-0.45-1-1v-2.5c0-0.55,0.45-1,1-1s1,0.45,1,1v1.5h1.5c0.55,0,1,0.45,1,1
				S190.05,152.21,189.5,152.21z"/>
			<path class="st1" d="M187,144.63c-0.55,0-1-0.45-1-1v-5.08c0-0.55,0.45-1,1-1s1,0.45,1,1v5.08
				C188,144.19,187.55,144.63,187,144.63z M187,134.48c-0.55,0-1-0.45-1-1v-5.08c0-0.55,0.45-1,1-1s1,0.45,1,1v5.08
				C188,134.03,187.55,134.48,187,134.48z M187,124.33c-0.55,0-1-0.45-1-1v-5.08c0-0.55,0.45-1,1-1s1,0.45,1,1v5.08
				C188,123.88,187.55,124.33,187,124.33z M187,114.17c-0.55,0-1-0.45-1-1v-5.08c0-0.55,0.45-1,1-1s1,0.45,1,1v5.08
				C188,113.72,187.55,114.17,187,114.17z M187,104.02c-0.55,0-1-0.45-1-1v-5.08c0-0.55,0.45-1,1-1s1,0.45,1,1v5.08
				C188,103.57,187.55,104.02,187,104.02z M187,93.86c-0.55,0-1-0.45-1-1v-5.08c0-0.55,0.45-1,1-1s1,0.45,1,1v5.08
				C188,93.42,187.55,93.86,187,93.86z"/>
			<path class="st1" d="M187,83.71c-0.55,0-1-0.45-1-1v-2.5c0-0.55,0.45-1,1-1h2.5c0.55,0,1,0.45,1,1s-0.45,1-1,1H188v1.5
				C188,83.26,187.55,83.71,187,83.71z"/>
			<path class="st1" d="M222.93,81.21h-5.57c-0.55,0-1-0.45-1-1s0.45-1,1-1h5.57c0.55,0,1,0.45,1,1S223.48,81.21,222.93,81.21z
				 M211.79,81.21h-5.57c-0.55,0-1-0.45-1-1s0.45-1,1-1h5.57c0.55,0,1,0.45,1,1S212.34,81.21,211.79,81.21z M200.64,81.21h-5.57
				c-0.55,0-1-0.45-1-1s0.45-1,1-1h5.57c0.55,0,1,0.45,1,1S201.2,81.21,200.64,81.21z"/>
			<path class="st1" d="M231,83.71c-0.55,0-1-0.45-1-1v-1.5h-1.5c-0.55,0-1-0.45-1-1s0.45-1,1-1h2.5c0.55,0,1,0.45,1,1v2.5
				C232,83.26,231.55,83.71,231,83.71z"/>
			<path class="st1" d="M231,144.63c-0.55,0-1-0.45-1-1v-5.08c0-0.55,0.45-1,1-1s1,0.45,1,1v5.08
				C232,144.19,231.55,144.63,231,144.63z M231,134.48c-0.55,0-1-0.45-1-1v-5.08c0-0.55,0.45-1,1-1s1,0.45,1,1v5.08
				C232,134.03,231.55,134.48,231,134.48z M231,124.33c-0.55,0-1-0.45-1-1v-5.08c0-0.55,0.45-1,1-1s1,0.45,1,1v5.08
				C232,123.88,231.55,124.33,231,124.33z M231,114.17c-0.55,0-1-0.45-1-1v-5.08c0-0.55,0.45-1,1-1s1,0.45,1,1v5.08
				C232,113.73,231.55,114.17,231,114.17z M231,104.02c-0.55,0-1-0.45-1-1v-5.08c0-0.55,0.45-1,1-1s1,0.45,1,1v5.08
				C232,103.57,231.55,104.02,231,104.02z M231,93.87c-0.55,0-1-0.45-1-1v-5.08c0-0.55,0.45-1,1-1s1,0.45,1,1v5.08
				C232,93.42,231.55,93.87,231,93.87z"/>
		</g>
		<path class="st1" d="M217.5,108.21h-16c-1.38,0-2.5-1.12-2.5-2.5l0,0c0-1.38,1.12-2.5,2.5-2.5h16c1.38,0,2.5,1.12,2.5,2.5l0,0
			C220,107.09,218.88,108.21,217.5,108.21z"/>
		<path class="st1" d="M217.5,119.21h-16c-1.38,0-2.5-1.12-2.5-2.5l0,0c0-1.38,1.12-2.5,2.5-2.5h16c1.38,0,2.5,1.12,2.5,2.5l0,0
			C220,118.09,218.88,119.21,217.5,119.21z"/>
		<path class="st1" d="M208.5,130.21h-7c-1.38,0-2.5-1.12-2.5-2.5v0c0-1.38,1.12-2.5,2.5-2.5h7c1.38,0,2.5,1.12,2.5,2.5v0
			C211,129.09,209.88,130.21,208.5,130.21z"/>
	</g>
	<path class="st2" d="M173.08,170.31l-28.25-28.06l0.59-0.7c6.26-7.52,9.71-17.06,9.71-26.86c0-23.19-18.87-42.06-42.06-42.06
		C89.9,72.63,71.02,91.5,71,114.69c0,7.31,1.9,14.5,5.51,20.81c0.85,1.49,2.75,2.01,4.23,1.17c0.72-0.41,1.24-1.08,1.46-1.88
		c0.22-0.8,0.12-1.63-0.3-2.35c-3.06-5.39-4.68-11.52-4.68-17.74c0-19.77,16.08-35.86,35.86-35.86s35.86,16.09,35.86,35.88
		c0,19.77-16.08,35.86-35.86,35.86c-6.14,0-12.21-1.58-17.55-4.58c-1.49-0.84-3.38-0.31-4.22,1.18c-0.4,0.72-0.51,1.56-0.28,2.35
		s0.74,1.46,1.46,1.86c6.26,3.51,13.38,5.37,20.59,5.37c9.71,0,19.17-3.39,26.65-9.55l0.7-0.57l28.28,28.09
		c1.15,1.15,3.22,1.15,4.39-0.02C174.3,173.49,174.29,171.52,173.08,170.31z"/>
	<g>
		<circle class="st2" cx="127.5" cy="110.71" r="4.5"/>
		<circle class="st2" cx="97.5" cy="110.71" r="4.5"/>
		<path class="st2" d="M120,129.21c-0.82,0-1.58-0.5-1.88-1.32c-0.72-1.99-2.44-3.45-4.38-3.7c-2.44-0.31-4.91,1.25-5.87,3.74
			c-0.4,1.03-1.56,1.54-2.59,1.15c-1.03-0.4-1.54-1.55-1.15-2.58c1.61-4.19,5.88-6.83,10.13-6.26c3.45,0.46,6.37,2.87,7.62,6.3
			c0.38,1.04-0.16,2.19-1.2,2.56C120.46,129.17,120.23,129.21,120,129.21z"/>
	</g>
	<path class="st3" d="M83,35.21c1.06-2.44,3.56-3.92,6-4c4.59-0.15,6.89,4.75,7,5c1.46,3.24,1.15,8.21-2,10
		c-3.37,1.93-8.02-0.93-10-4C83.55,41.51,81.59,38.46,83,35.21z"/>
	<path class="st3" d="M113,46.21c0.06-5.64,4.67-10.18,9-12c7.7-3.24,17.95,0.65,21,8c1.88,4.53,0.4,8.89,0,10
		c-1.68,4.73-6.07,9.4-12,10c-6.58,0.67-11.13-4.06-13-6C116.16,54.3,112.95,50.97,113,46.21z"/>
	<g>
		<circle class="st4" cx="50.5" cy="66.71" r="2.5"/>
		<path class="st2" d="M50.5,62.21c-2.48,0-4.5,2.02-4.5,4.5s2.02,4.5,4.5,4.5s4.5-2.02,4.5-4.5S52.98,62.21,50.5,62.21z
			 M50.5,69.21c-1.38,0-2.5-1.12-2.5-2.5s1.12-2.5,2.5-2.5s2.5,1.12,2.5,2.5S51.88,69.21,50.5,69.21z"/>
	</g>
	<g>
		<circle class="st4" cx="169.5" cy="42.71" r="2.5"/>
		<path class="st2" d="M169.5,38.21c-2.48,0-4.5,2.02-4.5,4.5s2.02,4.5,4.5,4.5s4.5-2.02,4.5-4.5S171.98,38.21,169.5,38.21z
			 M169.5,45.21c-1.38,0-2.5-1.12-2.5-2.5s1.12-2.5,2.5-2.5s2.5,1.12,2.5,2.5S170.88,45.21,169.5,45.21z"/>
	</g>
	<polygon class="st2" points="65,30.21 61,30.21 61,26.21 59,26.21 59,30.21 55,30.21 55,32.21 59,32.21 59,36.21 61,36.21 
		61,32.21 65,32.21 	"/>
	<polygon class="st2" points="207,60.01 204.2,60.01 204.2,57.21 202.8,57.21 202.8,60.01 200,60.01 200,61.41 202.8,61.41 
		202.8,64.21 204.2,64.21 204.2,61.41 207,61.41 	"/>
	<polygon class="st2" points="72,164.01 69.2,164.01 69.2,161.21 67.8,161.21 67.8,164.01 65,164.01 65,165.41 67.8,165.41 
		67.8,168.21 69.2,168.21 69.2,165.41 72,165.41 	"/>
	<g>
		<path class="st2" d="M114.08,15.07l-0.74-5.18l0.16-0.16c3.73-0.15,5.6-1.14,5.6-2.97c0-0.73-0.26-1.29-0.77-1.68
			c-0.51-0.39-1.24-0.59-2.18-0.59c-1.73,0-3.33,0.74-4.8,2.21l-2.94-3.23c2.09-2.3,4.7-3.45,7.84-3.45c2.35,0,4.22,0.59,5.63,1.76
			S124,4.57,124,6.68c0,3.43-2.1,5.58-6.3,6.43l-0.35,1.95H114.08z M113.02,22.68v-5.12h5.18v5.12H113.02z"/>
	</g>
</g>
</svg>
