<?xml version="1.0" encoding="utf-8"?>
<!-- Generator: Adobe Illustrator 21.1.0, SVG Export Plug-In . SVG Version: 6.00 Build 0)  -->
<svg version="1.1" id="Layer_1" xmlns="http://www.w3.org/2000/svg" xmlns:xlink="http://www.w3.org/1999/xlink" x="0px" y="0px"
	 viewBox="0 0 443.1 512" style="enable-background:new 0 0 443.1 512;" xml:space="preserve">
<style type="text/css">
	.st0{fill:#E2E5E7;}
	.st1{fill:#B0B7BD;}
	.st2{fill:#CAD1D8;}
	.st3{fill:#2ECC71;}
	.st4{fill:#FFFFFF;}
</style>
<g>
	<path class="st0" d="M59.1,0c-17.6,0-32,14.4-32,32v448c0,17.6,14.4,32,32,32h320c17.6,0,32-14.4,32-32V128L283.1,0H59.1z"/>
	<path class="st1" d="M315.1,128h96L283.1,0v96C283.1,113.6,297.5,128,315.1,128z"/>
	<polygon class="st2" points="411.1,224 315.1,128 411.1,128 	"/>
	<path class="st2" d="M424.6,409.5H73.8V428h350.8c10.2,0,18.5-8.3,18.5-18.5v-18.5C443.1,401.2,434.8,409.5,424.6,409.5z"/>
	<path class="st2" d="M377.8,409.5H27.1V428h350.8c10.2,0,18.5-8.3,18.5-18.5v-18.5C396.3,401.2,388,409.5,377.8,409.5z"/>
	<path class="st3" d="M443.1,391.1c0,10.2-8.3,18.5-18.5,18.5H18.5C8.3,409.5,0,401.2,0,391.1V206.5C0,196.3,8.3,188,18.5,188h406.2
		c10.2,0,18.5,8.3,18.5,18.5V391.1z"/>
	<g>
		<path class="st4" d="M152.1,302.7c7.7-10.1,15.7-20,23.4-29c7.3-8.3-5.6-19.4-12.3-10.7L141,290.8l-22.3-27.6
			c-5.9-9-20.8,0.9-12.8,10.5c7.8,9.1,15.6,18.9,23.7,29l-25.7,32.6c-7.3,8.7,7.2,19.2,13.7,9.9l23.2-30.8l23.6,30.2
			c6.9,9.5,21,0.3,13.9-9.3L152.1,302.7z"/>
		<path class="st4" d="M244.5,331.8h-34.8v-64.1c0-4.2-3.5-7.8-7.6-7.8c-4.5,0-8.1,3.6-8.1,7.8v0h0v73.1c0,4.6,3.6,7.8,8.1,7.8h42.3
			C257.3,348.6,257,331.8,244.5,331.8z"/>
		<path class="st4" d="M284.9,280.5c2.7-13.3,24.2-10.5,33.6-4.5c7.7,5.6,16.9-5.5,8.2-12.5c-17.7-13.6-55.1-9.1-58.1,15.7
			c-4,36.3,49.2,25,50.9,43.9c-1.9,18.2-28.9,12.8-39.4,5.6c-4.4-3.6-8.1-2.4-11.4,0.9c-2.3,3.5-2.4,9.1,1.8,12.5
			c17.7,14.6,64.7,13.8,65.6-18.7C337.1,289.5,281.5,301.5,284.9,280.5z"/>
	</g>
</g>
</svg>
