<?xml version="1.0" encoding="utf-8"?>
<!-- Generator: Adobe Illustrator 21.1.0, SVG Export Plug-In . SVG Version: 6.00 Build 0)  -->
<svg version="1.1" id="Layer_1" xmlns="http://www.w3.org/2000/svg" xmlns:xlink="http://www.w3.org/1999/xlink" x="0px" y="0px"
	 viewBox="0 0 443.1 512" style="enable-background:new 0 0 443.1 512;" xml:space="preserve">
<style type="text/css">
	.st0{fill:#E2E5E7;}
	.st1{fill:#B0B7BD;}
	.st2{fill:#CAD1D8;}
	.st3{fill:#50BEE8;}
	.st4{fill:#FFFFFF;}
</style>
<g>
	<path class="st0" d="M59.1,0c-17.6,0-32,14.4-32,32v448c0,17.6,14.4,32,32,32h320c17.6,0,32-14.4,32-32V128L283.1,0H59.1z"/>
	<path class="st1" d="M315.1,128h96L283.1,0v96C283.1,113.6,297.5,128,315.1,128z"/>
	<polygon class="st2" points="411.1,224 315.1,128 411.1,128 	"/>
	<path class="st2" d="M424.6,409.5H73.8V428h350.8c10.2,0,18.5-8.3,18.5-18.5v-18.5C443.1,401.2,434.8,409.5,424.6,409.5z"/>
	<path class="st2" d="M377.8,409.5H27.1V428h350.8c10.2,0,18.5-8.3,18.5-18.5v-18.5C396.3,401.2,388,409.5,377.8,409.5z"/>
	<path class="st3" d="M443.1,391.1c0,10.2-8.3,18.5-18.5,18.5H18.5C8.3,409.5,0,401.2,0,391.1V206.5C0,196.3,8.3,188,18.5,188h406.2
		c10.2,0,18.5,8.3,18.5,18.5V391.1z"/>
	<g>
		<path class="st4" d="M129.6,292.3l22.3-27.9c6.6-8.7,19.6,2.4,12.3,10.8c-7.7,9.1-15.7,18.9-23.4,29l26.1,32.5
			c7,9.6-7,18.8-14,9.3l-23.5-30.2l-23.2,30.8c-6.5,9.3-21-1.2-13.7-9.9l25.7-32.6c-8.1-10.1-15.9-19.9-23.7-29
			c-8.1-9.6,6.9-19.4,12.8-10.5L129.6,292.3z"/>
		<path class="st4" d="M199.6,294v47.3c0,5.6-4.6,8.8-9.2,8.8c-4.1,0-7.7-3.2-7.7-8.8v-72c0-6.7,5.6-8.8,7.7-8.8
			c3.7,0,5.9,2.2,8,4.6l28.2,38l29.2-39.4c4.2-5.2,14.6-3.2,14.6,5.6v72c0,5.6-3.6,8.8-7.7,8.8c-4.6,0-8.2-3.2-8.2-8.8V294
			l-21.2,26.9c-4.6,5.6-10.4,5.6-14.6,0L199.6,294z"/>
		<path class="st4" d="M292.6,269.3c0-4.2,3.6-7.8,8.1-7.8c4.1,0,7.6,3.6,7.6,7.8v64.1H343c12.5,0,12.8,16.8,0,16.8h-42.3
			c-4.5,0-8.1-3.2-8.1-7.8L292.6,269.3L292.6,269.3z"/>
	</g>
</g>
</svg>
