<svg width="32" height="32" viewBox="0 0 32 32" fill="none" xmlns="http://www.w3.org/2000/svg">
    <path d="M26.9091 8.36364H21.4545V5.09091C21.4545 4.80158 21.3396 4.5241 21.135 4.31952C20.9304 4.11493 20.653 4 20.3636 4H11.6364C11.347 4 11.0696 4.11493 10.865 4.31952C10.6604 4.5241 10.5455 4.80158 10.5455 5.09091V8.36364H5.09091C4.80158 8.36364 4.5241 8.47857 4.31952 8.68316C4.11493 8.88774 4 9.16522 4 9.45455C4 9.74387 4.11493 10.0213 4.31952 10.2259C4.5241 10.4305 4.80158 10.5455 5.09091 10.5455H6.24836L7.27273 26.9778C7.29023 27.2551 7.41284 27.5152 7.61556 27.7051C7.81828 27.8951 8.08583 28.0005 8.36364 28H23.6364C23.9142 28.0005 24.1817 27.8951 24.3844 27.7051C24.5872 27.5152 24.7098 27.2551 24.7273 26.9778L25.7516 10.5455H26.9091C27.1984 10.5455 27.4759 10.4305 27.6805 10.2259C27.8851 10.0213 28 9.74387 28 9.45455C28 9.16522 27.8851 8.88774 27.6805 8.68316C27.4759 8.47857 27.1984 8.36364 26.9091 8.36364ZM12.7273 6.18182H19.2727V8.36364H12.7273V6.18182ZM22.612 25.8182H9.388L8.43345 10.5455H23.5665L22.612 25.8182ZM12.7273 14.9091V21.4545C12.7273 21.7439 12.6123 22.0213 12.4078 22.2259C12.2032 22.4305 11.9257 22.5455 11.6364 22.5455C11.347 22.5455 11.0696 22.4305 10.865 22.2259C10.6604 22.0213 10.5455 21.7439 10.5455 21.4545V14.9091C10.5455 14.6198 10.6604 14.3423 10.865 14.1377C11.0696 13.9331 11.347 13.8182 11.6364 13.8182C11.9257 13.8182 12.2032 13.9331 12.4078 14.1377C12.6123 14.3423 12.7273 14.6198 12.7273 14.9091ZM17.0909 14.9091V21.4545C17.0909 21.7439 16.976 22.0213 16.7714 22.2259C16.5668 22.4305 16.2893 22.5455 16 22.5455C15.7107 22.5455 15.4332 22.4305 15.2286 22.2259C15.024 22.0213 14.9091 21.7439 14.9091 21.4545V14.9091C14.9091 14.6198 15.024 14.3423 15.2286 14.1377C15.4332 13.9331 15.7107 13.8182 16 13.8182C16.2893 13.8182 16.5668 13.9331 16.7714 14.1377C16.976 14.3423 17.0909 14.6198 17.0909 14.9091ZM20.3636 13.8182C20.653 13.8182 20.9304 13.9331 21.135 14.1377C21.3396 14.3423 21.4545 14.6198 21.4545 14.9091V21.4545C21.4545 21.7439 21.3396 22.0213 21.135 22.2259C20.9304 22.4305 20.653 22.5455 20.3636 22.5455C20.0743 22.5455 19.7968 22.4305 19.5922 22.2259C19.3877 22.0213 19.2727 21.7439 19.2727 21.4545V14.9091C19.2727 14.6198 19.3877 14.3423 19.5922 14.1377C19.7968 13.9331 20.0743 13.8182 20.3636 13.8182Z" fill="#A4A6A6"/>
</svg>
