<svg width="120" height="26" viewBox="0 0 120 26" fill="none" xmlns="http://www.w3.org/2000/svg">
    <path d="M15.0282 17.597L7.3393 0.0362091H0L11.3155 25.8586H18.7409L30.0564 0.0362091H22.7171L15.0282 17.597Z" fill="#040606"/>
    <path d="M32.3572 5.86623H44.9832L32.3572 20.027V25.8586H53.5452V20.027H40.8762L53.5452 5.86623V0.0362091H32.3572V5.86623Z" fill="#040606"/>
    <path d="M73.6549 15.4465C73.6549 16.0696 73.5154 16.6598 73.2399 17.2156C72.9627 17.7713 72.5838 18.2563 72.1034 18.6739C71.6229 19.0898 71.0701 19.4203 70.4433 19.662C69.8165 19.9053 69.1397 20.027 68.4113 20.027C67.6829 20.027 66.9992 19.9053 66.3586 19.662C65.718 19.4203 65.1567 19.0898 64.6762 18.6739C64.1958 18.2563 63.8169 17.7713 63.5414 17.2156C63.2641 16.6598 63.1247 16.0696 63.1247 15.4465V3.62396e-05H55.7853V15.5501C55.8146 16.9147 56.1418 18.2102 56.7686 19.4367C57.3954 20.6632 58.2754 21.7631 59.4119 22.7348C60.6346 23.7525 62.0122 24.5269 63.5414 25.0596C65.0688 25.5923 66.6789 25.8586 68.3683 25.8586H68.4113C70.1299 25.8586 71.7538 25.5923 73.283 25.0596C74.8121 24.5269 76.1725 23.7525 77.3676 22.7348C78.5317 21.7631 79.422 20.6632 80.0333 19.4367C80.6447 18.2102 80.965 16.9147 80.9942 15.5501V3.62396e-05H73.6549V15.4465Z" fill="#040606"/>
    <path d="M83.1776 5.86623H90.5617V25.8586H97.9011V5.86623H105.283V0.0362091H83.1776V5.86623Z" fill="#040606"/>
    <path d="M114.942 0.0361805H107.603V18.8481H114.942V0.0361805Z" fill="#040606"/>
    <path d="M114.379 20.4923H107.603V25.8586H120C120 22.8943 117.484 20.4923 114.379 20.4923Z" fill="#040606"/>
</svg>
