<svg width="40" height="41" viewBox="0 0 40 41" fill="none" xmlns="http://www.w3.org/2000/svg">
<path fill-rule="evenodd" clip-rule="evenodd" d="M20 30.8586C25.5228 30.8586 30 26.3815 30 20.8586C30 15.3358 25.5228 10.8586 20 10.8586C14.4771 10.8586 10 15.3358 10 20.8586C10 26.3815 14.4771 30.8586 20 30.8586ZM20 27.5253C23.6818 27.5253 26.6667 24.5405 26.6667 20.8586C26.6667 17.1767 23.6818 14.192 20 14.192C16.3181 14.192 13.3333 17.1767 13.3333 20.8586C13.3333 24.5405 16.3181 27.5253 20 27.5253Z" fill="#0F0F0F"/>
<path d="M30 9.19189C29.0795 9.19189 28.3333 9.93809 28.3333 10.8586C28.3333 11.779 29.0795 12.5252 30 12.5252C30.9205 12.5252 31.6667 11.779 31.6667 10.8586C31.6667 9.93809 30.9205 9.19189 30 9.19189Z" fill="#0F0F0F"/>
<path fill-rule="evenodd" clip-rule="evenodd" d="M2.75659 7.98549C1.66666 10.1246 1.66666 12.9249 1.66666 18.5254V23.1921C1.66666 28.7926 1.66666 31.5929 2.75659 33.7319C3.71532 35.6136 5.24512 37.1434 7.12676 38.1021C9.26587 39.1921 12.0661 39.1921 17.6667 39.1921H22.3333C27.9338 39.1921 30.7342 39.1921 32.8732 38.1021C34.7548 37.1434 36.2847 35.6136 37.2433 33.7319C38.3333 31.5929 38.3333 28.7926 38.3333 23.1921V18.5254C38.3333 12.9249 38.3333 10.1246 37.2433 7.98549C36.2847 6.10386 34.7548 4.57406 32.8732 3.61532C30.7342 2.52539 27.9338 2.52539 22.3333 2.52539H17.6667C12.0661 2.52539 9.26587 2.52539 7.12676 3.61532C5.24512 4.57406 3.71532 6.10386 2.75659 7.98549ZM22.3333 5.85872H17.6667C14.8114 5.85872 12.8704 5.86132 11.3701 5.98389C9.90872 6.10329 9.16139 6.31971 8.64006 6.58534C7.38564 7.22451 6.36577 8.24437 5.72661 9.49879C5.46097 10.0201 5.24456 10.7675 5.12516 12.2289C5.00259 13.7291 4.99999 15.6701 4.99999 18.5254V23.1921C4.99999 26.0474 5.00259 27.9882 5.12516 29.4886C5.24456 30.9501 5.46097 31.6974 5.72661 32.2187C6.36577 33.4731 7.38564 34.4929 8.64006 35.1321C9.16139 35.3977 9.90872 35.6142 11.3701 35.7336C12.8704 35.8561 14.8114 35.8587 17.6667 35.8587H22.3333C25.1887 35.8587 27.1295 35.8561 28.6298 35.7336C30.0913 35.6142 30.8387 35.3977 31.36 35.1321C32.6143 34.4929 33.6342 33.4731 34.2733 32.2187C34.539 31.6974 34.7555 30.9501 34.8748 29.4886C34.9973 27.9882 35 26.0474 35 23.1921V18.5254C35 15.6701 34.9973 13.7291 34.8748 12.2289C34.7555 10.7675 34.539 10.0201 34.2733 9.49879C33.6342 8.24437 32.6143 7.22451 31.36 6.58534C30.8387 6.31971 30.0913 6.10329 28.6298 5.98389C27.1295 5.86132 25.1887 5.85872 22.3333 5.85872Z" fill="#0F0F0F"/>
</svg>
