<svg width="128" height="33" viewBox="0 0 128 33" fill="none" xmlns="http://www.w3.org/2000/svg">
    <path fill-rule="evenodd" clip-rule="evenodd" d="M32.8436 6.56079L29.4943 27.1706H34.8529L38.2027 6.56079H32.8436ZM24.9857 6.56079L19.876 20.7359L19.2716 17.6835L19.1387 17.0003C18.5204 15.6662 17.0884 13.1301 14.384 10.9661C13.6275 10.3623 12.8311 9.81033 12 9.31412L16.6436 27.1706H22.2267L30.7533 6.56079H24.9857ZM45.9 12.2826C45.9 9.95233 51.1187 10.2515 53.412 11.5168L54.1764 7.09056C54.1764 7.09056 51.8169 6.19189 49.3573 6.19189C46.6977 6.19189 40.3823 7.35633 40.3823 13.0146C40.3823 18.3399 47.7947 18.4056 47.7947 21.2012C47.7947 23.9972 41.1467 23.4976 38.9529 21.7342L38.1556 26.3608C38.1556 26.3608 40.5476 27.5252 44.2044 27.5252C47.8609 27.5252 53.3787 25.6288 53.3787 20.4692C53.3787 15.111 45.9 14.6119 45.9 12.2826ZM67.7676 6.56079H63.4591C61.4693 6.56079 60.9849 8.09679 60.9849 8.09679L52.9933 27.1706H58.5791L59.6964 24.1092H66.5089L67.1373 27.1706H72.0577L67.7676 6.56079ZM61.2404 19.8799L64.0564 12.1675L65.6409 19.8799H61.2404Z" fill="#005BAC"/>
    <path fill-rule="evenodd" clip-rule="evenodd" d="M17.5364 8.48759C17.5364 8.48759 17.3141 6.63647 14.9417 6.63647H6.32305L6.22217 6.98447C6.22217 6.98447 10.2724 7.74626 14.2284 10.9085C17.7827 13.7498 19.1457 17.0227 19.1457 17.0227L17.5364 8.48759Z" fill="#F6AC1D"/>
    <path d="M121.751 16.872C121.751 22.744 117.018 27.5005 111.18 27.5005C105.343 27.5005 100.61 22.744 100.61 16.8716C100.61 10.9996 105.336 6.24268 111.173 6.24268C117.011 6.24268 121.751 11 121.751 16.872Z" fill="#F79F1A"/>
    <path d="M108.7 16.872C108.7 22.7436 103.967 27.5005 98.1293 27.5005C92.292 27.5005 87.5591 22.7436 87.5591 16.8716C87.5591 10.9996 92.2924 6.24268 98.1293 6.24268C103.967 6.24268 108.7 11 108.7 16.872Z" fill="#EA001B"/>
    <path d="M104.651 8.50314C103.386 9.50015 102.365 10.7716 101.663 12.2214C100.962 13.6712 100.599 15.2614 100.603 16.872C100.599 18.4825 100.962 20.0728 101.663 21.5225C102.365 22.9722 103.387 24.2436 104.651 25.2405C105.916 24.2434 106.938 22.972 107.639 21.5222C108.341 20.0724 108.703 18.4821 108.7 16.8716C108.7 13.4738 107.117 10.4534 104.651 8.50314Z" fill="#FF5F01"/>
</svg>
