<svg width="40" height="40" viewBox="0 0 40 40" fill="none" xmlns="http://www.w3.org/2000/svg">
    <path d="M30.1334 30L26.1334 25.2C28.1334 23.3333 29.3334 20.8 29.3334 17.8667C29.3334 12.4 24.8 7.86667 19.3334 7.86667C13.8667 7.86667 9.33337 12.5333 9.33337 18C9.33337 23.4667 13.8667 28 19.3334 28C21.0667 28 22.5334 27.6 24 26.8L28.1334 31.7333L30.1334 30ZM12 18C12 14 15.3334 10.6667 19.3334 10.6667C23.3334 10.6667 26.6667 14 26.6667 18C26.6667 22 23.3334 25.3333 19.3334 25.3333C15.3334 25.3333 12 22 12 18Z" fill="white"/>
</svg>
