<svg width="40" height="40" viewBox="0 0 40 40" fill="none" xmlns="http://www.w3.org/2000/svg">
    <path d="M31.5999 28C30.3999 24.9333 27.8666 22.4 24.7999 21.0667C26.6666 19.6 27.9999 17.3333 27.9999 14.6667C27.9999 10.2667 24.3999 6.66666 19.9999 6.66666C15.5999 6.66666 11.9999 10.2667 11.9999 14.6667C11.9999 17.2 13.1999 19.4667 15.0666 20.9333H14.9333C11.8666 22.2667 9.46658 24.6667 8.26658 27.8667L7.33325 30.2667L9.86659 31.2L10.6666 28.9333C11.5999 26.5333 13.4666 24.5333 15.9999 23.4667C17.1999 22.9333 18.5333 22.6667 19.7333 22.6667H20.1333C21.3333 22.6667 22.5333 22.9333 23.5999 23.3333C26.1333 24.4 28.1332 26.4 29.1999 28.9333L30.1333 31.3333L32.6666 30.4L31.5999 28ZM19.9999 9.33332C22.9333 9.33332 25.3333 11.7333 25.3333 14.6667C25.3333 17.6 22.9333 20 19.9999 20H19.8666C16.9333 20 14.6666 17.6 14.6666 14.6667C14.6666 11.7333 17.0666 9.33332 19.9999 9.33332Z" fill="white"/>
</svg>
