<svg width="32" height="32" viewBox="0 0 32 32" fill="none" xmlns="http://www.w3.org/2000/svg">
    <g clip-path="url(#clip0_327_31)">
        <path d="M16 16H4V18H16V16Z" fill="#A4A6A6"/>
        <path d="M12 11H2V13H12V11Z" fill="#A4A6A6"/>
        <path d="M29.9193 16.6064L26.9193 9.6064C26.8425 9.42638 26.7144 9.27293 26.551 9.16511C26.3876 9.0573 26.1962 8.99988 26.0004 9H23.0004V7C23.0004 6.73478 22.8951 6.48043 22.7075 6.29289C22.52 6.10536 22.2657 6 22.0004 6H6.00043V8H21.0004V20.5562C20.5448 20.8208 20.1461 21.173 19.8272 21.5924C19.5083 22.0118 19.2756 22.4902 19.1425 23H12.8583C12.6149 22.0573 12.0361 21.2358 11.2303 20.6894C10.4245 20.143 9.44715 19.9092 8.48133 20.0319C7.51552 20.1546 6.6276 20.6253 5.98401 21.3558C5.34042 22.0863 4.98535 23.0264 4.98535 24C4.98535 24.9736 5.34042 25.9137 5.98401 26.6442C6.6276 27.3747 7.51552 27.8454 8.48133 27.9681C9.44715 28.0908 10.4245 27.857 11.2303 27.3106C12.0361 26.7642 12.6149 25.9427 12.8583 25H19.1425C19.3606 25.8578 19.8583 26.6184 20.5569 27.1617C21.2556 27.7049 22.1154 27.9999 23.0004 27.9999C23.8855 27.9999 24.7453 27.7049 25.4439 27.1617C26.1426 26.6184 26.6403 25.8578 26.8583 25H29.0004C29.2657 25 29.52 24.8946 29.7075 24.7071C29.8951 24.5196 30.0004 24.2652 30.0004 24V17C30.0004 16.8647 29.9728 16.7307 29.9193 16.6064ZM9.00043 26C8.60487 26 8.21819 25.8827 7.88929 25.6629C7.5604 25.4432 7.30405 25.1308 7.15268 24.7654C7.0013 24.3999 6.96169 23.9978 7.03886 23.6098C7.11603 23.2219 7.30652 22.8655 7.58622 22.5858C7.86593 22.3061 8.22229 22.1156 8.61025 22.0384C8.99822 21.9613 9.40035 22.0009 9.7658 22.1522C10.1313 22.3036 10.4436 22.56 10.6634 22.8889C10.8831 23.2178 11.0004 23.6044 11.0004 24C10.9998 24.5302 10.7889 25.0386 10.414 25.4135C10.039 25.7885 9.53068 25.9994 9.00043 26ZM23.0004 11H25.3412L27.4843 16H23.0004V11ZM23.0004 26C22.6049 26 22.2182 25.8827 21.8893 25.6629C21.5604 25.4432 21.3041 25.1308 21.1527 24.7654C21.0013 24.3999 20.9617 23.9978 21.0389 23.6098C21.116 23.2219 21.3065 22.8655 21.5862 22.5858C21.8659 22.3061 22.2223 22.1156 22.6103 22.0384C22.9982 21.9613 23.4004 22.0009 23.7658 22.1522C24.1313 22.3036 24.4436 22.56 24.6634 22.8889C24.8831 23.2178 25.0004 23.6044 25.0004 24C24.9998 24.5302 24.7889 25.0386 24.414 25.4135C24.039 25.7885 23.5307 25.9994 23.0004 26ZM28.0004 23H26.8583C26.638 22.1435 26.1397 21.3843 25.4416 20.8414C24.7434 20.2985 23.8848 20.0026 23.0004 20V18H28.0004V23Z" fill="#A4A6A6"/>
    </g>
    <defs>
        <clipPath id="clip0_327_31">
            <rect width="32" height="32" fill="white"/>
        </clipPath>
    </defs>
</svg>
