<svg width="32" height="32" viewBox="0 0 32 32" fill="none" xmlns="http://www.w3.org/2000/svg">
    <path d="M26.75 5.24999C22.669 3.17299 17.204 3.48299 13.279 7.40799C12.296 8.39099 11.506 9.32199 10.855 10.198L10.827 10.17C9.26701 8.60999 6.73001 8.60999 5.17001 10.17C3.61001 11.73 3.61001 14.267 5.17001 15.827L5.68001 16.337L8.35101 15.002C7.97701 16.326 7.99501 17.081 8.09301 17.778L14.224 23.909C14.92 24.006 15.675 24.025 17 23.651L15.664 26.322L16.174 26.832C17.734 28.392 20.271 28.392 21.831 26.832C23.391 25.272 23.391 22.735 21.831 21.175L21.803 21.147C22.679 20.495 23.61 19.706 24.593 18.723C28.464 14.85 28.862 9.39799 26.75 5.24999ZM6.18701 13.847C5.84101 13.106 5.97301 12.195 6.58401 11.584C7.36401 10.804 8.63301 10.804 9.41201 11.584L9.72201 11.894C9.67101 11.981 9.61401 12.071 9.56601 12.156L6.18701 13.847ZM20.416 22.588C21.196 23.368 21.196 24.636 20.416 25.416C19.805 26.027 18.894 26.159 18.153 25.813L19.844 22.433C19.929 22.385 20.019 22.328 20.106 22.277L20.416 22.588ZM15.115 21.971L10.025 16.881C10.068 15.971 10.551 12.964 14.693 8.82099C18.993 4.52099 23.98 6.20999 25.252 6.74699C25.79 8.02299 27.477 13.008 23.178 17.306C19.06 21.425 16.043 21.923 15.115 21.971ZM16.643 12.357C16.643 14.011 17.989 15.357 19.643 15.357C21.297 15.357 22.643 14.011 22.643 12.357C22.643 10.703 21.297 9.35699 19.643 9.35699C17.989 9.35699 16.643 10.703 16.643 12.357ZM20.643 12.357C20.643 12.908 20.195 13.357 19.643 13.357C19.091 13.357 18.643 12.908 18.643 12.357C18.643 11.806 19.091 11.357 19.643 11.357C20.195 11.357 20.643 11.806 20.643 12.357ZM4.87901 22.878C3.87201 23.885 3.85901 26.4 3.87901 27.148L3.90601 28.094L5.07001 28.123C6.46101 28.123 8.29301 27.949 9.12101 27.122C10.296 25.946 10.291 24.05 9.12101 22.879C7.98801 21.745 6.01201 21.746 4.87901 22.878ZM7.70801 25.706C7.55601 25.845 6.92101 26.029 5.90301 26.097C5.96501 25.248 6.11801 24.487 6.29301 24.294C6.68301 23.905 7.31401 23.902 7.70701 24.294C8.09901 24.683 8.09701 25.319 7.70801 25.706Z" fill="#A4A6A6"/>
</svg>
