<svg width="32" height="32" viewBox="0 0 32 32" fill="none" xmlns="http://www.w3.org/2000/svg">
    <path d="M27.9939 8.73907L27.9591 7.92114L27.1447 7.83751C24.0166 7.51625 21.3273 6.34892 19.6221 5.42622C17.7545 4.41561 16.6224 3.46749 16.612 3.45874L16.0006 2.94214L15.3888 3.458C15.3776 3.46747 14.2455 4.41561 12.3779 5.42619C10.6727 6.34889 7.98347 7.51622 4.85532 7.83748L4.04092 7.92111L4.00615 8.73904C3.99992 8.88547 3.8691 12.3739 5.21279 16.5981C6.00567 19.0908 7.15071 21.3242 8.61609 23.2366C10.4562 25.6379 12.8032 27.5308 15.592 28.8626L16 29.0575L16.408 28.8626C19.1968 27.5308 21.5438 25.638 23.3839 23.2366C24.8493 21.3242 25.9943 19.0907 26.7872 16.5981C28.1309 12.374 28.0001 8.88552 27.9939 8.73907ZM16 26.9529C13.6734 25.7707 11.7043 24.1446 10.1418 22.1146C8.81086 20.3854 7.76603 18.3564 7.0363 16.0841C6.14441 13.3068 5.94439 10.8299 5.90391 9.61365C7.15863 9.42735 8.42709 9.11386 9.68608 8.67847C10.9168 8.25284 12.1418 7.71016 13.3269 7.06554C14.5294 6.41149 15.4445 5.78678 16 5.37828C16.5554 5.78675 17.4705 6.41149 18.673 7.06554C19.8581 7.71019 21.0831 8.25284 22.3139 8.67847C23.5732 9.114 24.842 9.42749 26.0971 9.6138C26.0581 10.8181 25.862 13.2601 24.9828 16.0242C24.2564 18.3077 23.2128 20.3468 21.8809 22.085C20.3147 24.1289 18.3378 25.7649 16 26.9529Z" fill="#A4A6A6"/>
    <path d="M21.1595 11.6928L19.8385 13.0138L14.9154 17.9369L12.4204 15.4418L12.0811 15.1025L11.4116 15.772V15.772L10.7422 16.4414L14.9154 20.6147L22.4984 13.0317L21.1595 11.6928Z" fill="#A4A6A6"/>
</svg>
