<svg width="32" height="32" viewBox="0 0 32 32" fill="none" xmlns="http://www.w3.org/2000/svg">
    <path d="M16.7129 16.3665V26.4355C16.7129 26.755 16.9713 27.0134 17.2908 27.0134H27.3597C27.6792 27.0134 27.9377 26.755 27.9377 26.4355V16.3665C27.9377 16.047 27.6792 15.7886 27.3597 15.7886H17.2861C16.9713 15.7933 16.7129 16.0517 16.7129 16.3665ZM18.864 17.9444H25.7771V24.8622H18.864V17.9444Z" fill="#A4A6A6"/>
    <path d="M15.6888 4H5.61991C5.30041 4 5.04199 4.25842 5.04199 4.57792V14.6469C5.04199 14.9664 5.30041 15.2248 5.61991 15.2248H15.6888C16.0083 15.2248 16.2668 14.9664 16.2668 14.6469V4.57792C16.2621 4.25842 16.0036 4 15.6888 4ZM14.1109 13.0689H7.19783V6.15114H14.1156L14.1109 13.0689Z" fill="#A4A6A6"/>
    <path d="M15.242 26.5605L15.2065 24.881C13.5137 25.058 9.71871 23.7356 7.85855 20.8339L10.9168 20.7692L10.8812 19.0889L5.00003 19.2133L5.12445 25.0945L6.80479 25.0589L6.7448 22.2234C8.65128 24.9703 12.0153 27.0592 15.242 26.5605Z" fill="#A4A6A6"/>
    <path d="M18.063 4.05479L18.0491 5.73461C19.7464 5.60756 23.5007 7.04117 25.2746 9.99645L22.2158 9.97103L22.2018 11.6517L28.0842 11.7006L28.133 5.81826L26.4524 5.8043L26.4288 8.64041C24.6041 5.83851 21.3031 3.6514 18.063 4.05479Z" fill="#A4A6A6"/>
</svg>
