<svg width="40" height="41" viewBox="0 0 40 41" fill="none" xmlns="http://www.w3.org/2000/svg">
    <path fill-rule="evenodd" clip-rule="evenodd" d="M38.5195 8.34938C39.0493 5.76643 36.5123 3.61995 34.0528 4.57023L3.90416 16.2186C1.15752 17.2798 1.03513 21.1206 3.70862 22.3544L10.2742 25.3847L13.3975 36.3162C13.5597 36.8841 14.0103 37.3237 14.5819 37.4719C15.1536 37.6199 15.761 37.4546 16.1785 37.0369L20.9897 32.2257L27.7292 37.2804C29.6855 38.7476 32.5032 37.6789 32.9945 35.2834L38.5195 8.34938ZM5.10549 19.3279L35.2542 7.67957L29.7292 34.6137L21.8333 28.6917C21.1698 28.1941 20.2413 28.2601 19.6548 28.8466L17.5942 30.9072L18.2133 27.5021L30.3452 15.3703C30.9357 14.7799 30.998 13.8437 30.4912 13.1801C29.9843 12.5165 29.0648 12.3304 28.3398 12.7447L11.5854 22.3186L5.10549 19.3279ZM13.6282 24.9904L14.6389 28.5277L15.0269 26.3936C15.0875 26.0601 15.2485 25.7529 15.4882 25.5132L19.188 21.8136L13.6282 24.9904Z" fill="#0F0F0F"/>
</svg>