<svg width="40" height="40" viewBox="0 0 40 40" fill="none" xmlns="http://www.w3.org/2000/svg">
    <path d="M20.0001 32C19.4667 32 18.9334 31.7333 18.5334 31.4667L8.93341 21.7333C7.46675 20.2667 6.66675 18.1333 6.66675 16C6.66675 13.8667 7.46675 11.8667 8.93341 10.4C10.5334 8.8 12.5334 8 14.6667 8C16.6667 8 18.5334 8.8 20.0001 10.1333C21.4667 8.8 23.3334 8.13333 25.3334 8C27.4667 8 29.4667 8.8 30.9334 10.2667C34.0001 13.4667 34.0001 18.5333 30.9334 21.6L21.3334 31.2C21.0667 31.8667 20.5334 32 20.0001 32ZM14.6667 10.6667C13.3334 10.6667 11.8667 11.2 10.9334 12.2667C9.86675 13.2 9.33341 14.5333 9.33341 16C9.33341 17.4667 9.86675 18.8 10.9334 19.8667L20.0001 29.0667L29.0667 19.8667C31.0667 17.7333 31.0667 14.4 29.0667 12.2667C28.1334 11.2 26.8001 10.6667 25.4667 10.6667C24.1334 10.6667 22.8001 11.2 21.7334 12.1333L20.0001 13.8667L18.4001 12.2667C17.3334 11.2 16.0001 10.6667 14.6667 10.6667Z" fill="white"/>
</svg>
