<svg width="27" height="24" viewBox="0 0 27 24" fill="none" xmlns="http://www.w3.org/2000/svg">
    <path d="M13.3333 24C12.8 24 12.2667 23.7333 11.8667 23.4667L2.26667 13.7333C0.8 12.2667 0 10.1333 0 8C0 5.86667 0.8 3.86667 2.26667 2.4C3.86667 0.8 5.86667 0 8 0C10 0 11.8667 0.8 13.3333 2.13333C14.8 0.8 16.6667 0.133333 18.6667 0C20.8 0 22.8 0.8 24.2667 2.26667C27.3333 5.46667 27.3333 10.5333 24.2667 13.6L14.6667 23.2C14.4 23.8667 13.8667 24 13.3333 24ZM8 2.66667C6.66667 2.66667 5.2 3.2 4.26667 4.26667C3.2 5.2 2.66667 6.53333 2.66667 8C2.66667 9.46667 3.2 10.8 4.26667 11.8667L13.3333 21.0667L22.4 11.8667C24.4 9.73333 24.4 6.4 22.4 4.26667C21.4667 3.2 20.1333 2.66667 18.8 2.66667C17.4667 2.66667 16.1333 3.2 15.0667 4.13333L13.3333 5.86667L11.7333 4.26667C10.6667 3.2 9.33333 2.66667 8 2.66667Z" fill="#A4A6A6"/>
</svg>
